<?xml version="1.0" encoding="UTF-8" standalone="no"?>
<!-- Created with Inkscape (http://www.inkscape.org/) -->

<svg
   width="297mm"
   height="210mm"
   viewBox="0 0 297 210"
   version="1.1"
   id="svg5"
   inkscape:version="1.1.2 (b8e25be833, 2022-02-05)"
   sodipodi:docname="iot-postbox_logo.svg"
   xmlns:inkscape="http://www.inkscape.org/namespaces/inkscape"
   xmlns:sodipodi="http://sodipodi.sourceforge.net/DTD/sodipodi-0.dtd"
   xmlns="http://www.w3.org/2000/svg"
   xmlns:svg="http://www.w3.org/2000/svg">
  <sodipodi:namedview
     id="namedview7"
     pagecolor="#ffffff"
     bordercolor="#999999"
     borderopacity="1"
     inkscape:pageshadow="0"
     inkscape:pageopacity="0"
     inkscape:pagecheckerboard="0"
     inkscape:document-units="mm"
     showgrid="false"
     inkscape:snap-object-midpoints="true"
     inkscape:zoom="1.1093501"
     inkscape:cx="627.87699"
     inkscape:cy="543.52464"
     inkscape:window-width="1920"
     inkscape:window-height="1137"
     inkscape:window-x="-8"
     inkscape:window-y="-8"
     inkscape:window-maximized="1"
     inkscape:current-layer="g9784" />
  <defs
     id="defs2">
    <linearGradient
       id="linearGradient1186"
       inkscape:swatch="solid">
      <stop
         style="stop-color:#000000;stop-opacity:1;"
         offset="0"
         id="stop1184" />
    </linearGradient>
  </defs>
  <g
     inkscape:label="Capa 1"
     inkscape:groupmode="layer"
     id="layer1">
    <g
       id="g9784"
       transform="matrix(0.07416019,0,0,0.07416019,0.09082546,-3.1005763)">
      <rect
         style="fill:none;fill-opacity:1;stroke-width:13.8901;stroke-miterlimit:4;stroke-dasharray:none"
         id="rect80"
         width="286.05249"
         height="202.00287"
         x="469.57767"
         y="493.55798"
         ry="14.67489" />
      <path
         id="rect1584"
         style="fill:none;stroke:#000000;stroke-width:42.3647"
         d="m 346.45276,409.39169 c 393.74682,-20.1411 337.25011,-10.70197 428.96863,0 10.65197,1.24292 17.73972,9.63919 19.35786,21.36337 17.49122,126.73503 14.14669,207.2354 0,279.1967 -2.28299,11.61301 -8.70319,22.58293 -19.35786,21.36338 -152.86995,-17.49777 -286.40215,-0.74924 -428.96863,0 -10.7241,0.0556 -20.11987,-9.55271 -19.35784,-21.36338 6.05148,-93.79062 16.28405,-188.08217 0,-279.1967 -2.08221,-11.6507 8.64759,-20.81552 19.35784,-21.36337 z"
         sodipodi:nodetypes="sssssssss" />
      <path
         style="fill:none;fill-opacity:1;stroke:#000000;stroke-width:27.7801;stroke-linecap:round;stroke-linejoin:round;stroke-miterlimit:4;stroke-dasharray:none;stroke-dashoffset:0;stroke-opacity:1"
         d="m 394.00582,471.10918 c 59.16777,35.50074 124.07527,82.62913 172.74393,96.86049 68.87473,-37.26482 138.03601,-74.29148 167.62016,-97.75001"
         id="path1718"
         sodipodi:nodetypes="ccc" />
      <path
         style="fill:none;stroke:#000000;stroke-width:20.0141;stroke-linecap:round;stroke-linejoin:round;stroke-miterlimit:4;stroke-dasharray:none;stroke-opacity:1"
         d="m 814.42726,490.64508 129.67088,-11.60741 c 4.81832,-51.1589 8.59991,-102.53068 3.26111,-155.77508 2.17171,-26.82949 2.6912,-57.00606 -1.23781,-96.19447"
         id="path2240"
         sodipodi:nodetypes="cccc" />
      <path
         style="fill:none;stroke:#000000;stroke-width:17.4145;stroke-linecap:round;stroke-linejoin:round;stroke-miterlimit:4;stroke-dasharray:none;stroke-opacity:1"
         d="m 395.97743,678.36048 c 21.41751,-34.90261 68.91422,-65.74721 73.58128,-92.21776"
         id="path3368"
         sodipodi:nodetypes="cc" />
      <path
         style="fill:none;stroke:#000000;stroke-width:17.4145;stroke-linecap:round;stroke-linejoin:round;stroke-miterlimit:4;stroke-dasharray:none;stroke-opacity:1"
         d="M 743.51223,680.81751 C 725.53672,649.71648 709.9487,626.59155 669.93093,588.59973"
         id="path3368-2"
         sodipodi:nodetypes="cc" />
      <path
         style="fill:none;stroke:#000000;stroke-width:11.9871;stroke-linecap:round;stroke-linejoin:round;stroke-miterlimit:4;stroke-dasharray:none;stroke-opacity:1"
         d="m 140.66056,645.33859 c 9.9901,-18.59591 75.13939,34.485 146.09717,-17.92655"
         id="path3368-1"
         sodipodi:nodetypes="cc" />
      <path
         style="fill:none;stroke:#000000;stroke-width:13.5791;stroke-linecap:round;stroke-linejoin:round;stroke-miterlimit:4;stroke-dasharray:none;stroke-opacity:1"
         d="m 28.222656,550.89113 c 18.665999,-22.3184 24.723998,33.3799 245.782284,9.5465"
         id="path3368-1-9"
         sodipodi:nodetypes="cc" />
      <path
         style="fill:none;stroke:#000000;stroke-width:10.7697;stroke-linecap:round;stroke-linejoin:round;stroke-miterlimit:4;stroke-dasharray:none;stroke-opacity:1"
         d="m 95.39669,448.60059 c 44.7464,33.63814 157.34582,8.34621 177.42311,47.33939"
         id="path3368-1-8"
         sodipodi:nodetypes="cc" />
      <path
         id="path7429"
         style="fill:none;stroke:#000000;stroke-width:16.0134;stroke-linecap:round;stroke-linejoin:round"
         d="m 1039.0374,85.649039 c 41.8737,21.877021 59.2359,72.027871 57.0025,122.716621 -1.5655,35.53016 -11.7813,70.11561 -33.4829,98.19536 m -42.6926,-197.86569 c 28.7321,21.24173 43.5018,54.77898 45.2676,99.67033 1.2843,32.65102 -6.8053,63.03733 -26.4603,79.52452 M 992.55621,141.52176 c 19.75879,14.17 30.00059,24.74982 31.54139,66.8439 v 0 c 0,19.43474 -6.5466,38.30742 -18.5917,53.59628"
         sodipodi:nodetypes="csccsccssc" />
      <path
         id="path7429-9"
         style="fill:none;stroke:#000000;stroke-width:16.0134;stroke-linecap:round;stroke-linejoin:round"
         d="m 864.58076,315.18849 c -36.12771,-30.40126 -61.65227,-74.59056 -57.0025,-122.7166 3.42024,-35.39983 9.53361,-84.83929 33.48291,-98.195376 m 42.69264,197.865666 c -28.7138,-24.8327 -43.00803,-48.88014 -45.26759,-99.67029 -1.27796,-28.72574 8.57359,-66.00141 26.46026,-79.52452 m 46.11553,146.36835 c -19.31062,-9.44491 -30.28957,-27.79699 -31.54141,-66.84383 v 0 c 0,-19.43481 6.54661,-38.30741 18.59168,-53.59631"
         sodipodi:nodetypes="csccsccssc" />
      <ellipse
         style="fill:#000000;fill-opacity:1;stroke:#000000;stroke-width:13.8901;stroke-linecap:round;stroke-linejoin:round;stroke-miterlimit:4;stroke-dasharray:none;stroke-dashoffset:0;stroke-opacity:1"
         id="path9189"
         cx="946.73285"
         cy="199.29213"
         rx="24.001602"
         ry="23.02705" />
      <rect
         style="fill:none;fill-opacity:1;stroke-width:13.8901;stroke-miterlimit:4;stroke-dasharray:none"
         id="rect80-0"
         width="286.05249"
         height="202.00287"
         x="1915.192"
         y="491.19284"
         ry="14.67489" />
      <path
         id="rect1584-8"
         style="fill:none;stroke:#000000;stroke-width:42.3295;stroke-miterlimit:4;stroke-dasharray:none"
         d="m 1792.0671,407.02664 c 393.7469,-20.14111 337.2501,-10.70204 428.9687,0 10.6518,1.24289 17.7397,9.63918 19.3578,21.36332 17.4913,126.73507 14.1467,207.23545 0,279.19673 -2.283,11.61303 -8.7032,22.58293 -19.3578,21.36338 -152.8699,-17.49775 -286.4022,-0.74923 -428.9687,0 -10.724,0.0556 -20.1199,-9.55269 -19.3579,-21.36338 6.0515,-93.7906 16.284,-188.08217 0,-279.19673 -2.0822,-11.65066 8.6477,-20.81548 19.3579,-21.36332 z"
         sodipodi:nodetypes="sssssssss" />
      <path
         style="fill:none;fill-opacity:1;stroke:#000000;stroke-width:27.7801;stroke-linecap:round;stroke-linejoin:round;stroke-miterlimit:4;stroke-dasharray:none;stroke-dashoffset:0;stroke-opacity:1"
         d="m 1792.0671,407.02664 c 59.1678,35.50074 171.6283,144.34661 220.297,158.57799 68.8748,-37.26483 190.9974,-134.41803 220.5815,-157.87654"
         id="path1718-5"
         sodipodi:nodetypes="ccc" />
      <path
         style="fill:none;stroke:#000000;stroke-width:20.0141;stroke-linecap:round;stroke-linejoin:round;stroke-miterlimit:4;stroke-dasharray:none;stroke-opacity:1"
         d="m 2260.0417,488.28001 129.6707,-11.60738 c 4.8185,-51.15896 8.6,-102.53071 3.2613,-155.7751 2.1716,-26.82948 2.6911,-57.00605 -1.238,-96.19451"
         id="path2240-5"
         sodipodi:nodetypes="cccc" />
      <path
         style="fill:none;stroke:#000000;stroke-width:17.4145;stroke-linecap:round;stroke-linejoin:round;stroke-miterlimit:4;stroke-dasharray:none;stroke-opacity:1"
         d="m 1785.4085,720.619 c 21.4175,-34.9026 156.2992,-155.1221 160.9662,-181.59265"
         id="path3368-3"
         sodipodi:nodetypes="cc" />
      <path
         style="fill:none;stroke:#000000;stroke-width:17.4145;stroke-linecap:round;stroke-linejoin:round;stroke-miterlimit:4;stroke-dasharray:none;stroke-opacity:1"
         d="m 2235.2999,734.43971 c -17.9755,-31.10103 -118.167,-166.16096 -158.1848,-204.1528"
         id="path3368-2-0"
         sodipodi:nodetypes="cc" />
      <path
         style="fill:none;stroke:#000000;stroke-width:11.9871;stroke-linecap:round;stroke-linejoin:round;stroke-miterlimit:4;stroke-dasharray:none;stroke-opacity:1"
         d="m 1586.2749,642.97354 c 9.9901,-18.59591 75.1395,34.485 146.0972,-17.92655"
         id="path3368-1-2"
         sodipodi:nodetypes="cc" />
      <path
         style="fill:none;stroke:#000000;stroke-width:13.5792;stroke-linecap:round;stroke-linejoin:round;stroke-miterlimit:4;stroke-dasharray:none;stroke-opacity:1"
         d="m 1473.837,548.52606 c 18.666,-22.31838 24.724,33.3799 245.7823,9.54652"
         id="path3368-1-9-2"
         sodipodi:nodetypes="cc" />
      <path
         style="fill:none;stroke:#000000;stroke-width:13.5792;stroke-linecap:round;stroke-linejoin:round;stroke-miterlimit:4;stroke-dasharray:none;stroke-opacity:1"
         d="m 2863.6972,548.97278 c 74.163,-6.3454 24.724,33.3799 245.7823,9.5465"
         id="path3368-1-9-2-9"
         sodipodi:nodetypes="cc"
         inkscape:export-filename="C:\Users\pacle\Desktop\path3368-1-9-2-9.png"
         inkscape:export-xdpi="199.95117"
         inkscape:export-ydpi="199.95117" />
      <path
         style="fill:none;stroke:#000000;stroke-width:10.7697;stroke-linecap:round;stroke-linejoin:round;stroke-miterlimit:4;stroke-dasharray:none;stroke-opacity:1"
         d="m 1541.0111,446.23552 c 44.7463,33.63814 157.3458,8.34622 177.423,47.3394"
         id="path3368-1-8-4"
         sodipodi:nodetypes="cc" />
      <path
         id="path7429-8"
         style="fill:none;stroke:#000000;stroke-width:16.0134;stroke-linecap:round;stroke-linejoin:round"
         d="m 2484.6519,83.283984 c 41.8737,21.877036 59.2359,72.027826 57.0024,122.716596 -1.5654,35.53015 -11.7812,70.11564 -33.4829,98.19536 m -42.6926,-197.86566 c 28.7321,21.2417 43.5018,54.77898 45.2677,99.6703 1.2843,32.651 -6.8054,63.03732 -26.4605,79.52452 m -46.1155,-146.36844 c 19.7588,14.17005 30.0007,24.74985 31.5414,66.84392 v 0 c 0,19.43473 -6.5465,38.3074 -18.5916,53.59629"
         sodipodi:nodetypes="csccsccssc" />
      <path
         id="path7429-9-8"
         style="fill:none;stroke:#000000;stroke-width:16.0134;stroke-linecap:round;stroke-linejoin:round"
         d="m 2310.1952,312.82342 c -36.1277,-30.40124 -61.6524,-74.59054 -57.0026,-122.71658 3.4202,-35.39987 9.5336,-84.83929 33.4829,-98.195374 m 42.6927,197.865664 c -28.7137,-24.83271 -43.008,-48.88013 -45.2676,-99.67029 -1.278,-28.72575 8.5735,-66.00141 26.4603,-79.52452 m 46.1155,146.36835 c -19.3107,-9.44491 -30.2895,-27.79699 -31.5414,-66.84383 v 0 c 0,-19.43481 6.5465,-38.30741 18.5916,-53.59631"
         sodipodi:nodetypes="csccsccssc" />
      <ellipse
         style="fill:#000000;fill-opacity:1;stroke:#000000;stroke-width:13.8901;stroke-linecap:round;stroke-linejoin:round;stroke-miterlimit:4;stroke-dasharray:none;stroke-dashoffset:0;stroke-opacity:1"
         id="path9189-4"
         cx="2392.3472"
         cy="196.92712"
         rx="24.001602"
         ry="23.02705" />
      <rect
         style="fill:none;fill-opacity:1;stroke-width:13.8901;stroke-miterlimit:4;stroke-dasharray:none"
         id="rect80-0-0"
         width="286.05249"
         height="202.00287"
         x="3283.5667"
         y="479.88605"
         ry="14.67489"
         inkscape:export-filename="C:\Users\pacle\Desktop\path3368-1-9-2-9.png"
         inkscape:export-xdpi="199.95117"
         inkscape:export-ydpi="199.95117" />
      <path
         id="rect1584-8-0"
         style="fill:none;stroke:#000000;stroke-width:42.3295;stroke-miterlimit:4;stroke-dasharray:none"
         d="m 3160.4419,395.71968 c 393.7467,-20.141 337.2501,-10.702 428.9687,0 10.6518,1.2429 17.7397,9.6392 19.3577,21.3634 17.4914,126.735 14.1468,207.2354 0,279.1967 -2.2829,11.613 -8.7031,22.5829 -19.3577,21.3634 -152.87,-17.4978 -286.4022,-0.7493 -428.9687,0 -10.724,0.056 -20.1199,-9.5527 -19.3579,-21.3634 6.0515,-93.7906 16.284,-188.0822 0,-279.1967 -2.0822,-11.6507 8.6477,-20.8155 19.3579,-21.3634 z"
         sodipodi:nodetypes="sssssssss"
         inkscape:export-filename="C:\Users\pacle\Desktop\path3368-1-9-2-9.png"
         inkscape:export-xdpi="199.95117"
         inkscape:export-ydpi="199.95117" />
      <path
         style="fill:none;fill-opacity:1;stroke:#000000;stroke-width:27.7801;stroke-linecap:round;stroke-linejoin:round;stroke-miterlimit:4;stroke-dasharray:none;stroke-dashoffset:0;stroke-opacity:1"
         d="m 3160.4419,395.71968 c 59.1678,35.5008 171.6283,144.3466 220.2969,158.578 68.8748,-37.2648 190.9975,-134.418 220.5816,-157.8765"
         id="path1718-5-0"
         sodipodi:nodetypes="ccc"
         inkscape:export-filename="C:\Users\pacle\Desktop\path3368-1-9-2-9.png"
         inkscape:export-xdpi="199.95117"
         inkscape:export-ydpi="199.95117" />
      <path
         style="fill:none;stroke:#000000;stroke-width:20.0141;stroke-linecap:round;stroke-linejoin:round;stroke-miterlimit:4;stroke-dasharray:none;stroke-opacity:1"
         d="m 3628.4165,476.97308 129.6707,-11.6074 c 4.8183,-51.1589 8.6,-102.5306 3.2612,-155.77504 2.1716,-26.82947 2.6912,-57.00606 -1.2379,-96.19451"
         id="path2240-5-2"
         sodipodi:nodetypes="cccc"
         inkscape:export-filename="C:\Users\pacle\Desktop\path3368-1-9-2-9.png"
         inkscape:export-xdpi="199.95117"
         inkscape:export-ydpi="199.95117" />
      <path
         style="fill:none;stroke:#000000;stroke-width:17.4145;stroke-linecap:round;stroke-linejoin:round;stroke-miterlimit:4;stroke-dasharray:none;stroke-opacity:1"
         d="m 3153.7833,709.31208 c 21.4175,-34.9026 156.2992,-155.1221 160.9662,-181.5927"
         id="path3368-3-4"
         sodipodi:nodetypes="cc"
         inkscape:export-filename="C:\Users\pacle\Desktop\path3368-1-9-2-9.png"
         inkscape:export-xdpi="199.95117"
         inkscape:export-ydpi="199.95117" />
      <path
         style="fill:none;stroke:#000000;stroke-width:17.4145;stroke-linecap:round;stroke-linejoin:round;stroke-miterlimit:4;stroke-dasharray:none;stroke-opacity:1"
         d="m 3603.6747,723.13278 c -15.4254,-25.3658 -83.8305,-110.2636 -129.394,-172.476 -7.9801,-10.896 -23.2107,-22.7362 -28.7908,-31.6768"
         id="path3368-2-0-3"
         sodipodi:nodetypes="csc"
         inkscape:export-filename="C:\Users\pacle\Desktop\path3368-1-9-2-9.png"
         inkscape:export-xdpi="199.95117"
         inkscape:export-ydpi="199.95117" />
      <path
         style="fill:none;stroke:#000000;stroke-width:11.9871;stroke-linecap:round;stroke-linejoin:round;stroke-miterlimit:4;stroke-dasharray:none;stroke-opacity:1"
         d="m 2922.5925,633.76208 c 7.7465,-15.8514 43.7764,2.81 73.4803,2.3328 20.7902,-0.3341 55.6275,4.188 85.9102,-11.8356"
         id="path3368-1-2-6"
         sodipodi:nodetypes="csc"
         inkscape:export-filename="C:\Users\pacle\Desktop\path3368-1-9-2-9.png"
         inkscape:export-xdpi="199.95117"
         inkscape:export-ydpi="199.95117" />
      <path
         style="fill:none;stroke:#000000;stroke-width:10.7697;stroke-linecap:round;stroke-linejoin:round;stroke-miterlimit:4;stroke-dasharray:none;stroke-opacity:1"
         d="m 2891.4255,483.06928 c 34.7787,18.7736 63.5687,4.5768 124.0165,-2.6696 18.1135,-0.324 62.6763,-3.8203 73.716,9.7441"
         id="path3368-1-8-4-5"
         sodipodi:nodetypes="ccc"
         inkscape:export-filename="C:\Users\pacle\Desktop\path3368-1-9-2-9.png"
         inkscape:export-xdpi="199.95117"
         inkscape:export-ydpi="199.95117" />
      <path
         id="path7429-8-7"
         style="mix-blend-mode:normal;fill:none;stroke:#000000;stroke-width:16.0134;stroke-linecap:round;stroke-linejoin:round"
         d="m 3853.0266,71.977092 c 41.8736,21.87703 59.236,72.027828 57.0025,122.716588 -1.5654,35.53015 -11.7814,70.11564 -33.4829,98.19538 M 3833.8536,95.023382 c 28.7321,21.241698 43.5018,54.778988 45.2675,99.670298 1.2844,32.65102 -6.8052,63.03732 -26.4603,79.52452 m -46.1155,-146.36843 c 19.7588,14.17005 30.0007,24.74985 31.5414,66.84391 v 0 c 0,19.43473 -6.5465,38.30741 -18.5916,53.59631"
         sodipodi:nodetypes="csccsccssc"
         inkscape:export-filename="C:\Users\pacle\Desktop\path3368-1-9-2-9.png"
         inkscape:export-xdpi="199.95117"
         inkscape:export-ydpi="199.95117" />
      <path
         id="path7429-9-8-5"
         style="fill:none;stroke:#000000;stroke-width:16.0134;stroke-linecap:round;stroke-linejoin:round"
         d="m 3678.5698,301.51654 c -36.1277,-30.40124 -61.6522,-74.59056 -57.0024,-122.7166 3.4202,-35.39986 9.5336,-84.839278 33.4829,-98.195358 m 42.6927,197.865648 c -28.7139,-24.8327 -43.0082,-48.88014 -45.2676,-99.67029 -1.278,-28.72574 8.5735,-66.0014 26.4602,-79.524518 m 46.1156,146.368368 c -19.3107,-9.44492 -30.2897,-27.79699 -31.5414,-66.84385 v 0 c 0,-19.43481 6.5465,-38.3074 18.5916,-53.5963"
         sodipodi:nodetypes="csccsccssc"
         inkscape:export-filename="C:\Users\pacle\Desktop\path3368-1-9-2-9.png"
         inkscape:export-xdpi="199.95117"
         inkscape:export-ydpi="199.95117" />
      <ellipse
         style="fill:#000000;fill-opacity:1;stroke:#000000;stroke-width:13.8901;stroke-linecap:round;stroke-linejoin:round;stroke-miterlimit:4;stroke-dasharray:none;stroke-dashoffset:0;stroke-opacity:1"
         id="path9189-4-4"
         cx="3760.7214"
         cy="185.62024"
         rx="24.001602"
         ry="23.02705"
         inkscape:export-filename="C:\Users\pacle\Desktop\path3368-1-9-2-9.png"
         inkscape:export-xdpi="199.95117"
         inkscape:export-ydpi="199.95117" />
      <path
         style="fill:none;stroke:#000000;stroke-width:13.5792;stroke-linecap:round;stroke-linejoin:round;stroke-miterlimit:4;stroke-dasharray:none;stroke-opacity:1"
         d="m 1331.1041,1970.2034 c 74.163,-6.3454 24.724,33.3799 245.7823,9.5465"
         id="path3368-1-9-2-9-7"
         sodipodi:nodetypes="cc"
         inkscape:export-filename="C:\Users\pacle\Desktop\iot-postbox_logo.png"
         inkscape:export-xdpi="199.95117"
         inkscape:export-ydpi="199.95117" />
      <rect
         style="fill:none;fill-opacity:1;stroke-width:13.8901;stroke-miterlimit:4;stroke-dasharray:none"
         id="rect80-0-0-5"
         width="286.05249"
         height="202.00287"
         x="1750.9738"
         y="1901.1167"
         ry="14.67489"
         inkscape:export-filename="C:\Users\pacle\Desktop\iot-postbox_logo.png"
         inkscape:export-xdpi="199.95117"
         inkscape:export-ydpi="199.95117" />
      <path
         id="rect1584-8-0-2"
         style="fill:none;stroke:#000000;stroke-width:42.3295;stroke-miterlimit:4;stroke-dasharray:none"
         d="m 1627.8488,1816.9503 c 393.7467,-20.141 337.2501,-10.702 428.9687,0 10.6518,1.2429 17.7397,9.6392 19.3577,21.3634 17.4914,126.735 14.1468,207.2354 0,279.1967 -2.2829,11.613 -8.7031,22.5829 -19.3577,21.3634 -152.87,-17.4978 -286.4022,-0.7493 -428.9687,0 -10.724,0.056 -20.1199,-9.5527 -19.3579,-21.3634 6.0515,-93.7906 16.284,-188.0822 0,-279.1967 -2.0822,-11.6507 8.6477,-20.8155 19.3579,-21.3634 z"
         sodipodi:nodetypes="sssssssss"
         inkscape:export-filename="C:\Users\pacle\Desktop\iot-postbox_logo.png"
         inkscape:export-xdpi="199.95117"
         inkscape:export-ydpi="199.95117" />
      <path
         style="fill:none;fill-opacity:1;stroke:#000000;stroke-width:27.7801;stroke-linecap:round;stroke-linejoin:round;stroke-miterlimit:4;stroke-dasharray:none;stroke-dashoffset:0;stroke-opacity:1"
         d="m 1627.8488,1816.9503 c 29.8463,17.9079 79.0346,77.4382 123.3695,107.8903 43.8795,30.1392 72.8089,43.6351 96.9274,50.6877 41.4001,-22.3996 104.1991,-63.3201 150.2556,-103.1023 30.4211,-26.2767 58.5247,-45.4164 70.326,-54.7742"
         id="path1718-5-0-4"
         sodipodi:nodetypes="cscsc"
         inkscape:export-filename="C:\Users\pacle\Desktop\iot-postbox_logo.png"
         inkscape:export-xdpi="199.95117"
         inkscape:export-ydpi="199.95117" />
      <path
         style="fill:none;stroke:#000000;stroke-width:20.0141;stroke-linecap:round;stroke-linejoin:round;stroke-miterlimit:4;stroke-dasharray:none;stroke-opacity:1"
         d="m 2095.8234,1898.2037 74.8865,-5.263 54.7841,-6.3444 c 4.8183,-51.1589 8.6,-102.5306 3.2612,-155.7751 2.1716,-26.8294 2.6912,-57.006 -1.2379,-96.1945"
         id="path2240-5-2-3"
         sodipodi:nodetypes="ccccc"
         inkscape:export-filename="C:\Users\pacle\Desktop\iot-postbox_logo.png"
         inkscape:export-xdpi="199.95117"
         inkscape:export-ydpi="199.95117" />
      <path
         style="fill:none;stroke:#000000;stroke-width:17.4145;stroke-linecap:round;stroke-linejoin:round;stroke-miterlimit:4;stroke-dasharray:none;stroke-opacity:1"
         d="m 1621.1902,2130.5427 c 21.4175,-34.9026 156.2992,-155.1221 160.9662,-181.5927"
         id="path3368-3-4-0"
         sodipodi:nodetypes="cc"
         inkscape:export-filename="C:\Users\pacle\Desktop\iot-postbox_logo.png"
         inkscape:export-xdpi="199.95117"
         inkscape:export-ydpi="199.95117" />
      <path
         style="fill:none;stroke:#000000;stroke-width:17.4145;stroke-linecap:round;stroke-linejoin:round;stroke-miterlimit:4;stroke-dasharray:none;stroke-opacity:1"
         d="m 2071.0816,2144.3634 c -15.4254,-25.3658 -83.8305,-110.2636 -129.394,-172.476 -7.9801,-10.896 -23.2107,-22.7362 -28.7908,-31.6768"
         id="path3368-2-0-3-3"
         sodipodi:nodetypes="csc"
         inkscape:export-filename="C:\Users\pacle\Desktop\iot-postbox_logo.png"
         inkscape:export-xdpi="199.95117"
         inkscape:export-ydpi="199.95117" />
      <path
         style="fill:none;stroke:#000000;stroke-width:11.9871;stroke-linecap:round;stroke-linejoin:round;stroke-miterlimit:4;stroke-dasharray:none;stroke-opacity:1"
         d="m 1389.9994,2054.9927 c 7.7465,-15.8514 43.7764,2.81 73.4803,2.3328 20.7902,-0.3341 55.6275,4.188 85.9102,-11.8356"
         id="path3368-1-2-6-8"
         sodipodi:nodetypes="csc"
         inkscape:export-filename="C:\Users\pacle\Desktop\iot-postbox_logo.png"
         inkscape:export-xdpi="199.95117"
         inkscape:export-ydpi="199.95117" />
      <path
         style="fill:none;stroke:#000000;stroke-width:10.7697;stroke-linecap:round;stroke-linejoin:round;stroke-miterlimit:4;stroke-dasharray:none;stroke-opacity:1"
         d="m 1358.8324,1904.2999 c 34.7787,18.7736 63.5687,4.5768 124.0165,-2.6696 18.1135,-0.324 62.6763,-3.8203 73.716,9.7441"
         id="path3368-1-8-4-5-3"
         sodipodi:nodetypes="ccc"
         inkscape:export-filename="C:\Users\pacle\Desktop\iot-postbox_logo.png"
         inkscape:export-xdpi="199.95117"
         inkscape:export-ydpi="199.95117" />
      <path
         style="color:#000000;fill:#000000;stroke-linecap:round;stroke-linejoin:round;-inkscape-stroke:none"
         d="m 2309.1963,1487.7055 c -2.0468,3.9189 3.6109,10.5506 7.5293,12.5983 9.4586,4.9417 17.5219,11.4379 24.3496,19.2031 20.7668,23.6184 29.974,59.4642 28.3613,96.0645 -1.5082,34.228 -11.3187,67.1276 -31.8184,93.6523 -2.7034,3.4988 -4.181,12.6412 -0.6826,15.3451 3.4983,2.7038 10.6481,-2.0543 13.3526,-5.5521 22.9032,-29.6348 33.5235,-65.9082 35.1464,-102.7402 1.7491,-39.6935 -7.879,-79.5308 -32.3339,-107.3438 -8.0403,-9.1443 -18.9037,-16.3383 -30.1667,-22.2227 -4.8821,-1.89 -10.8544,-2.3102 -13.7376,0.9955 z m -16.4001,19.8989 c -2.6293,3.5563 0.6589,9.446 4.2158,12.0745 26.5473,19.6265 39.8134,53.2648 41.5163,96.5605 1.2248,31.1365 -6.8327,59.0048 -23.6055,73.0742 -3.3892,2.8415 -8.7661,11.0948 -5.9238,14.4833 2.8421,3.3886 12.8268,0.629 16.2148,-2.2138 22.5375,-18.905 30.6585,-51.8073 29.3145,-85.9727 -1.8285,-46.4868 -17.591,-82.938 -48.5078,-105.7949 -4.5305,-2.6218 -9.8642,-5.0298 -13.2243,-2.2111 z m -30.1604,31.973 c -2.5767,3.5932 3.966,12.0279 7.5588,14.6051 9.6449,6.9168 14.9354,13.5367 19.3142,21.6506 4.3671,8.0923 7.2159,19.9145 7.9726,40.2383 -0.033,17.5847 -5.9639,34.6521 -16.8691,48.4941 -2.7366,3.4734 -5.2625,11.2122 -1.7892,13.9489 3.4734,2.7365 11.6307,-0.5654 14.3673,-4.0387 13.1545,-16.6971 20.3106,-37.3181 20.3106,-58.5508 0,-0.098 0,-0.1954 -0.01,-0.293 -0.7932,-21.6706 -3.8275,-36.1622 -9.8945,-47.4043 -6.067,-11.242 -14.8686,-18.4011 -24.9825,-25.6543 -4.5373,-2.3875 -12.7506,-5.7845 -15.9782,-2.9959 z"
         id="path7429-8-7-6"
         sodipodi:nodetypes="ccsscscssccccscscsccccscsscccscc"
         inkscape:export-filename="C:\Users\pacle\Desktop\iot-postbox_logo.png"
         inkscape:export-xdpi="199.95117"
         inkscape:export-ydpi="199.95117" />
      <path
         style="color:#000000;fill:#000000;stroke-linecap:round;stroke-linejoin:round;-inkscape-stroke:none"
         d="m 2118.5576,1494.8429 c -15.3918,8.5837 -23.0929,26.4343 -28.2734,45.75 -5.1806,19.3157 -7.5596,40.8687 -9.2793,58.6679 -4.9647,51.3849 22.1857,97.9473 59.8164,129.6133 3.3838,2.8466 12.5669,6.1085 15.4135,2.7247 2.8471,-3.3833 -2.0496,-9.7084 -5.4328,-12.5556 -34.6246,-29.1363 -58.1926,-73.376 -53.8577,-118.2433 1.7005,-17.6005 4.0882,-38.4657 8.8067,-56.0586 4.7185,-17.5929 11.3256,-33.2241 19.883,-37.9965 3.8622,-2.1535 10.3489,-8.7953 8.1952,-12.6575 -3.0451,-4.2556 -11.0487,-0.4247 -15.2716,0.7556 z m 22.957,19.2754 c -11.2022,8.4694 -18.3998,22.5215 -23.2343,38.0722 -4.8346,15.5507 -7.083,32.7663 -6.3965,48.1953 2.321,52.1759 19.7338,78.0762 49.3877,103.7218 3.3445,2.8923 12.1368,6.4361 15.0294,3.0919 2.8923,-3.3445 -2.569,-10.6613 -5.9132,-13.5539 -27.7739,-24.0197 -40.3081,-44.5663 -42.5059,-93.9707 -0.5915,-13.2966 1.4461,-29.0812 5.6895,-42.7305 4.2434,-13.6493 10.9152,-24.9971 17.5996,-30.0507 3.5283,-2.6667 7.4193,-10.6837 4.7517,-14.2114 -3.6034,-3.7953 -10.3883,-0.3165 -14.408,1.436 z m 32.2214,27.9858 c -13.1545,16.6971 -20.8268,36.6935 -20.8268,57.9263 6e-4,0.085 0,0.1706 0.01,0.2558 0.6486,20.2326 3.7854,35.7188 9.8359,47.8418 6.0505,12.1231 15.2335,20.5809 26.1895,25.9395 3.9727,1.9431 10.7023,3.1545 12.6448,-0.8186 1.9417,-3.9723 -3.9998,-9.7758 -7.9718,-11.7182 -8.3547,-4.0863 -11.9548,-11.3771 -16.5344,-20.5531 -4.5678,-9.1523 -7.5366,-22.3312 -8.1504,-41.0683 0.027,-17.5939 5.2833,-35.8593 16.1938,-49.7081 2.7365,-3.4734 6.6695,-11.5577 3.1962,-14.2944 -4.4271,-2.5905 -11.2286,3.554 -14.5828,6.1973 z"
         id="path7429-9-8-5-7"
         sodipodi:nodetypes="csscccssccccsssccssccccccssscscscc"
         inkscape:export-filename="C:\Users\pacle\Desktop\iot-postbox_logo.png"
         inkscape:export-xdpi="199.95117"
         inkscape:export-ydpi="199.95117" />
      <g
         id="path9189-4-4-3"
         inkscape:export-filename="C:\Users\pacle\Desktop\iot-postbox_logo.png"
         inkscape:export-xdpi="199.95117"
         inkscape:export-ydpi="199.95117"
         transform="translate(1225.3115,-70.825078)">
        <path
           style="color:#000000;fill:#000000;stroke-width:13.8901;stroke-linecap:round;stroke-linejoin:round;-inkscape-stroke:none"
           d="m 1026.8186,1677.6759 a 24.001602,23.02705 0 0 1 -24.0016,23.0271 24.001602,23.02705 0 0 1 -24.00159,-23.0271 24.001602,23.02705 0 0 1 24.00159,-23.027 24.001602,23.02705 0 0 1 24.0016,23.027 z"
           id="path20454" />
        <path
           style="color:#000000;fill:#000000;stroke-linecap:round;stroke-linejoin:round;-inkscape-stroke:none"
           d="m 1002.8164,1647.7031 c -11.98696,0 -22.64012,4.9719 -27.75679,14.8502 -2.07866,4.0131 -3.55132,12.0386 -3.55132,16.8427 0,7.2183 2.65441,13.8173 7.03744,18.9747 5.71471,6.7243 14.7308,9.2777 24.27067,9.2777 9.5947,0 19.3382,-3.5661 24.0073,-11.114 4.8637,-7.8626 6.94,-11.6944 6.94,-18.8586 0,-11.3266 -4.6901,-19.2769 -14.1852,-24.3766 -4.4457,-2.3877 -11.3866,-5.5961 -16.7621,-5.5961 z m 0,13.8907 c 9.6547,0 17.0566,7.2767 17.0566,16.082 0,8.8052 -7.4019,16.082 -17.0566,16.082 -9.65472,0 -17.05663,-7.2768 -17.05663,-16.082 0,-8.8053 7.40191,-16.082 17.05663,-16.082 z"
           id="path20456"
           sodipodi:nodetypes="ssssssssssssss" />
      </g>
      <text
         xml:space="preserve"
         style="font-style:normal;font-weight:normal;font-size:142.709px;line-height:1.25;font-family:sans-serif;fill:#000000;fill-opacity:1;stroke:none;stroke-width:3.56773"
         x="2423.7996"
         y="2106.3718"
         id="text1822"><tspan
           sodipodi:role="line"
           id="tspan1820"
           style="stroke-width:3.56773"
           x="2423.7996"
           y="2106.3718">Final</tspan></text>
    </g>
  </g>
</svg>
