G04 #@! TF.GenerationSoftware,KiCad,Pcbnew,(5.1.12)-1*
G04 #@! TF.CreationDate,2021-12-21T15:59:21+01:00*
G04 #@! TF.ProjectId,iot-postbox,696f742d-706f-4737-9462-6f782e6b6963,v0.3*
G04 #@! TF.SameCoordinates,Original*
G04 #@! TF.FileFunction,Legend,Top*
G04 #@! TF.FilePolarity,Positive*
%FSLAX46Y46*%
G04 Gerber Fmt 4.6, Leading zero omitted, Abs format (unit mm)*
G04 Created by KiCad (PCBNEW (5.1.12)-1) date 2021-12-21 15:59:21*
%MOMM*%
%LPD*%
G01*
G04 APERTURE LIST*
%ADD10C,0.300000*%
%ADD11C,0.150000*%
%ADD12C,0.120000*%
G04 APERTURE END LIST*
D10*
X111285653Y-113901254D02*
X111818986Y-113901254D01*
X112047558Y-114739349D02*
X111285653Y-114739349D01*
X111285653Y-113139349D01*
X112047558Y-113139349D01*
X112657081Y-114663159D02*
X112885653Y-114739349D01*
X113266605Y-114739349D01*
X113418986Y-114663159D01*
X113495177Y-114586968D01*
X113571367Y-114434587D01*
X113571367Y-114282206D01*
X113495177Y-114129825D01*
X113418986Y-114053635D01*
X113266605Y-113977444D01*
X112961843Y-113901254D01*
X112809462Y-113825063D01*
X112733272Y-113748873D01*
X112657081Y-113596492D01*
X112657081Y-113444111D01*
X112733272Y-113291730D01*
X112809462Y-113215540D01*
X112961843Y-113139349D01*
X113342796Y-113139349D01*
X113571367Y-113215540D01*
X114257081Y-114739349D02*
X114257081Y-113139349D01*
X114866605Y-113139349D01*
X115018986Y-113215540D01*
X115095177Y-113291730D01*
X115171367Y-113444111D01*
X115171367Y-113672682D01*
X115095177Y-113825063D01*
X115018986Y-113901254D01*
X114866605Y-113977444D01*
X114257081Y-113977444D01*
X115857081Y-114129825D02*
X117076129Y-114129825D01*
X118142796Y-113139349D02*
X118295177Y-113139349D01*
X118447558Y-113215540D01*
X118523748Y-113291730D01*
X118599939Y-113444111D01*
X118676129Y-113748873D01*
X118676129Y-114129825D01*
X118599939Y-114434587D01*
X118523748Y-114586968D01*
X118447558Y-114663159D01*
X118295177Y-114739349D01*
X118142796Y-114739349D01*
X117990415Y-114663159D01*
X117914224Y-114586968D01*
X117838034Y-114434587D01*
X117761843Y-114129825D01*
X117761843Y-113748873D01*
X117838034Y-113444111D01*
X117914224Y-113291730D01*
X117990415Y-113215540D01*
X118142796Y-113139349D01*
X119209462Y-113139349D02*
X120276129Y-113139349D01*
X119590415Y-114739349D01*
X120809462Y-114663159D02*
X120961843Y-114739349D01*
X121266605Y-114739349D01*
X121418986Y-114663159D01*
X121495177Y-114510778D01*
X121495177Y-114434587D01*
X121418986Y-114282206D01*
X121266605Y-114206016D01*
X121038034Y-114206016D01*
X120885653Y-114129825D01*
X120809462Y-113977444D01*
X120809462Y-113901254D01*
X120885653Y-113748873D01*
X121038034Y-113672682D01*
X121266605Y-113672682D01*
X121418986Y-113748873D01*
X115742796Y-117439349D02*
X115590415Y-117363159D01*
X115514224Y-117286968D01*
X115438034Y-117134587D01*
X115438034Y-116677444D01*
X115514224Y-116525063D01*
X115590415Y-116448873D01*
X115742796Y-116372682D01*
X115971367Y-116372682D01*
X116123748Y-116448873D01*
X116199939Y-116525063D01*
X116276129Y-116677444D01*
X116276129Y-117134587D01*
X116199939Y-117286968D01*
X116123748Y-117363159D01*
X115971367Y-117439349D01*
X115742796Y-117439349D01*
X116961843Y-117439349D02*
X116961843Y-116372682D01*
X116961843Y-116677444D02*
X117038034Y-116525063D01*
X117114224Y-116448873D01*
X117266605Y-116372682D01*
X117418986Y-116372682D01*
X111933272Y-119301254D02*
X112466605Y-119301254D01*
X112695177Y-120139349D02*
X111933272Y-120139349D01*
X111933272Y-118539349D01*
X112695177Y-118539349D01*
X113304700Y-120063159D02*
X113533272Y-120139349D01*
X113914224Y-120139349D01*
X114066605Y-120063159D01*
X114142796Y-119986968D01*
X114218986Y-119834587D01*
X114218986Y-119682206D01*
X114142796Y-119529825D01*
X114066605Y-119453635D01*
X113914224Y-119377444D01*
X113609462Y-119301254D01*
X113457081Y-119225063D01*
X113380891Y-119148873D01*
X113304700Y-118996492D01*
X113304700Y-118844111D01*
X113380891Y-118691730D01*
X113457081Y-118615540D01*
X113609462Y-118539349D01*
X113990415Y-118539349D01*
X114218986Y-118615540D01*
X114904700Y-120139349D02*
X114904700Y-118539349D01*
X115514224Y-118539349D01*
X115666605Y-118615540D01*
X115742796Y-118691730D01*
X115818986Y-118844111D01*
X115818986Y-119072682D01*
X115742796Y-119225063D01*
X115666605Y-119301254D01*
X115514224Y-119377444D01*
X114904700Y-119377444D01*
X116504700Y-119529825D02*
X117723748Y-119529825D01*
X119323748Y-120139349D02*
X118409462Y-120139349D01*
X118866605Y-120139349D02*
X118866605Y-118539349D01*
X118714224Y-118767920D01*
X118561843Y-118920301D01*
X118409462Y-118996492D01*
X119933272Y-118691730D02*
X120009462Y-118615540D01*
X120161843Y-118539349D01*
X120542796Y-118539349D01*
X120695177Y-118615540D01*
X120771367Y-118691730D01*
X120847558Y-118844111D01*
X120847558Y-118996492D01*
X120771367Y-119225063D01*
X119857081Y-120139349D01*
X120847558Y-120139349D01*
D11*
X105751684Y-133696547D02*
X105751684Y-133544166D01*
X105789780Y-133467976D01*
X105865970Y-133391785D01*
X106018351Y-133353690D01*
X106285018Y-133353690D01*
X106437399Y-133391785D01*
X106513589Y-133467976D01*
X106551684Y-133544166D01*
X106551684Y-133696547D01*
X106513589Y-133772738D01*
X106437399Y-133848928D01*
X106285018Y-133887024D01*
X106018351Y-133887024D01*
X105865970Y-133848928D01*
X105789780Y-133772738D01*
X105751684Y-133696547D01*
X106551684Y-133010833D02*
X105751684Y-133010833D01*
X106551684Y-132553690D01*
X105751684Y-132553690D01*
X105713589Y-131601309D02*
X106742160Y-132287024D01*
X105751684Y-131182262D02*
X105751684Y-131029881D01*
X105789780Y-130953690D01*
X105865970Y-130877500D01*
X106018351Y-130839405D01*
X106285018Y-130839405D01*
X106437399Y-130877500D01*
X106513589Y-130953690D01*
X106551684Y-131029881D01*
X106551684Y-131182262D01*
X106513589Y-131258452D01*
X106437399Y-131334643D01*
X106285018Y-131372738D01*
X106018351Y-131372738D01*
X105865970Y-131334643D01*
X105789780Y-131258452D01*
X105751684Y-131182262D01*
X106132637Y-130229881D02*
X106132637Y-130496547D01*
X106551684Y-130496547D02*
X105751684Y-130496547D01*
X105751684Y-130115595D01*
X106132637Y-129544166D02*
X106132637Y-129810833D01*
X106551684Y-129810833D02*
X105751684Y-129810833D01*
X105751684Y-129429881D01*
D12*
X100339000Y-114310000D02*
X101669000Y-114310000D01*
X100339000Y-115640000D02*
X100339000Y-114310000D01*
X100339000Y-116910000D02*
X102999000Y-116910000D01*
X102999000Y-116910000D02*
X102999000Y-122050000D01*
X100339000Y-116910000D02*
X100339000Y-122050000D01*
X100339000Y-122050000D02*
X102999000Y-122050000D01*
X127702000Y-147748000D02*
X130362000Y-147748000D01*
X127702000Y-132448000D02*
X127702000Y-147748000D01*
X130362000Y-132448000D02*
X130362000Y-147748000D01*
X127702000Y-132448000D02*
X130362000Y-132448000D01*
X127702000Y-131178000D02*
X127702000Y-129848000D01*
X127702000Y-129848000D02*
X129032000Y-129848000D01*
X102225000Y-126260000D02*
X103900000Y-126260000D01*
X102225000Y-126260000D02*
X101575000Y-126260000D01*
X102225000Y-123140000D02*
X102875000Y-123140000D01*
X102225000Y-123140000D02*
X101575000Y-123140000D01*
X119650000Y-135390000D02*
X116050000Y-135390000D01*
X119650000Y-135390000D02*
X121850000Y-135390000D01*
X119650000Y-138610000D02*
X117450000Y-138610000D01*
X119650000Y-138610000D02*
X121850000Y-138610000D01*
X111590000Y-134150000D02*
X111590000Y-137100000D01*
X114810000Y-135950000D02*
X114810000Y-134150000D01*
D11*
X121125000Y-145225000D02*
X122425000Y-145225000D01*
X121125000Y-140275000D02*
X116975000Y-140275000D01*
X121125000Y-145425000D02*
X116975000Y-145425000D01*
X121125000Y-140275000D02*
X121125000Y-140475000D01*
X116975000Y-140275000D02*
X116975000Y-140475000D01*
X116975000Y-145425000D02*
X116975000Y-145225000D01*
X121125000Y-145425000D02*
X121125000Y-145225000D01*
D12*
X108640000Y-109130000D02*
X108030000Y-109130000D01*
X108640000Y-109130000D02*
X108640000Y-101510000D01*
X108640000Y-125750000D02*
X108640000Y-125130000D01*
X110760000Y-125750000D02*
X108640000Y-125750000D01*
X124880000Y-125750000D02*
X122760000Y-125750000D01*
X124880000Y-125130000D02*
X124880000Y-125750000D01*
X124880000Y-101510000D02*
X124880000Y-109130000D01*
X108640000Y-101510000D02*
X124880000Y-101510000D01*
X124705000Y-145397064D02*
X124705000Y-144942936D01*
X126175000Y-145397064D02*
X126175000Y-144942936D01*
X113527064Y-128365000D02*
X113072936Y-128365000D01*
X113527064Y-129835000D02*
X113072936Y-129835000D01*
X113022936Y-131985000D02*
X113477064Y-131985000D01*
X113022936Y-130515000D02*
X113477064Y-130515000D01*
X108722936Y-132885000D02*
X109177064Y-132885000D01*
X108722936Y-131415000D02*
X109177064Y-131415000D01*
X126175000Y-140232936D02*
X126175000Y-140687064D01*
X124705000Y-140232936D02*
X124705000Y-140687064D01*
X106402936Y-146235000D02*
X106857064Y-146235000D01*
X106402936Y-147705000D02*
X106857064Y-147705000D01*
X110597064Y-146305000D02*
X110142936Y-146305000D01*
X110597064Y-147775000D02*
X110142936Y-147775000D01*
X123572936Y-130075000D02*
X124027064Y-130075000D01*
X123572936Y-128605000D02*
X124027064Y-128605000D01*
X123572936Y-132850000D02*
X124027064Y-132850000D01*
X123572936Y-131380000D02*
X124027064Y-131380000D01*
X100459000Y-111262936D02*
X100459000Y-111717064D01*
X101929000Y-111262936D02*
X101929000Y-111717064D01*
X127860936Y-109855000D02*
X128315064Y-109855000D01*
X127860936Y-111325000D02*
X128315064Y-111325000D01*
X126175000Y-135862936D02*
X126175000Y-136317064D01*
X124705000Y-135862936D02*
X124705000Y-136317064D01*
X127860936Y-111975000D02*
X128315064Y-111975000D01*
X127860936Y-113445000D02*
X128315064Y-113445000D01*
X103757936Y-111515000D02*
X104212064Y-111515000D01*
X103757936Y-110045000D02*
X104212064Y-110045000D01*
X100850000Y-146490000D02*
X102180000Y-146490000D01*
X100850000Y-147820000D02*
X100850000Y-146490000D01*
X100850000Y-149090000D02*
X103510000Y-149090000D01*
X103510000Y-149090000D02*
X103510000Y-151690000D01*
X100850000Y-149090000D02*
X100850000Y-151690000D01*
X100850000Y-151690000D02*
X103510000Y-151690000D01*
X103990000Y-137250000D02*
X108240000Y-137250000D01*
X108240000Y-137250000D02*
X108240000Y-138270000D01*
X108240000Y-138270000D02*
X106640000Y-138270000D01*
X106640000Y-138270000D02*
X106640000Y-139550000D01*
X106640000Y-139550000D02*
X109530000Y-139550000D01*
X103990000Y-145370000D02*
X108240000Y-145370000D01*
X108240000Y-145370000D02*
X108240000Y-144350000D01*
X108240000Y-144350000D02*
X106640000Y-144350000D01*
X106640000Y-144350000D02*
X106640000Y-143070000D01*
X100420000Y-138970000D02*
X100420000Y-143650000D01*
X116250000Y-147830000D02*
X116250000Y-147380000D01*
X116700000Y-147380000D02*
X116250000Y-147380000D01*
X114250000Y-148060000D02*
X114670000Y-148060000D01*
X114250000Y-150040000D02*
X114250000Y-148060000D01*
X114250000Y-152410000D02*
X114250000Y-152010000D01*
X121770000Y-152010000D02*
X121770000Y-152410000D01*
X121770000Y-148060000D02*
X121350000Y-148060000D01*
X121770000Y-150040000D02*
X121770000Y-148060000D01*
X124790000Y-148930000D02*
X124790000Y-151590000D01*
X127390000Y-148930000D02*
X124790000Y-148930000D01*
X127390000Y-151590000D02*
X124790000Y-151590000D01*
X127390000Y-148930000D02*
X127390000Y-151590000D01*
X128660000Y-148930000D02*
X129990000Y-148930000D01*
X129990000Y-148930000D02*
X129990000Y-150260000D01*
X130360000Y-119750000D02*
X129030000Y-119750000D01*
X130360000Y-118420000D02*
X130360000Y-119750000D01*
X130360000Y-117150000D02*
X127700000Y-117150000D01*
X127700000Y-117150000D02*
X127700000Y-114550000D01*
X130360000Y-117150000D02*
X130360000Y-114550000D01*
X130360000Y-114550000D02*
X127700000Y-114550000D01*
X127700000Y-122190000D02*
X129030000Y-122190000D01*
X127700000Y-123520000D02*
X127700000Y-122190000D01*
X127700000Y-124790000D02*
X130360000Y-124790000D01*
X130360000Y-124790000D02*
X130360000Y-127390000D01*
X127700000Y-124790000D02*
X127700000Y-127390000D01*
X127700000Y-127390000D02*
X130360000Y-127390000D01*
X107798000Y-150030000D02*
X105113000Y-150030000D01*
X105113000Y-150030000D02*
X105113000Y-151950000D01*
X105113000Y-151950000D02*
X107798000Y-151950000D01*
X108895000Y-151920000D02*
X111580000Y-151920000D01*
X108895000Y-150000000D02*
X108895000Y-151920000D01*
X111580000Y-150000000D02*
X108895000Y-150000000D01*
X106115000Y-112350000D02*
X106115000Y-116250000D01*
X104115000Y-112350000D02*
X104115000Y-116250000D01*
X106115000Y-112350000D02*
X104115000Y-112350000D01*
X116430000Y-131315000D02*
X120330000Y-131315000D01*
X116430000Y-133315000D02*
X120330000Y-133315000D01*
X116430000Y-131315000D02*
X116430000Y-133315000D01*
X116430000Y-128140000D02*
X120330000Y-128140000D01*
X116430000Y-130140000D02*
X120330000Y-130140000D01*
X116430000Y-128140000D02*
X116430000Y-130140000D01*
X104690000Y-124438748D02*
X104690000Y-124961252D01*
X106160000Y-124438748D02*
X106160000Y-124961252D01*
X108688748Y-129865000D02*
X109211252Y-129865000D01*
X108688748Y-128395000D02*
X109211252Y-128395000D01*
X109211252Y-134745000D02*
X108688748Y-134745000D01*
X109211252Y-136215000D02*
X108688748Y-136215000D01*
X112578748Y-140975000D02*
X113101252Y-140975000D01*
X112578748Y-139505000D02*
X113101252Y-139505000D01*
X112578748Y-143525000D02*
X113101252Y-143525000D01*
X112578748Y-142055000D02*
X113101252Y-142055000D01*
X105680252Y-119895000D02*
X105157748Y-119895000D01*
X105680252Y-121365000D02*
X105157748Y-121365000D01*
X105680252Y-117640000D02*
X105157748Y-117640000D01*
X105680252Y-119110000D02*
X105157748Y-119110000D01*
D11*
X103785446Y-121892200D02*
X103785446Y-122606486D01*
X103737827Y-122749343D01*
X103642589Y-122844581D01*
X103499732Y-122892200D01*
X103404494Y-122892200D01*
X104166399Y-121892200D02*
X104833065Y-121892200D01*
X104404494Y-122892200D01*
X128275175Y-128616160D02*
X128275175Y-129425684D01*
X128322794Y-129520922D01*
X128370413Y-129568541D01*
X128465651Y-129616160D01*
X128656127Y-129616160D01*
X128751365Y-129568541D01*
X128798984Y-129520922D01*
X128846603Y-129425684D01*
X128846603Y-128616160D01*
X129275175Y-128711399D02*
X129322794Y-128663780D01*
X129418032Y-128616160D01*
X129656127Y-128616160D01*
X129751365Y-128663780D01*
X129798984Y-128711399D01*
X129846603Y-128806637D01*
X129846603Y-128901875D01*
X129798984Y-129044732D01*
X129227556Y-129616160D01*
X129846603Y-129616160D01*
X99969666Y-132143761D02*
X100112523Y-132191380D01*
X100350619Y-132191380D01*
X100445857Y-132143761D01*
X100493476Y-132096142D01*
X100541095Y-132000904D01*
X100541095Y-131905666D01*
X100493476Y-131810428D01*
X100445857Y-131762809D01*
X100350619Y-131715190D01*
X100160142Y-131667571D01*
X100064904Y-131619952D01*
X100017285Y-131572333D01*
X99969666Y-131477095D01*
X99969666Y-131381857D01*
X100017285Y-131286619D01*
X100064904Y-131239000D01*
X100160142Y-131191380D01*
X100398238Y-131191380D01*
X100541095Y-131239000D01*
X100874428Y-131191380D02*
X101112523Y-132191380D01*
X101303000Y-131477095D01*
X101493476Y-132191380D01*
X101731571Y-131191380D01*
X102636333Y-132191380D02*
X102064904Y-132191380D01*
X102350619Y-132191380D02*
X102350619Y-131191380D01*
X102255380Y-131334238D01*
X102160142Y-131429476D01*
X102064904Y-131477095D01*
X103131875Y-126617200D02*
X103131875Y-127426724D01*
X103179494Y-127521962D01*
X103227113Y-127569581D01*
X103322351Y-127617200D01*
X103512827Y-127617200D01*
X103608065Y-127569581D01*
X103655684Y-127521962D01*
X103703303Y-127426724D01*
X103703303Y-126617200D01*
X104608065Y-126617200D02*
X104417589Y-126617200D01*
X104322351Y-126664820D01*
X104274732Y-126712439D01*
X104179494Y-126855296D01*
X104131875Y-127045772D01*
X104131875Y-127426724D01*
X104179494Y-127521962D01*
X104227113Y-127569581D01*
X104322351Y-127617200D01*
X104512827Y-127617200D01*
X104608065Y-127569581D01*
X104655684Y-127521962D01*
X104703303Y-127426724D01*
X104703303Y-127188629D01*
X104655684Y-127093391D01*
X104608065Y-127045772D01*
X104512827Y-126998153D01*
X104322351Y-126998153D01*
X104227113Y-127045772D01*
X104179494Y-127093391D01*
X104131875Y-127188629D01*
X115900295Y-134046980D02*
X115900295Y-134856504D01*
X115947914Y-134951742D01*
X115995533Y-134999361D01*
X116090771Y-135046980D01*
X116281247Y-135046980D01*
X116376485Y-134999361D01*
X116424104Y-134951742D01*
X116471723Y-134856504D01*
X116471723Y-134046980D01*
X117424104Y-134046980D02*
X116947914Y-134046980D01*
X116900295Y-134523171D01*
X116947914Y-134475552D01*
X117043152Y-134427933D01*
X117281247Y-134427933D01*
X117376485Y-134475552D01*
X117424104Y-134523171D01*
X117471723Y-134618409D01*
X117471723Y-134856504D01*
X117424104Y-134951742D01*
X117376485Y-134999361D01*
X117281247Y-135046980D01*
X117043152Y-135046980D01*
X116947914Y-134999361D01*
X116900295Y-134951742D01*
X110323380Y-138429904D02*
X111132904Y-138429904D01*
X111228142Y-138382285D01*
X111275761Y-138334666D01*
X111323380Y-138239428D01*
X111323380Y-138048952D01*
X111275761Y-137953714D01*
X111228142Y-137906095D01*
X111132904Y-137858476D01*
X110323380Y-137858476D01*
X110656714Y-136953714D02*
X111323380Y-136953714D01*
X110275761Y-137191809D02*
X110990047Y-137429904D01*
X110990047Y-136810857D01*
X118237095Y-138898380D02*
X118237095Y-139707904D01*
X118284714Y-139803142D01*
X118332333Y-139850761D01*
X118427571Y-139898380D01*
X118618047Y-139898380D01*
X118713285Y-139850761D01*
X118760904Y-139803142D01*
X118808523Y-139707904D01*
X118808523Y-138898380D01*
X119189476Y-138898380D02*
X119808523Y-138898380D01*
X119475190Y-139279333D01*
X119618047Y-139279333D01*
X119713285Y-139326952D01*
X119760904Y-139374571D01*
X119808523Y-139469809D01*
X119808523Y-139707904D01*
X119760904Y-139803142D01*
X119713285Y-139850761D01*
X119618047Y-139898380D01*
X119332333Y-139898380D01*
X119237095Y-139850761D01*
X119189476Y-139803142D01*
X123317095Y-126198380D02*
X123317095Y-127007904D01*
X123364714Y-127103142D01*
X123412333Y-127150761D01*
X123507571Y-127198380D01*
X123698047Y-127198380D01*
X123793285Y-127150761D01*
X123840904Y-127103142D01*
X123888523Y-127007904D01*
X123888523Y-126198380D01*
X124888523Y-127198380D02*
X124317095Y-127198380D01*
X124602809Y-127198380D02*
X124602809Y-126198380D01*
X124507571Y-126341238D01*
X124412333Y-126436476D01*
X124317095Y-126484095D01*
X124242380Y-147741428D02*
X123766190Y-148074761D01*
X124242380Y-148312857D02*
X123242380Y-148312857D01*
X123242380Y-147931904D01*
X123290000Y-147836666D01*
X123337619Y-147789047D01*
X123432857Y-147741428D01*
X123575714Y-147741428D01*
X123670952Y-147789047D01*
X123718571Y-147836666D01*
X123766190Y-147931904D01*
X123766190Y-148312857D01*
X124337619Y-147550952D02*
X124337619Y-146789047D01*
X124242380Y-146550952D02*
X123242380Y-146550952D01*
X123242380Y-146170000D01*
X123290000Y-146074761D01*
X123337619Y-146027142D01*
X123432857Y-145979523D01*
X123575714Y-145979523D01*
X123670952Y-146027142D01*
X123718571Y-146074761D01*
X123766190Y-146170000D01*
X123766190Y-146550952D01*
X124242380Y-144979523D02*
X123766190Y-145312857D01*
X124242380Y-145550952D02*
X123242380Y-145550952D01*
X123242380Y-145170000D01*
X123290000Y-145074761D01*
X123337619Y-145027142D01*
X123432857Y-144979523D01*
X123575714Y-144979523D01*
X123670952Y-145027142D01*
X123718571Y-145074761D01*
X123766190Y-145170000D01*
X123766190Y-145550952D01*
X123242380Y-144360476D02*
X123242380Y-144170000D01*
X123290000Y-144074761D01*
X123385238Y-143979523D01*
X123575714Y-143931904D01*
X123909047Y-143931904D01*
X124099523Y-143979523D01*
X124194761Y-144074761D01*
X124242380Y-144170000D01*
X124242380Y-144360476D01*
X124194761Y-144455714D01*
X124099523Y-144550952D01*
X123909047Y-144598571D01*
X123575714Y-144598571D01*
X123385238Y-144550952D01*
X123290000Y-144455714D01*
X123242380Y-144360476D01*
X123290000Y-142979523D02*
X123242380Y-143074761D01*
X123242380Y-143217619D01*
X123290000Y-143360476D01*
X123385238Y-143455714D01*
X123480476Y-143503333D01*
X123670952Y-143550952D01*
X123813809Y-143550952D01*
X124004285Y-143503333D01*
X124099523Y-143455714D01*
X124194761Y-143360476D01*
X124242380Y-143217619D01*
X124242380Y-143122380D01*
X124194761Y-142979523D01*
X124147142Y-142931904D01*
X123813809Y-142931904D01*
X123813809Y-143122380D01*
X124242380Y-141979523D02*
X124242380Y-142550952D01*
X124242380Y-142265238D02*
X123242380Y-142265238D01*
X123385238Y-142360476D01*
X123480476Y-142455714D01*
X123528095Y-142550952D01*
X116149380Y-129039857D02*
X115673190Y-129373190D01*
X116149380Y-129611285D02*
X115149380Y-129611285D01*
X115149380Y-129230333D01*
X115197000Y-129135095D01*
X115244619Y-129087476D01*
X115339857Y-129039857D01*
X115482714Y-129039857D01*
X115577952Y-129087476D01*
X115625571Y-129135095D01*
X115673190Y-129230333D01*
X115673190Y-129611285D01*
X116149380Y-128087476D02*
X116149380Y-128658904D01*
X116149380Y-128373190D02*
X115149380Y-128373190D01*
X115292238Y-128468428D01*
X115387476Y-128563666D01*
X115435095Y-128658904D01*
X115149380Y-127754142D02*
X115149380Y-127135095D01*
X115530333Y-127468428D01*
X115530333Y-127325571D01*
X115577952Y-127230333D01*
X115625571Y-127182714D01*
X115720809Y-127135095D01*
X115958904Y-127135095D01*
X116054142Y-127182714D01*
X116101761Y-127230333D01*
X116149380Y-127325571D01*
X116149380Y-127611285D01*
X116101761Y-127706523D01*
X116054142Y-127754142D01*
X116149380Y-131960857D02*
X115673190Y-132294190D01*
X116149380Y-132532285D02*
X115149380Y-132532285D01*
X115149380Y-132151333D01*
X115197000Y-132056095D01*
X115244619Y-132008476D01*
X115339857Y-131960857D01*
X115482714Y-131960857D01*
X115577952Y-132008476D01*
X115625571Y-132056095D01*
X115673190Y-132151333D01*
X115673190Y-132532285D01*
X116149380Y-131008476D02*
X116149380Y-131579904D01*
X116149380Y-131294190D02*
X115149380Y-131294190D01*
X115292238Y-131389428D01*
X115387476Y-131484666D01*
X115435095Y-131579904D01*
X115244619Y-130627523D02*
X115197000Y-130579904D01*
X115149380Y-130484666D01*
X115149380Y-130246571D01*
X115197000Y-130151333D01*
X115244619Y-130103714D01*
X115339857Y-130056095D01*
X115435095Y-130056095D01*
X115577952Y-130103714D01*
X116149380Y-130675142D01*
X116149380Y-130056095D01*
X108323142Y-131135380D02*
X107989809Y-130659190D01*
X107751714Y-131135380D02*
X107751714Y-130135380D01*
X108132666Y-130135380D01*
X108227904Y-130183000D01*
X108275523Y-130230619D01*
X108323142Y-130325857D01*
X108323142Y-130468714D01*
X108275523Y-130563952D01*
X108227904Y-130611571D01*
X108132666Y-130659190D01*
X107751714Y-130659190D01*
X109275523Y-131135380D02*
X108704095Y-131135380D01*
X108989809Y-131135380D02*
X108989809Y-130135380D01*
X108894571Y-130278238D01*
X108799333Y-130373476D01*
X108704095Y-130421095D01*
X110227904Y-131135380D02*
X109656476Y-131135380D01*
X109942190Y-131135380D02*
X109942190Y-130135380D01*
X109846952Y-130278238D01*
X109751714Y-130373476D01*
X109656476Y-130421095D01*
X127452380Y-141104857D02*
X126976190Y-141438190D01*
X127452380Y-141676285D02*
X126452380Y-141676285D01*
X126452380Y-141295333D01*
X126500000Y-141200095D01*
X126547619Y-141152476D01*
X126642857Y-141104857D01*
X126785714Y-141104857D01*
X126880952Y-141152476D01*
X126928571Y-141200095D01*
X126976190Y-141295333D01*
X126976190Y-141676285D01*
X127452380Y-140152476D02*
X127452380Y-140723904D01*
X127452380Y-140438190D02*
X126452380Y-140438190D01*
X126595238Y-140533428D01*
X126690476Y-140628666D01*
X126738095Y-140723904D01*
X126452380Y-139533428D02*
X126452380Y-139438190D01*
X126500000Y-139342952D01*
X126547619Y-139295333D01*
X126642857Y-139247714D01*
X126833333Y-139200095D01*
X127071428Y-139200095D01*
X127261904Y-139247714D01*
X127357142Y-139295333D01*
X127404761Y-139342952D01*
X127452380Y-139438190D01*
X127452380Y-139533428D01*
X127404761Y-139628666D01*
X127357142Y-139676285D01*
X127261904Y-139723904D01*
X127071428Y-139771523D01*
X126833333Y-139771523D01*
X126642857Y-139723904D01*
X126547619Y-139676285D01*
X126500000Y-139628666D01*
X126452380Y-139533428D01*
X104973380Y-147105666D02*
X104497190Y-147439000D01*
X104973380Y-147677095D02*
X103973380Y-147677095D01*
X103973380Y-147296142D01*
X104021000Y-147200904D01*
X104068619Y-147153285D01*
X104163857Y-147105666D01*
X104306714Y-147105666D01*
X104401952Y-147153285D01*
X104449571Y-147200904D01*
X104497190Y-147296142D01*
X104497190Y-147677095D01*
X104973380Y-146629476D02*
X104973380Y-146439000D01*
X104925761Y-146343761D01*
X104878142Y-146296142D01*
X104735285Y-146200904D01*
X104544809Y-146153285D01*
X104163857Y-146153285D01*
X104068619Y-146200904D01*
X104021000Y-146248523D01*
X103973380Y-146343761D01*
X103973380Y-146534238D01*
X104021000Y-146629476D01*
X104068619Y-146677095D01*
X104163857Y-146724714D01*
X104401952Y-146724714D01*
X104497190Y-146677095D01*
X104544809Y-146629476D01*
X104592428Y-146534238D01*
X104592428Y-146343761D01*
X104544809Y-146248523D01*
X104497190Y-146200904D01*
X104401952Y-146153285D01*
X113101380Y-147232666D02*
X112625190Y-147566000D01*
X113101380Y-147804095D02*
X112101380Y-147804095D01*
X112101380Y-147423142D01*
X112149000Y-147327904D01*
X112196619Y-147280285D01*
X112291857Y-147232666D01*
X112434714Y-147232666D01*
X112529952Y-147280285D01*
X112577571Y-147327904D01*
X112625190Y-147423142D01*
X112625190Y-147804095D01*
X112529952Y-146661238D02*
X112482333Y-146756476D01*
X112434714Y-146804095D01*
X112339476Y-146851714D01*
X112291857Y-146851714D01*
X112196619Y-146804095D01*
X112149000Y-146756476D01*
X112101380Y-146661238D01*
X112101380Y-146470761D01*
X112149000Y-146375523D01*
X112196619Y-146327904D01*
X112291857Y-146280285D01*
X112339476Y-146280285D01*
X112434714Y-146327904D01*
X112482333Y-146375523D01*
X112529952Y-146470761D01*
X112529952Y-146661238D01*
X112577571Y-146756476D01*
X112625190Y-146804095D01*
X112720428Y-146851714D01*
X112910904Y-146851714D01*
X113006142Y-146804095D01*
X113053761Y-146756476D01*
X113101380Y-146661238D01*
X113101380Y-146470761D01*
X113053761Y-146375523D01*
X113006142Y-146327904D01*
X112910904Y-146280285D01*
X112720428Y-146280285D01*
X112625190Y-146327904D01*
X112577571Y-146375523D01*
X112529952Y-146470761D01*
X126817380Y-129452666D02*
X126341190Y-129786000D01*
X126817380Y-130024095D02*
X125817380Y-130024095D01*
X125817380Y-129643142D01*
X125865000Y-129547904D01*
X125912619Y-129500285D01*
X126007857Y-129452666D01*
X126150714Y-129452666D01*
X126245952Y-129500285D01*
X126293571Y-129547904D01*
X126341190Y-129643142D01*
X126341190Y-130024095D01*
X125817380Y-128595523D02*
X125817380Y-128786000D01*
X125865000Y-128881238D01*
X125912619Y-128928857D01*
X126055476Y-129024095D01*
X126245952Y-129071714D01*
X126626904Y-129071714D01*
X126722142Y-129024095D01*
X126769761Y-128976476D01*
X126817380Y-128881238D01*
X126817380Y-128690761D01*
X126769761Y-128595523D01*
X126722142Y-128547904D01*
X126626904Y-128500285D01*
X126388809Y-128500285D01*
X126293571Y-128547904D01*
X126245952Y-128595523D01*
X126198333Y-128690761D01*
X126198333Y-128881238D01*
X126245952Y-128976476D01*
X126293571Y-129024095D01*
X126388809Y-129071714D01*
X126817380Y-132246666D02*
X126341190Y-132580000D01*
X126817380Y-132818095D02*
X125817380Y-132818095D01*
X125817380Y-132437142D01*
X125865000Y-132341904D01*
X125912619Y-132294285D01*
X126007857Y-132246666D01*
X126150714Y-132246666D01*
X126245952Y-132294285D01*
X126293571Y-132341904D01*
X126341190Y-132437142D01*
X126341190Y-132818095D01*
X125817380Y-131913333D02*
X125817380Y-131246666D01*
X126817380Y-131675238D01*
X103371160Y-112806486D02*
X102894970Y-113139820D01*
X103371160Y-113377915D02*
X102371160Y-113377915D01*
X102371160Y-112996962D01*
X102418780Y-112901724D01*
X102466399Y-112854105D01*
X102561637Y-112806486D01*
X102704494Y-112806486D01*
X102799732Y-112854105D01*
X102847351Y-112901724D01*
X102894970Y-112996962D01*
X102894970Y-113377915D01*
X102371160Y-111901724D02*
X102371160Y-112377915D01*
X102847351Y-112425534D01*
X102799732Y-112377915D01*
X102752113Y-112282677D01*
X102752113Y-112044581D01*
X102799732Y-111949343D01*
X102847351Y-111901724D01*
X102942589Y-111854105D01*
X103180684Y-111854105D01*
X103275922Y-111901724D01*
X103323541Y-111949343D01*
X103371160Y-112044581D01*
X103371160Y-112282677D01*
X103323541Y-112377915D01*
X103275922Y-112425534D01*
X130627380Y-110783666D02*
X130151190Y-111117000D01*
X130627380Y-111355095D02*
X129627380Y-111355095D01*
X129627380Y-110974142D01*
X129675000Y-110878904D01*
X129722619Y-110831285D01*
X129817857Y-110783666D01*
X129960714Y-110783666D01*
X130055952Y-110831285D01*
X130103571Y-110878904D01*
X130151190Y-110974142D01*
X130151190Y-111355095D01*
X129960714Y-109926523D02*
X130627380Y-109926523D01*
X129579761Y-110164619D02*
X130294047Y-110402714D01*
X130294047Y-109783666D01*
X127452380Y-136256666D02*
X126976190Y-136590000D01*
X127452380Y-136828095D02*
X126452380Y-136828095D01*
X126452380Y-136447142D01*
X126500000Y-136351904D01*
X126547619Y-136304285D01*
X126642857Y-136256666D01*
X126785714Y-136256666D01*
X126880952Y-136304285D01*
X126928571Y-136351904D01*
X126976190Y-136447142D01*
X126976190Y-136828095D01*
X126452380Y-135923333D02*
X126452380Y-135304285D01*
X126833333Y-135637619D01*
X126833333Y-135494761D01*
X126880952Y-135399523D01*
X126928571Y-135351904D01*
X127023809Y-135304285D01*
X127261904Y-135304285D01*
X127357142Y-135351904D01*
X127404761Y-135399523D01*
X127452380Y-135494761D01*
X127452380Y-135780476D01*
X127404761Y-135875714D01*
X127357142Y-135923333D01*
X130627380Y-112815666D02*
X130151190Y-113149000D01*
X130627380Y-113387095D02*
X129627380Y-113387095D01*
X129627380Y-113006142D01*
X129675000Y-112910904D01*
X129722619Y-112863285D01*
X129817857Y-112815666D01*
X129960714Y-112815666D01*
X130055952Y-112863285D01*
X130103571Y-112910904D01*
X130151190Y-113006142D01*
X130151190Y-113387095D01*
X129722619Y-112434714D02*
X129675000Y-112387095D01*
X129627380Y-112291857D01*
X129627380Y-112053761D01*
X129675000Y-111958523D01*
X129722619Y-111910904D01*
X129817857Y-111863285D01*
X129913095Y-111863285D01*
X130055952Y-111910904D01*
X130627380Y-112482333D01*
X130627380Y-111863285D01*
X106513333Y-111196380D02*
X106180000Y-110720190D01*
X105941904Y-111196380D02*
X105941904Y-110196380D01*
X106322857Y-110196380D01*
X106418095Y-110244000D01*
X106465714Y-110291619D01*
X106513333Y-110386857D01*
X106513333Y-110529714D01*
X106465714Y-110624952D01*
X106418095Y-110672571D01*
X106322857Y-110720190D01*
X105941904Y-110720190D01*
X107465714Y-111196380D02*
X106894285Y-111196380D01*
X107180000Y-111196380D02*
X107180000Y-110196380D01*
X107084761Y-110339238D01*
X106989523Y-110434476D01*
X106894285Y-110482095D01*
X102790666Y-145502380D02*
X102790666Y-146216666D01*
X102743047Y-146359523D01*
X102647809Y-146454761D01*
X102504952Y-146502380D01*
X102409714Y-146502380D01*
X103695428Y-145502380D02*
X103504952Y-145502380D01*
X103409714Y-145550000D01*
X103362095Y-145597619D01*
X103266857Y-145740476D01*
X103219238Y-145930952D01*
X103219238Y-146311904D01*
X103266857Y-146407142D01*
X103314476Y-146454761D01*
X103409714Y-146502380D01*
X103600190Y-146502380D01*
X103695428Y-146454761D01*
X103743047Y-146407142D01*
X103790666Y-146311904D01*
X103790666Y-146073809D01*
X103743047Y-145978571D01*
X103695428Y-145930952D01*
X103600190Y-145883333D01*
X103409714Y-145883333D01*
X103314476Y-145930952D01*
X103266857Y-145978571D01*
X103219238Y-146073809D01*
X108621160Y-144223153D02*
X109335446Y-144223153D01*
X109478303Y-144270772D01*
X109573541Y-144366010D01*
X109621160Y-144508867D01*
X109621160Y-144604105D01*
X108621160Y-143270772D02*
X108621160Y-143746962D01*
X109097351Y-143794581D01*
X109049732Y-143746962D01*
X109002113Y-143651724D01*
X109002113Y-143413629D01*
X109049732Y-143318391D01*
X109097351Y-143270772D01*
X109192589Y-143223153D01*
X109430684Y-143223153D01*
X109525922Y-143270772D01*
X109573541Y-143318391D01*
X109621160Y-143413629D01*
X109621160Y-143651724D01*
X109573541Y-143746962D01*
X109525922Y-143794581D01*
X117649666Y-146010380D02*
X117649666Y-146724666D01*
X117602047Y-146867523D01*
X117506809Y-146962761D01*
X117363952Y-147010380D01*
X117268714Y-147010380D01*
X118554428Y-146343714D02*
X118554428Y-147010380D01*
X118316333Y-145962761D02*
X118078238Y-146677047D01*
X118697285Y-146677047D01*
X123531380Y-151336333D02*
X124245666Y-151336333D01*
X124388523Y-151383952D01*
X124483761Y-151479190D01*
X124531380Y-151622047D01*
X124531380Y-151717285D01*
X123531380Y-150955380D02*
X123531380Y-150336333D01*
X123912333Y-150669666D01*
X123912333Y-150526809D01*
X123959952Y-150431571D01*
X124007571Y-150383952D01*
X124102809Y-150336333D01*
X124340904Y-150336333D01*
X124436142Y-150383952D01*
X124483761Y-150431571D01*
X124531380Y-150526809D01*
X124531380Y-150812523D01*
X124483761Y-150907761D01*
X124436142Y-150955380D01*
X126452380Y-115522333D02*
X127166666Y-115522333D01*
X127309523Y-115569952D01*
X127404761Y-115665190D01*
X127452380Y-115808047D01*
X127452380Y-115903285D01*
X127452380Y-114522333D02*
X127452380Y-115093761D01*
X127452380Y-114808047D02*
X126452380Y-114808047D01*
X126595238Y-114903285D01*
X126690476Y-114998523D01*
X126738095Y-115093761D01*
X126452380Y-123142333D02*
X127166666Y-123142333D01*
X127309523Y-123189952D01*
X127404761Y-123285190D01*
X127452380Y-123428047D01*
X127452380Y-123523285D01*
X126547619Y-122713761D02*
X126500000Y-122666142D01*
X126452380Y-122570904D01*
X126452380Y-122332809D01*
X126500000Y-122237571D01*
X126547619Y-122189952D01*
X126642857Y-122142333D01*
X126738095Y-122142333D01*
X126880952Y-122189952D01*
X127452380Y-122761380D01*
X127452380Y-122142333D01*
X104921160Y-151727915D02*
X103921160Y-151727915D01*
X103921160Y-151489820D01*
X103968780Y-151346962D01*
X104064018Y-151251724D01*
X104159256Y-151204105D01*
X104349732Y-151156486D01*
X104492589Y-151156486D01*
X104683065Y-151204105D01*
X104778303Y-151251724D01*
X104873541Y-151346962D01*
X104921160Y-151489820D01*
X104921160Y-151727915D01*
X103921160Y-150251724D02*
X103921160Y-150727915D01*
X104397351Y-150775534D01*
X104349732Y-150727915D01*
X104302113Y-150632677D01*
X104302113Y-150394581D01*
X104349732Y-150299343D01*
X104397351Y-150251724D01*
X104492589Y-150204105D01*
X104730684Y-150204105D01*
X104825922Y-150251724D01*
X104873541Y-150299343D01*
X104921160Y-150394581D01*
X104921160Y-150632677D01*
X104873541Y-150727915D01*
X104825922Y-150775534D01*
X104273541Y-149694581D02*
X104416399Y-149742200D01*
X104654494Y-149742200D01*
X104749732Y-149694581D01*
X104797351Y-149646962D01*
X104844970Y-149551724D01*
X104844970Y-149456486D01*
X104797351Y-149361248D01*
X104749732Y-149313629D01*
X104654494Y-149266010D01*
X104464018Y-149218391D01*
X104368780Y-149170772D01*
X104321160Y-149123153D01*
X104273541Y-149027915D01*
X104273541Y-148932677D01*
X104321160Y-148837439D01*
X104368780Y-148789820D01*
X104464018Y-148742200D01*
X104702113Y-148742200D01*
X104844970Y-148789820D01*
X105130684Y-148742200D02*
X105702113Y-148742200D01*
X105416399Y-149742200D02*
X105416399Y-148742200D01*
X106035446Y-149742200D02*
X106035446Y-148742200D01*
X106273541Y-148742200D01*
X106416399Y-148789820D01*
X106511637Y-148885058D01*
X106559256Y-148980296D01*
X106606875Y-149170772D01*
X106606875Y-149313629D01*
X106559256Y-149504105D01*
X106511637Y-149599343D01*
X106416399Y-149694581D01*
X106273541Y-149742200D01*
X106035446Y-149742200D01*
X107368780Y-149218391D02*
X107511637Y-149266010D01*
X107559256Y-149313629D01*
X107606875Y-149408867D01*
X107606875Y-149551724D01*
X107559256Y-149646962D01*
X107511637Y-149694581D01*
X107416399Y-149742200D01*
X107035446Y-149742200D01*
X107035446Y-148742200D01*
X107368780Y-148742200D01*
X107464018Y-148789820D01*
X107511637Y-148837439D01*
X107559256Y-148932677D01*
X107559256Y-149027915D01*
X107511637Y-149123153D01*
X107464018Y-149170772D01*
X107368780Y-149218391D01*
X107035446Y-149218391D01*
X108225922Y-149266010D02*
X108225922Y-149742200D01*
X107892589Y-148742200D02*
X108225922Y-149266010D01*
X108559256Y-148742200D01*
X113421160Y-151727915D02*
X112421160Y-151727915D01*
X112421160Y-151489820D01*
X112468780Y-151346962D01*
X112564018Y-151251724D01*
X112659256Y-151204105D01*
X112849732Y-151156486D01*
X112992589Y-151156486D01*
X113183065Y-151204105D01*
X113278303Y-151251724D01*
X113373541Y-151346962D01*
X113421160Y-151489820D01*
X113421160Y-151727915D01*
X112754494Y-150299343D02*
X113421160Y-150299343D01*
X112373541Y-150537439D02*
X113087827Y-150775534D01*
X113087827Y-150156486D01*
X109854494Y-149646962D02*
X109806875Y-149694581D01*
X109664018Y-149742200D01*
X109568780Y-149742200D01*
X109425922Y-149694581D01*
X109330684Y-149599343D01*
X109283065Y-149504105D01*
X109235446Y-149313629D01*
X109235446Y-149170772D01*
X109283065Y-148980296D01*
X109330684Y-148885058D01*
X109425922Y-148789820D01*
X109568780Y-148742200D01*
X109664018Y-148742200D01*
X109806875Y-148789820D01*
X109854494Y-148837439D01*
X110283065Y-149742200D02*
X110283065Y-148742200D01*
X110283065Y-149218391D02*
X110854494Y-149218391D01*
X110854494Y-149742200D02*
X110854494Y-148742200D01*
X111902113Y-149742200D02*
X111568780Y-149266010D01*
X111330684Y-149742200D02*
X111330684Y-148742200D01*
X111711637Y-148742200D01*
X111806875Y-148789820D01*
X111854494Y-148837439D01*
X111902113Y-148932677D01*
X111902113Y-149075534D01*
X111854494Y-149170772D01*
X111806875Y-149218391D01*
X111711637Y-149266010D01*
X111330684Y-149266010D01*
X112854494Y-148789820D02*
X112759256Y-148742200D01*
X112616399Y-148742200D01*
X112473541Y-148789820D01*
X112378303Y-148885058D01*
X112330684Y-148980296D01*
X112283065Y-149170772D01*
X112283065Y-149313629D01*
X112330684Y-149504105D01*
X112378303Y-149599343D01*
X112473541Y-149694581D01*
X112616399Y-149742200D01*
X112711637Y-149742200D01*
X112854494Y-149694581D01*
X112902113Y-149646962D01*
X112902113Y-149313629D01*
X112711637Y-149313629D01*
X107421160Y-114707915D02*
X106421160Y-114707915D01*
X106421160Y-114469820D01*
X106468780Y-114326962D01*
X106564018Y-114231724D01*
X106659256Y-114184105D01*
X106849732Y-114136486D01*
X106992589Y-114136486D01*
X107183065Y-114184105D01*
X107278303Y-114231724D01*
X107373541Y-114326962D01*
X107421160Y-114469820D01*
X107421160Y-114707915D01*
X106421160Y-113803153D02*
X106421160Y-113184105D01*
X106802113Y-113517439D01*
X106802113Y-113374581D01*
X106849732Y-113279343D01*
X106897351Y-113231724D01*
X106992589Y-113184105D01*
X107230684Y-113184105D01*
X107325922Y-113231724D01*
X107373541Y-113279343D01*
X107421160Y-113374581D01*
X107421160Y-113660296D01*
X107373541Y-113755534D01*
X107325922Y-113803153D01*
X117879904Y-131262380D02*
X117879904Y-130262380D01*
X118118000Y-130262380D01*
X118260857Y-130310000D01*
X118356095Y-130405238D01*
X118403714Y-130500476D01*
X118451333Y-130690952D01*
X118451333Y-130833809D01*
X118403714Y-131024285D01*
X118356095Y-131119523D01*
X118260857Y-131214761D01*
X118118000Y-131262380D01*
X117879904Y-131262380D01*
X118832285Y-130357619D02*
X118879904Y-130310000D01*
X118975142Y-130262380D01*
X119213238Y-130262380D01*
X119308476Y-130310000D01*
X119356095Y-130357619D01*
X119403714Y-130452857D01*
X119403714Y-130548095D01*
X119356095Y-130690952D01*
X118784666Y-131262380D01*
X119403714Y-131262380D01*
X117941904Y-127833380D02*
X117941904Y-126833380D01*
X118180000Y-126833380D01*
X118322857Y-126881000D01*
X118418095Y-126976238D01*
X118465714Y-127071476D01*
X118513333Y-127261952D01*
X118513333Y-127404809D01*
X118465714Y-127595285D01*
X118418095Y-127690523D01*
X118322857Y-127785761D01*
X118180000Y-127833380D01*
X117941904Y-127833380D01*
X119465714Y-127833380D02*
X118894285Y-127833380D01*
X119180000Y-127833380D02*
X119180000Y-126833380D01*
X119084761Y-126976238D01*
X118989523Y-127071476D01*
X118894285Y-127119095D01*
X107462142Y-124866666D02*
X107509761Y-124914285D01*
X107557380Y-125057142D01*
X107557380Y-125152380D01*
X107509761Y-125295238D01*
X107414523Y-125390476D01*
X107319285Y-125438095D01*
X107128809Y-125485714D01*
X106985952Y-125485714D01*
X106795476Y-125438095D01*
X106700238Y-125390476D01*
X106605000Y-125295238D01*
X106557380Y-125152380D01*
X106557380Y-125057142D01*
X106605000Y-124914285D01*
X106652619Y-124866666D01*
X106557380Y-124533333D02*
X106557380Y-123866666D01*
X107557380Y-124295238D01*
X107910333Y-127865142D02*
X107862714Y-127912761D01*
X107719857Y-127960380D01*
X107624619Y-127960380D01*
X107481761Y-127912761D01*
X107386523Y-127817523D01*
X107338904Y-127722285D01*
X107291285Y-127531809D01*
X107291285Y-127388952D01*
X107338904Y-127198476D01*
X107386523Y-127103238D01*
X107481761Y-127008000D01*
X107624619Y-126960380D01*
X107719857Y-126960380D01*
X107862714Y-127008000D01*
X107910333Y-127055619D01*
X108767476Y-126960380D02*
X108577000Y-126960380D01*
X108481761Y-127008000D01*
X108434142Y-127055619D01*
X108338904Y-127198476D01*
X108291285Y-127388952D01*
X108291285Y-127769904D01*
X108338904Y-127865142D01*
X108386523Y-127912761D01*
X108481761Y-127960380D01*
X108672238Y-127960380D01*
X108767476Y-127912761D01*
X108815095Y-127865142D01*
X108862714Y-127769904D01*
X108862714Y-127531809D01*
X108815095Y-127436571D01*
X108767476Y-127388952D01*
X108672238Y-127341333D01*
X108481761Y-127341333D01*
X108386523Y-127388952D01*
X108338904Y-127436571D01*
X108291285Y-127531809D01*
X108799333Y-134215142D02*
X108751714Y-134262761D01*
X108608857Y-134310380D01*
X108513619Y-134310380D01*
X108370761Y-134262761D01*
X108275523Y-134167523D01*
X108227904Y-134072285D01*
X108180285Y-133881809D01*
X108180285Y-133738952D01*
X108227904Y-133548476D01*
X108275523Y-133453238D01*
X108370761Y-133358000D01*
X108513619Y-133310380D01*
X108608857Y-133310380D01*
X108751714Y-133358000D01*
X108799333Y-133405619D01*
X109704095Y-133310380D02*
X109227904Y-133310380D01*
X109180285Y-133786571D01*
X109227904Y-133738952D01*
X109323142Y-133691333D01*
X109561238Y-133691333D01*
X109656476Y-133738952D01*
X109704095Y-133786571D01*
X109751714Y-133881809D01*
X109751714Y-134119904D01*
X109704095Y-134215142D01*
X109656476Y-134262761D01*
X109561238Y-134310380D01*
X109323142Y-134310380D01*
X109227904Y-134262761D01*
X109180285Y-134215142D01*
X112673333Y-138917142D02*
X112625714Y-138964761D01*
X112482857Y-139012380D01*
X112387619Y-139012380D01*
X112244761Y-138964761D01*
X112149523Y-138869523D01*
X112101904Y-138774285D01*
X112054285Y-138583809D01*
X112054285Y-138440952D01*
X112101904Y-138250476D01*
X112149523Y-138155238D01*
X112244761Y-138060000D01*
X112387619Y-138012380D01*
X112482857Y-138012380D01*
X112625714Y-138060000D01*
X112673333Y-138107619D01*
X113530476Y-138345714D02*
X113530476Y-139012380D01*
X113292380Y-137964761D02*
X113054285Y-138679047D01*
X113673333Y-138679047D01*
X112787133Y-144832342D02*
X112739514Y-144879961D01*
X112596657Y-144927580D01*
X112501419Y-144927580D01*
X112358561Y-144879961D01*
X112263323Y-144784723D01*
X112215704Y-144689485D01*
X112168085Y-144499009D01*
X112168085Y-144356152D01*
X112215704Y-144165676D01*
X112263323Y-144070438D01*
X112358561Y-143975200D01*
X112501419Y-143927580D01*
X112596657Y-143927580D01*
X112739514Y-143975200D01*
X112787133Y-144022819D01*
X113120466Y-143927580D02*
X113739514Y-143927580D01*
X113406180Y-144308533D01*
X113549038Y-144308533D01*
X113644276Y-144356152D01*
X113691895Y-144403771D01*
X113739514Y-144499009D01*
X113739514Y-144737104D01*
X113691895Y-144832342D01*
X113644276Y-144879961D01*
X113549038Y-144927580D01*
X113263323Y-144927580D01*
X113168085Y-144879961D01*
X113120466Y-144832342D01*
X107445922Y-122766486D02*
X107493541Y-122814105D01*
X107541160Y-122956962D01*
X107541160Y-123052200D01*
X107493541Y-123195058D01*
X107398303Y-123290296D01*
X107303065Y-123337915D01*
X107112589Y-123385534D01*
X106969732Y-123385534D01*
X106779256Y-123337915D01*
X106684018Y-123290296D01*
X106588780Y-123195058D01*
X106541160Y-123052200D01*
X106541160Y-122956962D01*
X106588780Y-122814105D01*
X106636399Y-122766486D01*
X106636399Y-122385534D02*
X106588780Y-122337915D01*
X106541160Y-122242677D01*
X106541160Y-122004581D01*
X106588780Y-121909343D01*
X106636399Y-121861724D01*
X106731637Y-121814105D01*
X106826875Y-121814105D01*
X106969732Y-121861724D01*
X107541160Y-122433153D01*
X107541160Y-121814105D01*
X107300922Y-116606486D02*
X107348541Y-116654105D01*
X107396160Y-116796962D01*
X107396160Y-116892200D01*
X107348541Y-117035058D01*
X107253303Y-117130296D01*
X107158065Y-117177915D01*
X106967589Y-117225534D01*
X106824732Y-117225534D01*
X106634256Y-117177915D01*
X106539018Y-117130296D01*
X106443780Y-117035058D01*
X106396160Y-116892200D01*
X106396160Y-116796962D01*
X106443780Y-116654105D01*
X106491399Y-116606486D01*
X107396160Y-115654105D02*
X107396160Y-116225534D01*
X107396160Y-115939820D02*
X106396160Y-115939820D01*
X106539018Y-116035058D01*
X106634256Y-116130296D01*
X106681875Y-116225534D01*
M02*
