G04 #@! TF.GenerationSoftware,KiCad,Pcbnew,(5.1.12)-1*
G04 #@! TF.CreationDate,2021-12-21T15:59:21+01:00*
G04 #@! TF.ProjectId,iot-postbox,696f742d-706f-4737-9462-6f782e6b6963,v0.3*
G04 #@! TF.SameCoordinates,Original*
G04 #@! TF.FileFunction,Copper,L2,Bot*
G04 #@! TF.FilePolarity,Positive*
%FSLAX46Y46*%
G04 Gerber Fmt 4.6, Leading zero omitted, Abs format (unit mm)*
G04 Created by KiCad (PCBNEW (5.1.12)-1) date 2021-12-21 15:59:21*
%MOMM*%
%LPD*%
G01*
G04 APERTURE LIST*
G04 #@! TA.AperFunction,ComponentPad*
%ADD10O,1.700000X1.700000*%
G04 #@! TD*
G04 #@! TA.AperFunction,ComponentPad*
%ADD11R,1.700000X1.700000*%
G04 #@! TD*
G04 #@! TA.AperFunction,ComponentPad*
%ADD12O,0.890000X1.550000*%
G04 #@! TD*
G04 #@! TA.AperFunction,ComponentPad*
%ADD13O,1.250000X0.950000*%
G04 #@! TD*
G04 #@! TA.AperFunction,ViaPad*
%ADD14C,0.800000*%
G04 #@! TD*
G04 #@! TA.AperFunction,Conductor*
%ADD15C,0.250000*%
G04 #@! TD*
G04 #@! TA.AperFunction,Conductor*
%ADD16C,0.650000*%
G04 #@! TD*
G04 APERTURE END LIST*
D10*
X101669000Y-120720000D03*
X101669000Y-118180000D03*
D11*
X101669000Y-115640000D03*
D10*
X129032000Y-146418000D03*
X129032000Y-143878000D03*
X129032000Y-141338000D03*
X129032000Y-138798000D03*
X129032000Y-136258000D03*
X129032000Y-133718000D03*
D11*
X129032000Y-131178000D03*
X102180000Y-147820000D03*
D10*
X102180000Y-150360000D03*
D12*
X121510000Y-151020000D03*
X114510000Y-151020000D03*
D13*
X120510000Y-148320000D03*
X115510000Y-148320000D03*
D10*
X126120000Y-150260000D03*
D11*
X128660000Y-150260000D03*
X129030000Y-118420000D03*
D10*
X129030000Y-115880000D03*
D11*
X129030000Y-123520000D03*
D10*
X129030000Y-126060000D03*
D14*
X115672000Y-133172000D03*
X122785000Y-127380000D03*
X111039000Y-119763000D03*
X121464000Y-130121000D03*
X111020000Y-121922000D03*
X106705000Y-112573000D03*
X130205000Y-127532000D03*
X116713000Y-127483000D03*
X101553000Y-114002700D03*
X114369000Y-144490000D03*
X119278000Y-146952000D03*
X110342000Y-126134000D03*
X105871000Y-122300000D03*
X102796000Y-121747800D03*
X111015000Y-123496000D03*
X123546000Y-140411000D03*
X109068000Y-138125000D03*
X110947000Y-133756000D03*
X118127000Y-137451000D03*
X111658000Y-144704000D03*
X114997000Y-143339000D03*
X119939000Y-134620000D03*
X118923000Y-134010000D03*
X110617000Y-142951000D03*
X114989000Y-141904000D03*
X103848780Y-130899820D03*
X106958780Y-130899820D03*
D15*
X129024000Y-143870000D02*
X129032000Y-143878000D01*
X129024000Y-143870000D02*
X129035000Y-143870000D01*
X115672000Y-133172000D02*
X119659000Y-133172000D01*
X119659000Y-133172000D02*
X119659000Y-133198000D01*
X119659000Y-133198000D02*
X126136000Y-139675000D01*
X126136000Y-139675000D02*
X126136000Y-142469000D01*
X126136000Y-142469000D02*
X127538000Y-143870000D01*
X127538000Y-143870000D02*
X129024000Y-143870000D01*
X126876000Y-118680000D02*
X127591000Y-117964000D01*
X127591000Y-117964000D02*
X127591000Y-116376000D01*
X127591000Y-116376000D02*
X128087000Y-115880000D01*
X128087000Y-115880000D02*
X129030000Y-115880000D01*
X126876000Y-118680000D02*
X130205000Y-122009000D01*
X130205000Y-122009000D02*
X130205000Y-124563000D01*
X130205000Y-124563000D02*
X130073000Y-124695000D01*
X130073000Y-124695000D02*
X125470000Y-124695000D01*
X125470000Y-124695000D02*
X122785000Y-127380000D01*
X126876000Y-118680000D02*
X112122000Y-118680000D01*
X112122000Y-118680000D02*
X111039000Y-119763000D01*
X129030000Y-126060000D02*
X127855000Y-126060000D01*
X127855000Y-126060000D02*
X123793000Y-130121000D01*
X123793000Y-130121000D02*
X121464000Y-130121000D01*
X119658780Y-128315780D02*
X121464000Y-130121000D01*
X119658780Y-128159820D02*
X119658780Y-128315780D01*
X118358780Y-126859820D02*
X119658780Y-128159820D01*
X118358780Y-126619820D02*
X118358780Y-126859820D01*
X111138780Y-125269820D02*
X117008780Y-125269820D01*
X110290000Y-124421040D02*
X111138780Y-125269820D01*
X110290000Y-122652000D02*
X110290000Y-124421040D01*
X117008780Y-125269820D02*
X118358780Y-126619820D01*
X111020000Y-121922000D02*
X110290000Y-122652000D01*
X129024000Y-141330000D02*
X129032000Y-141338000D01*
X129024000Y-141330000D02*
X127436000Y-141330000D01*
X127436000Y-141330000D02*
X127051000Y-140945000D01*
X127051000Y-140945000D02*
X127051000Y-139268000D01*
X127051000Y-139268000D02*
X118635000Y-130852000D01*
X118635000Y-130852000D02*
X117382000Y-130852000D01*
X129035000Y-141330000D02*
X129024000Y-141330000D01*
X117382000Y-130852000D02*
X117162000Y-130852000D01*
X117162000Y-130852000D02*
X113328000Y-130852000D01*
X113328000Y-130852000D02*
X105132000Y-122657000D01*
X105132000Y-122657000D02*
X105132000Y-115052000D01*
X105132000Y-115052000D02*
X106710000Y-113474000D01*
X106710000Y-113474000D02*
X106710000Y-112578000D01*
X106710000Y-112578000D02*
X106705000Y-112573000D01*
X117382000Y-130852000D02*
X117162000Y-130852000D01*
X129035000Y-133122500D02*
X129032000Y-133125500D01*
X129032000Y-133125500D02*
X129032000Y-133718000D01*
X129035000Y-133122500D02*
X129035000Y-132535000D01*
X129035000Y-132535000D02*
X129843000Y-132535000D01*
X129843000Y-132535000D02*
X130210000Y-132167000D01*
X130210000Y-132167000D02*
X130210000Y-127537000D01*
X130210000Y-127537000D02*
X130205000Y-127532000D01*
X129035000Y-133710000D02*
X129035000Y-133122500D01*
X129024000Y-136250000D02*
X129032000Y-136258000D01*
X129024000Y-136250000D02*
X125294000Y-136250000D01*
X125294000Y-136250000D02*
X118145000Y-129100000D01*
X118145000Y-129100000D02*
X118145000Y-128914000D01*
X118145000Y-128914000D02*
X116713000Y-127483000D01*
X129035000Y-136250000D02*
X129024000Y-136250000D01*
D16*
X129032000Y-131170000D02*
X121143000Y-131170000D01*
X121143000Y-131170000D02*
X118795000Y-128821000D01*
X118795000Y-128821000D02*
X118795000Y-128447000D01*
X118795000Y-128447000D02*
X117754000Y-127406000D01*
X117754000Y-127406000D02*
X117754000Y-127155000D01*
X117754000Y-127155000D02*
X116733000Y-126134000D01*
X116733000Y-126134000D02*
X110342000Y-126134000D01*
X129035000Y-131170000D02*
X129032000Y-131170000D01*
X129032000Y-131178000D02*
X129032000Y-131170000D01*
X101669000Y-122095300D02*
X102246800Y-122673100D01*
X102246800Y-122673100D02*
X103182300Y-122673100D01*
X103182300Y-122673100D02*
X103938100Y-121917300D01*
X103938100Y-121917300D02*
X103938100Y-115455700D01*
X103938100Y-115455700D02*
X102485100Y-114002700D01*
X102485100Y-114002700D02*
X101553000Y-114002700D01*
X101669000Y-120720000D02*
X101669000Y-122095300D01*
X114369000Y-144490000D02*
X114669000Y-144790000D01*
X114669000Y-144790000D02*
X114669000Y-145790000D01*
X114669000Y-145790000D02*
X115269000Y-146390000D01*
X115269000Y-146390000D02*
X118717000Y-146390000D01*
X118717000Y-146390000D02*
X119278000Y-146952000D01*
X110342000Y-126134000D02*
X109706000Y-126134000D01*
X109706000Y-126134000D02*
X105871000Y-122300000D01*
X128660000Y-150260000D02*
X127242000Y-151678000D01*
X127242000Y-151678000D02*
X125573000Y-151678000D01*
X125573000Y-151678000D02*
X123515000Y-149620000D01*
X123515000Y-149620000D02*
X119851000Y-149620000D01*
X119851000Y-149620000D02*
X119278000Y-149047000D01*
X119278000Y-149047000D02*
X119278000Y-146952000D01*
X102796000Y-121747800D02*
X103047900Y-121495900D01*
X103047900Y-121495900D02*
X103047900Y-117018900D01*
X103047900Y-117018900D02*
X101669000Y-115640000D01*
X111015000Y-123496000D02*
X127631000Y-123496000D01*
X127631000Y-123496000D02*
X127655000Y-123520000D01*
X127655000Y-123520000D02*
X129030000Y-123520000D01*
X127673000Y-146418000D02*
X127432000Y-146418000D01*
X127432000Y-146418000D02*
X123546000Y-142532000D01*
X123546000Y-142532000D02*
X123546000Y-140411000D01*
X129032000Y-146418000D02*
X127673000Y-146418000D01*
X126120000Y-150260000D02*
X126120000Y-147971000D01*
X126120000Y-147971000D02*
X127673000Y-146418000D01*
X110947000Y-134315000D02*
X111176000Y-134544000D01*
X110947000Y-133756000D02*
X110947000Y-134315000D01*
X109068000Y-138125000D02*
X108000000Y-138125000D01*
X108000000Y-138125000D02*
X102180000Y-143945000D01*
X102180000Y-143945000D02*
X102180000Y-147820000D01*
X111938000Y-136779000D02*
X111938000Y-136809000D01*
X111938000Y-136809000D02*
X110622000Y-138125000D01*
X110622000Y-138125000D02*
X109068000Y-138125000D01*
X111938000Y-136779000D02*
X113640000Y-136779000D01*
X113640000Y-136779000D02*
X114312000Y-137451000D01*
X114312000Y-137451000D02*
X118127000Y-137451000D01*
X110947000Y-134315000D02*
X110947000Y-134569000D01*
X110947000Y-134569000D02*
X111404000Y-135026000D01*
X111404000Y-135026000D02*
X111404000Y-136246000D01*
X111404000Y-136246000D02*
X111938000Y-136779000D01*
D15*
X119939000Y-134620000D02*
X119939000Y-138398000D01*
X119939000Y-138398000D02*
X119638000Y-138698000D01*
X119638000Y-138698000D02*
X114997000Y-143339000D01*
X114997000Y-143339000D02*
X113023000Y-143339000D01*
X113023000Y-143339000D02*
X111658000Y-144704000D01*
X114989000Y-141904000D02*
X118884000Y-138008000D01*
X118884000Y-138008000D02*
X118884000Y-134049000D01*
X118884000Y-134049000D02*
X118923000Y-134010000D01*
X114989000Y-141904000D02*
X111664000Y-141904000D01*
X111664000Y-141904000D02*
X110617000Y-142951000D01*
X103848780Y-130899820D02*
X106958780Y-130899820D01*
M02*
