G04 #@! TF.GenerationSoftware,KiCad,Pcbnew,(5.1.12)-1*
G04 #@! TF.CreationDate,2021-12-21T15:59:21+01:00*
G04 #@! TF.ProjectId,iot-postbox,696f742d-706f-4737-9462-6f782e6b6963,v0.3*
G04 #@! TF.SameCoordinates,Original*
G04 #@! TF.FileFunction,Legend,Bot*
G04 #@! TF.FilePolarity,Positive*
%FSLAX46Y46*%
G04 Gerber Fmt 4.6, Leading zero omitted, Abs format (unit mm)*
G04 Created by KiCad (PCBNEW (5.1.12)-1) date 2021-12-21 15:59:21*
%MOMM*%
%LPD*%
G01*
G04 APERTURE LIST*
%ADD10C,0.150000*%
%ADD11C,0.200000*%
%ADD12C,0.100000*%
%ADD13C,0.500000*%
%ADD14C,0.120000*%
G04 APERTURE END LIST*
D10*
X105261756Y-120309820D02*
X105337946Y-120271724D01*
X105452232Y-120271724D01*
X105566518Y-120309820D01*
X105642708Y-120386010D01*
X105680803Y-120462200D01*
X105718899Y-120614581D01*
X105718899Y-120728867D01*
X105680803Y-120881248D01*
X105642708Y-120957439D01*
X105566518Y-121033629D01*
X105452232Y-121071724D01*
X105376041Y-121071724D01*
X105261756Y-121033629D01*
X105223660Y-120995534D01*
X105223660Y-120728867D01*
X105376041Y-120728867D01*
X104880803Y-121071724D02*
X104880803Y-120271724D01*
X104423660Y-121071724D01*
X104423660Y-120271724D01*
X104042708Y-121071724D02*
X104042708Y-120271724D01*
X103852232Y-120271724D01*
X103737946Y-120309820D01*
X103661756Y-120386010D01*
X103623660Y-120462200D01*
X103585565Y-120614581D01*
X103585565Y-120728867D01*
X103623660Y-120881248D01*
X103661756Y-120957439D01*
X103737946Y-121033629D01*
X103852232Y-121071724D01*
X104042708Y-121071724D01*
X107171756Y-117839820D02*
X107247946Y-117801724D01*
X107362232Y-117801724D01*
X107476518Y-117839820D01*
X107552708Y-117916010D01*
X107590803Y-117992200D01*
X107628899Y-118144581D01*
X107628899Y-118258867D01*
X107590803Y-118411248D01*
X107552708Y-118487439D01*
X107476518Y-118563629D01*
X107362232Y-118601724D01*
X107286041Y-118601724D01*
X107171756Y-118563629D01*
X107133660Y-118525534D01*
X107133660Y-118258867D01*
X107286041Y-118258867D01*
X106790803Y-118601724D02*
X106790803Y-117801724D01*
X106486041Y-117801724D01*
X106409851Y-117839820D01*
X106371756Y-117877915D01*
X106333660Y-117954105D01*
X106333660Y-118068391D01*
X106371756Y-118144581D01*
X106409851Y-118182677D01*
X106486041Y-118220772D01*
X106790803Y-118220772D01*
X105990803Y-118601724D02*
X105990803Y-117801724D01*
X105457470Y-117801724D02*
X105305089Y-117801724D01*
X105228899Y-117839820D01*
X105152708Y-117916010D01*
X105114613Y-118068391D01*
X105114613Y-118335058D01*
X105152708Y-118487439D01*
X105228899Y-118563629D01*
X105305089Y-118601724D01*
X105457470Y-118601724D01*
X105533660Y-118563629D01*
X105609851Y-118487439D01*
X105647946Y-118335058D01*
X105647946Y-118068391D01*
X105609851Y-117916010D01*
X105533660Y-117839820D01*
X105457470Y-117801724D01*
X104352708Y-118601724D02*
X104809851Y-118601724D01*
X104581280Y-118601724D02*
X104581280Y-117801724D01*
X104657470Y-117916010D01*
X104733660Y-117992200D01*
X104809851Y-118030296D01*
X103628899Y-117801724D02*
X104009851Y-117801724D01*
X104047946Y-118182677D01*
X104009851Y-118144581D01*
X103933660Y-118106486D01*
X103743184Y-118106486D01*
X103666994Y-118144581D01*
X103628899Y-118182677D01*
X103590803Y-118258867D01*
X103590803Y-118449343D01*
X103628899Y-118525534D01*
X103666994Y-118563629D01*
X103743184Y-118601724D01*
X103933660Y-118601724D01*
X104009851Y-118563629D01*
X104047946Y-118525534D01*
X105635089Y-115251724D02*
X105368422Y-116051724D01*
X105101756Y-115251724D01*
X104377946Y-115975534D02*
X104416041Y-116013629D01*
X104530327Y-116051724D01*
X104606518Y-116051724D01*
X104720803Y-116013629D01*
X104796994Y-115937439D01*
X104835089Y-115861248D01*
X104873184Y-115708867D01*
X104873184Y-115594581D01*
X104835089Y-115442200D01*
X104796994Y-115366010D01*
X104720803Y-115289820D01*
X104606518Y-115251724D01*
X104530327Y-115251724D01*
X104416041Y-115289820D01*
X104377946Y-115327915D01*
X103577946Y-115975534D02*
X103616041Y-116013629D01*
X103730327Y-116051724D01*
X103806518Y-116051724D01*
X103920803Y-116013629D01*
X103996994Y-115937439D01*
X104035089Y-115861248D01*
X104073184Y-115708867D01*
X104073184Y-115594581D01*
X104035089Y-115442200D01*
X103996994Y-115366010D01*
X103920803Y-115289820D01*
X103806518Y-115251724D01*
X103730327Y-115251724D01*
X103616041Y-115289820D01*
X103577946Y-115327915D01*
X102755491Y-114271724D02*
X103136443Y-114271724D01*
X103036443Y-113471724D01*
X102436443Y-113852677D02*
X102169777Y-113852677D01*
X102107872Y-114271724D02*
X102488824Y-114271724D01*
X102388824Y-113471724D01*
X102007872Y-113471724D01*
X101765015Y-114271724D02*
X101665015Y-113471724D01*
X101474538Y-113471724D01*
X101365015Y-113509820D01*
X101298348Y-113586010D01*
X101269777Y-113662200D01*
X101250729Y-113814581D01*
X101265015Y-113928867D01*
X101322157Y-114081248D01*
X101369777Y-114157439D01*
X101455491Y-114233629D01*
X101574538Y-114271724D01*
X101765015Y-114271724D01*
X112842548Y-138761386D02*
X112194929Y-138761386D01*
X112118739Y-138799481D01*
X112080643Y-138837577D01*
X112042548Y-138913767D01*
X112042548Y-139028053D01*
X112080643Y-139104243D01*
X112347310Y-138761386D02*
X112309215Y-138837577D01*
X112309215Y-138989958D01*
X112347310Y-139066148D01*
X112385405Y-139104243D01*
X112461596Y-139142339D01*
X112690167Y-139142339D01*
X112766358Y-139104243D01*
X112804453Y-139066148D01*
X112842548Y-138989958D01*
X112842548Y-138837577D01*
X112804453Y-138761386D01*
X112309215Y-138380434D02*
X112842548Y-138380434D01*
X113109215Y-138380434D02*
X113071120Y-138418529D01*
X113033024Y-138380434D01*
X113071120Y-138342339D01*
X113109215Y-138380434D01*
X113033024Y-138380434D01*
X112842548Y-138113767D02*
X112842548Y-137809005D01*
X113109215Y-137999481D02*
X112423500Y-137999481D01*
X112347310Y-137961386D01*
X112309215Y-137885196D01*
X112309215Y-137809005D01*
X112309215Y-137542339D02*
X113109215Y-137542339D01*
X112309215Y-137199481D02*
X112728262Y-137199481D01*
X112804453Y-137237577D01*
X112842548Y-137313767D01*
X112842548Y-137428053D01*
X112804453Y-137504243D01*
X112766358Y-137542339D01*
X112842548Y-136475672D02*
X112309215Y-136475672D01*
X112842548Y-136818529D02*
X112423500Y-136818529D01*
X112347310Y-136780434D01*
X112309215Y-136704243D01*
X112309215Y-136589958D01*
X112347310Y-136513767D01*
X112385405Y-136475672D01*
X112309215Y-136094720D02*
X113109215Y-136094720D01*
X112804453Y-136094720D02*
X112842548Y-136018529D01*
X112842548Y-135866148D01*
X112804453Y-135789958D01*
X112766358Y-135751862D01*
X112690167Y-135713767D01*
X112461596Y-135713767D01*
X112385405Y-135751862D01*
X112347310Y-135789958D01*
X112309215Y-135866148D01*
X112309215Y-136018529D01*
X112347310Y-136094720D01*
X112385405Y-135370910D02*
X112347310Y-135332815D01*
X112309215Y-135370910D01*
X112347310Y-135409005D01*
X112385405Y-135370910D01*
X112309215Y-135370910D01*
X112347310Y-134647100D02*
X112309215Y-134723291D01*
X112309215Y-134875672D01*
X112347310Y-134951862D01*
X112385405Y-134989958D01*
X112461596Y-135028053D01*
X112690167Y-135028053D01*
X112766358Y-134989958D01*
X112804453Y-134951862D01*
X112842548Y-134875672D01*
X112842548Y-134723291D01*
X112804453Y-134647100D01*
X112309215Y-134189958D02*
X112347310Y-134266148D01*
X112385405Y-134304243D01*
X112461596Y-134342339D01*
X112690167Y-134342339D01*
X112766358Y-134304243D01*
X112804453Y-134266148D01*
X112842548Y-134189958D01*
X112842548Y-134075672D01*
X112804453Y-133999481D01*
X112766358Y-133961386D01*
X112690167Y-133923291D01*
X112461596Y-133923291D01*
X112385405Y-133961386D01*
X112347310Y-133999481D01*
X112309215Y-134075672D01*
X112309215Y-134189958D01*
X112309215Y-133580434D02*
X112842548Y-133580434D01*
X112766358Y-133580434D02*
X112804453Y-133542339D01*
X112842548Y-133466148D01*
X112842548Y-133351862D01*
X112804453Y-133275672D01*
X112728262Y-133237577D01*
X112309215Y-133237577D01*
X112728262Y-133237577D02*
X112804453Y-133199481D01*
X112842548Y-133123291D01*
X112842548Y-133009005D01*
X112804453Y-132932815D01*
X112728262Y-132894720D01*
X112309215Y-132894720D01*
X113147310Y-131942339D02*
X112118739Y-132628053D01*
X112842548Y-131675672D02*
X112042548Y-131675672D01*
X112804453Y-131675672D02*
X112842548Y-131599481D01*
X112842548Y-131447100D01*
X112804453Y-131370910D01*
X112766358Y-131332815D01*
X112690167Y-131294720D01*
X112461596Y-131294720D01*
X112385405Y-131332815D01*
X112347310Y-131370910D01*
X112309215Y-131447100D01*
X112309215Y-131599481D01*
X112347310Y-131675672D01*
X112309215Y-130609005D02*
X112728262Y-130609005D01*
X112804453Y-130647100D01*
X112842548Y-130723291D01*
X112842548Y-130875672D01*
X112804453Y-130951862D01*
X112347310Y-130609005D02*
X112309215Y-130685196D01*
X112309215Y-130875672D01*
X112347310Y-130951862D01*
X112423500Y-130989958D01*
X112499691Y-130989958D01*
X112575881Y-130951862D01*
X112613977Y-130875672D01*
X112613977Y-130685196D01*
X112652072Y-130609005D01*
X112347310Y-129885196D02*
X112309215Y-129961386D01*
X112309215Y-130113767D01*
X112347310Y-130189958D01*
X112385405Y-130228053D01*
X112461596Y-130266148D01*
X112690167Y-130266148D01*
X112766358Y-130228053D01*
X112804453Y-130189958D01*
X112842548Y-130113767D01*
X112842548Y-129961386D01*
X112804453Y-129885196D01*
X112309215Y-129428053D02*
X112347310Y-129504243D01*
X112423500Y-129542339D01*
X113109215Y-129542339D01*
X112347310Y-128818529D02*
X112309215Y-128894720D01*
X112309215Y-129047100D01*
X112347310Y-129123291D01*
X112423500Y-129161386D01*
X112728262Y-129161386D01*
X112804453Y-129123291D01*
X112842548Y-129047100D01*
X112842548Y-128894720D01*
X112804453Y-128818529D01*
X112728262Y-128780434D01*
X112652072Y-128780434D01*
X112575881Y-129161386D01*
X112309215Y-128437577D02*
X112842548Y-128437577D01*
X112766358Y-128437577D02*
X112804453Y-128399481D01*
X112842548Y-128323291D01*
X112842548Y-128209005D01*
X112804453Y-128132815D01*
X112728262Y-128094720D01*
X112309215Y-128094720D01*
X112728262Y-128094720D02*
X112804453Y-128056624D01*
X112842548Y-127980434D01*
X112842548Y-127866148D01*
X112804453Y-127789958D01*
X112728262Y-127751862D01*
X112309215Y-127751862D01*
X112309215Y-127028053D02*
X112728262Y-127028053D01*
X112804453Y-127066148D01*
X112842548Y-127142339D01*
X112842548Y-127294720D01*
X112804453Y-127370910D01*
X112347310Y-127028053D02*
X112309215Y-127104243D01*
X112309215Y-127294720D01*
X112347310Y-127370910D01*
X112423500Y-127409005D01*
X112499691Y-127409005D01*
X112575881Y-127370910D01*
X112613977Y-127294720D01*
X112613977Y-127104243D01*
X112652072Y-127028053D01*
X113147310Y-126075672D02*
X112118739Y-126761386D01*
X112309215Y-125809005D02*
X112842548Y-125809005D01*
X113109215Y-125809005D02*
X113071120Y-125847100D01*
X113033024Y-125809005D01*
X113071120Y-125770910D01*
X113109215Y-125809005D01*
X113033024Y-125809005D01*
X112309215Y-125313767D02*
X112347310Y-125389958D01*
X112385405Y-125428053D01*
X112461596Y-125466148D01*
X112690167Y-125466148D01*
X112766358Y-125428053D01*
X112804453Y-125389958D01*
X112842548Y-125313767D01*
X112842548Y-125199481D01*
X112804453Y-125123291D01*
X112766358Y-125085196D01*
X112690167Y-125047100D01*
X112461596Y-125047100D01*
X112385405Y-125085196D01*
X112347310Y-125123291D01*
X112309215Y-125199481D01*
X112309215Y-125313767D01*
X112842548Y-124818529D02*
X112842548Y-124513767D01*
X113109215Y-124704243D02*
X112423500Y-124704243D01*
X112347310Y-124666148D01*
X112309215Y-124589958D01*
X112309215Y-124513767D01*
X112613977Y-124247100D02*
X112613977Y-123637577D01*
X112842548Y-123256624D02*
X112042548Y-123256624D01*
X112804453Y-123256624D02*
X112842548Y-123180434D01*
X112842548Y-123028053D01*
X112804453Y-122951862D01*
X112766358Y-122913767D01*
X112690167Y-122875672D01*
X112461596Y-122875672D01*
X112385405Y-122913767D01*
X112347310Y-122951862D01*
X112309215Y-123028053D01*
X112309215Y-123180434D01*
X112347310Y-123256624D01*
X112309215Y-122418529D02*
X112347310Y-122494720D01*
X112385405Y-122532815D01*
X112461596Y-122570910D01*
X112690167Y-122570910D01*
X112766358Y-122532815D01*
X112804453Y-122494720D01*
X112842548Y-122418529D01*
X112842548Y-122304243D01*
X112804453Y-122228053D01*
X112766358Y-122189958D01*
X112690167Y-122151862D01*
X112461596Y-122151862D01*
X112385405Y-122189958D01*
X112347310Y-122228053D01*
X112309215Y-122304243D01*
X112309215Y-122418529D01*
X112347310Y-121847100D02*
X112309215Y-121770910D01*
X112309215Y-121618529D01*
X112347310Y-121542339D01*
X112423500Y-121504243D01*
X112461596Y-121504243D01*
X112537786Y-121542339D01*
X112575881Y-121618529D01*
X112575881Y-121732815D01*
X112613977Y-121809005D01*
X112690167Y-121847100D01*
X112728262Y-121847100D01*
X112804453Y-121809005D01*
X112842548Y-121732815D01*
X112842548Y-121618529D01*
X112804453Y-121542339D01*
X112842548Y-121275672D02*
X112842548Y-120970910D01*
X113109215Y-121161386D02*
X112423500Y-121161386D01*
X112347310Y-121123291D01*
X112309215Y-121047100D01*
X112309215Y-120970910D01*
X112309215Y-120704243D02*
X113109215Y-120704243D01*
X112804453Y-120704243D02*
X112842548Y-120628053D01*
X112842548Y-120475672D01*
X112804453Y-120399481D01*
X112766358Y-120361386D01*
X112690167Y-120323291D01*
X112461596Y-120323291D01*
X112385405Y-120361386D01*
X112347310Y-120399481D01*
X112309215Y-120475672D01*
X112309215Y-120628053D01*
X112347310Y-120704243D01*
X112309215Y-119866148D02*
X112347310Y-119942339D01*
X112385405Y-119980434D01*
X112461596Y-120018529D01*
X112690167Y-120018529D01*
X112766358Y-119980434D01*
X112804453Y-119942339D01*
X112842548Y-119866148D01*
X112842548Y-119751862D01*
X112804453Y-119675672D01*
X112766358Y-119637577D01*
X112690167Y-119599481D01*
X112461596Y-119599481D01*
X112385405Y-119637577D01*
X112347310Y-119675672D01*
X112309215Y-119751862D01*
X112309215Y-119866148D01*
X112309215Y-119332815D02*
X112842548Y-118913767D01*
X112842548Y-119332815D02*
X112309215Y-118913767D01*
D11*
X114764682Y-124775351D02*
X113964682Y-124489637D01*
X114764682Y-124203922D01*
X115164682Y-123518208D02*
X115164682Y-123403922D01*
X115107540Y-123289637D01*
X115050397Y-123232494D01*
X114936111Y-123175351D01*
X114707540Y-123118208D01*
X114421825Y-123118208D01*
X114193254Y-123175351D01*
X114078968Y-123232494D01*
X114021825Y-123289637D01*
X113964682Y-123403922D01*
X113964682Y-123518208D01*
X114021825Y-123632494D01*
X114078968Y-123689637D01*
X114193254Y-123746780D01*
X114421825Y-123803922D01*
X114707540Y-123803922D01*
X114936111Y-123746780D01*
X115050397Y-123689637D01*
X115107540Y-123632494D01*
X115164682Y-123518208D01*
X114078968Y-122603922D02*
X114021825Y-122546780D01*
X113964682Y-122603922D01*
X114021825Y-122661065D01*
X114078968Y-122603922D01*
X113964682Y-122603922D01*
X115164682Y-122146780D02*
X115164682Y-121403922D01*
X114707540Y-121803922D01*
X114707540Y-121632494D01*
X114650397Y-121518208D01*
X114593254Y-121461065D01*
X114478968Y-121403922D01*
X114193254Y-121403922D01*
X114078968Y-121461065D01*
X114021825Y-121518208D01*
X113964682Y-121632494D01*
X113964682Y-121975351D01*
X114021825Y-122089637D01*
X114078968Y-122146780D01*
D12*
X114336082Y-139136743D02*
X114336082Y-138870077D01*
X113917035Y-138755791D02*
X113917035Y-139136743D01*
X114717035Y-139136743D01*
X114717035Y-138755791D01*
X113955130Y-138451029D02*
X113917035Y-138336743D01*
X113917035Y-138146267D01*
X113955130Y-138070077D01*
X113993225Y-138031981D01*
X114069416Y-137993886D01*
X114145606Y-137993886D01*
X114221797Y-138031981D01*
X114259892Y-138070077D01*
X114297987Y-138146267D01*
X114336082Y-138298648D01*
X114374178Y-138374839D01*
X114412273Y-138412934D01*
X114488463Y-138451029D01*
X114564654Y-138451029D01*
X114640844Y-138412934D01*
X114678940Y-138374839D01*
X114717035Y-138298648D01*
X114717035Y-138108172D01*
X114678940Y-137993886D01*
X113917035Y-137651029D02*
X114717035Y-137651029D01*
X114717035Y-137346267D01*
X114678940Y-137270077D01*
X114640844Y-137231981D01*
X114564654Y-137193886D01*
X114450368Y-137193886D01*
X114374178Y-137231981D01*
X114336082Y-137270077D01*
X114297987Y-137346267D01*
X114297987Y-137651029D01*
X114374178Y-136736743D02*
X114412273Y-136812934D01*
X114450368Y-136851029D01*
X114526559Y-136889124D01*
X114564654Y-136889124D01*
X114640844Y-136851029D01*
X114678940Y-136812934D01*
X114717035Y-136736743D01*
X114717035Y-136584362D01*
X114678940Y-136508172D01*
X114640844Y-136470077D01*
X114564654Y-136431981D01*
X114526559Y-136431981D01*
X114450368Y-136470077D01*
X114412273Y-136508172D01*
X114374178Y-136584362D01*
X114374178Y-136736743D01*
X114336082Y-136812934D01*
X114297987Y-136851029D01*
X114221797Y-136889124D01*
X114069416Y-136889124D01*
X113993225Y-136851029D01*
X113955130Y-136812934D01*
X113917035Y-136736743D01*
X113917035Y-136584362D01*
X113955130Y-136508172D01*
X113993225Y-136470077D01*
X114069416Y-136431981D01*
X114221797Y-136431981D01*
X114297987Y-136470077D01*
X114336082Y-136508172D01*
X114374178Y-136584362D01*
X114640844Y-136127220D02*
X114678940Y-136089124D01*
X114717035Y-136012934D01*
X114717035Y-135822458D01*
X114678940Y-135746267D01*
X114640844Y-135708172D01*
X114564654Y-135670077D01*
X114488463Y-135670077D01*
X114374178Y-135708172D01*
X113917035Y-136165315D01*
X113917035Y-135670077D01*
X114717035Y-134984362D02*
X114717035Y-135136743D01*
X114678940Y-135212934D01*
X114640844Y-135251029D01*
X114526559Y-135327220D01*
X114374178Y-135365315D01*
X114069416Y-135365315D01*
X113993225Y-135327220D01*
X113955130Y-135289124D01*
X113917035Y-135212934D01*
X113917035Y-135060553D01*
X113955130Y-134984362D01*
X113993225Y-134946267D01*
X114069416Y-134908172D01*
X114259892Y-134908172D01*
X114336082Y-134946267D01*
X114374178Y-134984362D01*
X114412273Y-135060553D01*
X114412273Y-135212934D01*
X114374178Y-135289124D01*
X114336082Y-135327220D01*
X114259892Y-135365315D01*
X114717035Y-134222458D02*
X114717035Y-134374839D01*
X114678940Y-134451029D01*
X114640844Y-134489124D01*
X114526559Y-134565315D01*
X114374178Y-134603410D01*
X114069416Y-134603410D01*
X113993225Y-134565315D01*
X113955130Y-134527220D01*
X113917035Y-134451029D01*
X113917035Y-134298648D01*
X113955130Y-134222458D01*
X113993225Y-134184362D01*
X114069416Y-134146267D01*
X114259892Y-134146267D01*
X114336082Y-134184362D01*
X114374178Y-134222458D01*
X114412273Y-134298648D01*
X114412273Y-134451029D01*
X114374178Y-134527220D01*
X114336082Y-134565315D01*
X114259892Y-134603410D01*
D10*
X100123044Y-129703452D02*
X100123044Y-129855833D01*
X100161140Y-129932023D01*
X100237330Y-130008214D01*
X100389711Y-130046309D01*
X100656378Y-130046309D01*
X100808759Y-130008214D01*
X100884949Y-129932023D01*
X100923044Y-129855833D01*
X100923044Y-129703452D01*
X100884949Y-129627261D01*
X100808759Y-129551071D01*
X100656378Y-129512975D01*
X100389711Y-129512975D01*
X100237330Y-129551071D01*
X100161140Y-129627261D01*
X100123044Y-129703452D01*
X100503997Y-130655833D02*
X100503997Y-130389166D01*
X100923044Y-130389166D02*
X100123044Y-130389166D01*
X100123044Y-130770118D01*
X100503997Y-131341547D02*
X100503997Y-131074880D01*
X100923044Y-131074880D02*
X100123044Y-131074880D01*
X100123044Y-131455833D01*
X100084949Y-132332023D02*
X101113520Y-131646309D01*
X100123044Y-132751071D02*
X100123044Y-132903452D01*
X100161140Y-132979642D01*
X100237330Y-133055833D01*
X100389711Y-133093928D01*
X100656378Y-133093928D01*
X100808759Y-133055833D01*
X100884949Y-132979642D01*
X100923044Y-132903452D01*
X100923044Y-132751071D01*
X100884949Y-132674880D01*
X100808759Y-132598690D01*
X100656378Y-132560595D01*
X100389711Y-132560595D01*
X100237330Y-132598690D01*
X100161140Y-132674880D01*
X100123044Y-132751071D01*
X100923044Y-133436785D02*
X100123044Y-133436785D01*
X100923044Y-133893928D01*
X100123044Y-133893928D01*
D13*
X116554258Y-138797564D02*
X118554258Y-138547564D01*
X116554258Y-137559469D02*
X116649496Y-137738040D01*
X116744734Y-137821374D01*
X116935210Y-137892802D01*
X117506639Y-137821374D01*
X117697115Y-137702326D01*
X117792353Y-137595183D01*
X117887591Y-137392802D01*
X117887591Y-137107088D01*
X117792353Y-136928517D01*
X117697115Y-136845183D01*
X117506639Y-136773755D01*
X116935210Y-136845183D01*
X116744734Y-136964231D01*
X116649496Y-137071374D01*
X116554258Y-137273755D01*
X116554258Y-137559469D01*
X118554258Y-136071374D02*
X118554258Y-134928517D01*
X116554258Y-135749945D02*
X118554258Y-135499945D01*
X117316162Y-134416612D02*
X117316162Y-132892802D01*
X116554258Y-132035660D02*
X118554258Y-131785660D01*
X118554258Y-131023755D01*
X118459020Y-130845183D01*
X118363781Y-130761850D01*
X118173305Y-130690421D01*
X117887591Y-130726136D01*
X117697115Y-130845183D01*
X117601877Y-130952326D01*
X117506639Y-131154707D01*
X117506639Y-131916612D01*
X116554258Y-129749945D02*
X116649496Y-129928517D01*
X116744734Y-130011850D01*
X116935210Y-130083279D01*
X117506639Y-130011850D01*
X117697115Y-129892802D01*
X117792353Y-129785660D01*
X117887591Y-129583279D01*
X117887591Y-129297564D01*
X117792353Y-129118993D01*
X117697115Y-129035660D01*
X117506639Y-128964231D01*
X116935210Y-129035660D01*
X116744734Y-129154707D01*
X116649496Y-129261850D01*
X116554258Y-129464231D01*
X116554258Y-129749945D01*
X116649496Y-128309469D02*
X116554258Y-128130898D01*
X116554258Y-127749945D01*
X116649496Y-127547564D01*
X116839972Y-127428517D01*
X116935210Y-127416612D01*
X117125686Y-127488040D01*
X117220924Y-127666612D01*
X117220924Y-127952326D01*
X117316162Y-128130898D01*
X117506639Y-128202326D01*
X117601877Y-128190421D01*
X117792353Y-128071374D01*
X117887591Y-127868993D01*
X117887591Y-127583279D01*
X117792353Y-127404707D01*
X117887591Y-126726136D02*
X117887591Y-125964231D01*
X118554258Y-126357088D02*
X116839972Y-126571374D01*
X116649496Y-126499945D01*
X116554258Y-126321374D01*
X116554258Y-126130898D01*
X117601877Y-124666612D02*
X117506639Y-124392802D01*
X117411400Y-124309469D01*
X117220924Y-124238040D01*
X116935210Y-124273755D01*
X116744734Y-124392802D01*
X116649496Y-124499945D01*
X116554258Y-124702326D01*
X116554258Y-125464231D01*
X118554258Y-125214231D01*
X118554258Y-124547564D01*
X118459020Y-124368993D01*
X118363781Y-124285660D01*
X118173305Y-124214231D01*
X117982829Y-124238040D01*
X117792353Y-124357088D01*
X117697115Y-124464231D01*
X117601877Y-124666612D01*
X117601877Y-125333279D01*
X116554258Y-123178517D02*
X116649496Y-123357088D01*
X116744734Y-123440421D01*
X116935210Y-123511850D01*
X117506639Y-123440421D01*
X117697115Y-123321374D01*
X117792353Y-123214231D01*
X117887591Y-123011850D01*
X117887591Y-122726136D01*
X117792353Y-122547564D01*
X117697115Y-122464231D01*
X117506639Y-122392802D01*
X116935210Y-122464231D01*
X116744734Y-122583279D01*
X116649496Y-122690421D01*
X116554258Y-122892802D01*
X116554258Y-123178517D01*
X116554258Y-121845183D02*
X117887591Y-120630898D01*
X117887591Y-121678517D02*
X116554258Y-120797564D01*
D10*
X129515759Y-128771704D02*
X129058616Y-128771704D01*
X129387187Y-129571704D02*
X129287187Y-128771704D01*
X128906235Y-128771704D02*
X128449092Y-128771704D01*
X128777663Y-129571704D02*
X128677663Y-128771704D01*
X127901473Y-129571704D02*
X128282425Y-129571704D01*
X128182425Y-128771704D01*
X127834806Y-129647895D02*
X127225282Y-129647895D01*
X126925282Y-128771704D02*
X127006235Y-129419323D01*
X126977663Y-129495514D01*
X126944330Y-129533609D01*
X126872901Y-129571704D01*
X126720520Y-129571704D01*
X126639568Y-129533609D01*
X126596711Y-129495514D01*
X126549092Y-129419323D01*
X126468139Y-128771704D01*
X126196711Y-129343133D02*
X125815759Y-129343133D01*
X126301473Y-129571704D02*
X125934806Y-128771704D01*
X125768139Y-129571704D01*
X125044330Y-129571704D02*
X125263378Y-129190752D01*
X125501473Y-129571704D02*
X125401473Y-128771704D01*
X125096711Y-128771704D01*
X125025282Y-128809800D01*
X124991949Y-128847895D01*
X124963378Y-128924085D01*
X124977663Y-129038371D01*
X125025282Y-129114561D01*
X125068139Y-129152657D01*
X125149092Y-129190752D01*
X125453854Y-129190752D01*
X124715759Y-128771704D02*
X124258616Y-128771704D01*
X124587187Y-129571704D02*
X124487187Y-128771704D01*
X129534806Y-114217409D02*
X129425282Y-114255504D01*
X129234806Y-114255504D01*
X129153854Y-114217409D01*
X129110997Y-114179314D01*
X129063377Y-114103123D01*
X129053854Y-114026933D01*
X129082425Y-113950742D01*
X129115758Y-113912647D01*
X129187187Y-113874552D01*
X129334806Y-113836457D01*
X129406235Y-113798361D01*
X129439568Y-113760266D01*
X129468139Y-113684076D01*
X129458616Y-113607885D01*
X129410997Y-113531695D01*
X129368139Y-113493600D01*
X129287187Y-113455504D01*
X129096711Y-113455504D01*
X128987187Y-113493600D01*
X128749092Y-113722171D02*
X128663377Y-114255504D01*
X128463377Y-113874552D01*
X128358616Y-114255504D01*
X128139568Y-113722171D01*
X127901473Y-114255504D02*
X127834806Y-113722171D01*
X127801473Y-113455504D02*
X127844330Y-113493600D01*
X127810997Y-113531695D01*
X127768139Y-113493600D01*
X127801473Y-113455504D01*
X127810997Y-113531695D01*
X127568139Y-113722171D02*
X127263377Y-113722171D01*
X127420520Y-113455504D02*
X127506235Y-114141219D01*
X127477663Y-114217409D01*
X127406235Y-114255504D01*
X127330044Y-114255504D01*
X126715758Y-114217409D02*
X126796711Y-114255504D01*
X126949092Y-114255504D01*
X127020520Y-114217409D01*
X127053854Y-114179314D01*
X127082425Y-114103123D01*
X127053854Y-113874552D01*
X127006235Y-113798361D01*
X126963377Y-113760266D01*
X126882425Y-113722171D01*
X126730044Y-113722171D01*
X126658616Y-113760266D01*
X126377663Y-114255504D02*
X126277663Y-113455504D01*
X126034806Y-114255504D02*
X125982425Y-113836457D01*
X126010997Y-113760266D01*
X126082425Y-113722171D01*
X126196711Y-113722171D01*
X126277663Y-113760266D01*
X126320520Y-113798361D01*
X125853854Y-114331695D02*
X125244330Y-114331695D01*
X124625282Y-114255504D02*
X125082425Y-114255504D01*
X124853854Y-114255504D02*
X124753854Y-113455504D01*
X124844330Y-113569790D01*
X124930044Y-113645980D01*
X125010997Y-113684076D01*
X129534806Y-121862809D02*
X129425282Y-121900904D01*
X129234806Y-121900904D01*
X129153854Y-121862809D01*
X129110997Y-121824714D01*
X129063377Y-121748523D01*
X129053854Y-121672333D01*
X129082425Y-121596142D01*
X129115758Y-121558047D01*
X129187187Y-121519952D01*
X129334806Y-121481857D01*
X129406235Y-121443761D01*
X129439568Y-121405666D01*
X129468139Y-121329476D01*
X129458616Y-121253285D01*
X129410997Y-121177095D01*
X129368139Y-121139000D01*
X129287187Y-121100904D01*
X129096711Y-121100904D01*
X128987187Y-121139000D01*
X128749092Y-121367571D02*
X128663377Y-121900904D01*
X128463377Y-121519952D01*
X128358616Y-121900904D01*
X128139568Y-121367571D01*
X127901473Y-121900904D02*
X127834806Y-121367571D01*
X127801473Y-121100904D02*
X127844330Y-121139000D01*
X127810997Y-121177095D01*
X127768139Y-121139000D01*
X127801473Y-121100904D01*
X127810997Y-121177095D01*
X127568139Y-121367571D02*
X127263377Y-121367571D01*
X127420520Y-121100904D02*
X127506235Y-121786619D01*
X127477663Y-121862809D01*
X127406235Y-121900904D01*
X127330044Y-121900904D01*
X126715758Y-121862809D02*
X126796711Y-121900904D01*
X126949092Y-121900904D01*
X127020520Y-121862809D01*
X127053854Y-121824714D01*
X127082425Y-121748523D01*
X127053854Y-121519952D01*
X127006235Y-121443761D01*
X126963377Y-121405666D01*
X126882425Y-121367571D01*
X126730044Y-121367571D01*
X126658616Y-121405666D01*
X126377663Y-121900904D02*
X126277663Y-121100904D01*
X126034806Y-121900904D02*
X125982425Y-121481857D01*
X126010997Y-121405666D01*
X126082425Y-121367571D01*
X126196711Y-121367571D01*
X126277663Y-121405666D01*
X126320520Y-121443761D01*
X125853854Y-121977095D02*
X125244330Y-121977095D01*
X124991949Y-121177095D02*
X124949092Y-121139000D01*
X124868139Y-121100904D01*
X124677663Y-121100904D01*
X124606235Y-121139000D01*
X124572901Y-121177095D01*
X124544330Y-121253285D01*
X124553854Y-121329476D01*
X124606235Y-121443761D01*
X125120520Y-121900904D01*
X124625282Y-121900904D01*
X127435909Y-118078304D02*
X127169242Y-118878304D01*
X126902576Y-118078304D01*
X126178766Y-118802114D02*
X126216861Y-118840209D01*
X126331147Y-118878304D01*
X126407338Y-118878304D01*
X126521623Y-118840209D01*
X126597814Y-118764019D01*
X126635909Y-118687828D01*
X126674004Y-118535447D01*
X126674004Y-118421161D01*
X126635909Y-118268780D01*
X126597814Y-118192590D01*
X126521623Y-118116400D01*
X126407338Y-118078304D01*
X126331147Y-118078304D01*
X126216861Y-118116400D01*
X126178766Y-118154495D01*
X125378766Y-118802114D02*
X125416861Y-118840209D01*
X125531147Y-118878304D01*
X125607338Y-118878304D01*
X125721623Y-118840209D01*
X125797814Y-118764019D01*
X125835909Y-118687828D01*
X125874004Y-118535447D01*
X125874004Y-118421161D01*
X125835909Y-118268780D01*
X125797814Y-118192590D01*
X125721623Y-118116400D01*
X125607338Y-118078304D01*
X125531147Y-118078304D01*
X125416861Y-118116400D01*
X125378766Y-118154495D01*
X126902576Y-115576400D02*
X126978766Y-115538304D01*
X127093052Y-115538304D01*
X127207338Y-115576400D01*
X127283528Y-115652590D01*
X127321623Y-115728780D01*
X127359719Y-115881161D01*
X127359719Y-115995447D01*
X127321623Y-116147828D01*
X127283528Y-116224019D01*
X127207338Y-116300209D01*
X127093052Y-116338304D01*
X127016861Y-116338304D01*
X126902576Y-116300209D01*
X126864480Y-116262114D01*
X126864480Y-115995447D01*
X127016861Y-115995447D01*
X126521623Y-116338304D02*
X126521623Y-115538304D01*
X126216861Y-115538304D01*
X126140671Y-115576400D01*
X126102576Y-115614495D01*
X126064480Y-115690685D01*
X126064480Y-115804971D01*
X126102576Y-115881161D01*
X126140671Y-115919257D01*
X126216861Y-115957352D01*
X126521623Y-115957352D01*
X125721623Y-116338304D02*
X125721623Y-115538304D01*
X125188290Y-115538304D02*
X125035909Y-115538304D01*
X124959719Y-115576400D01*
X124883528Y-115652590D01*
X124845433Y-115804971D01*
X124845433Y-116071638D01*
X124883528Y-116224019D01*
X124959719Y-116300209D01*
X125035909Y-116338304D01*
X125188290Y-116338304D01*
X125264480Y-116300209D01*
X125340671Y-116224019D01*
X125378766Y-116071638D01*
X125378766Y-115804971D01*
X125340671Y-115652590D01*
X125264480Y-115576400D01*
X125188290Y-115538304D01*
X124083528Y-116338304D02*
X124540671Y-116338304D01*
X124312100Y-116338304D02*
X124312100Y-115538304D01*
X124388290Y-115652590D01*
X124464480Y-115728780D01*
X124540671Y-115766876D01*
X123778766Y-115614495D02*
X123740671Y-115576400D01*
X123664480Y-115538304D01*
X123474004Y-115538304D01*
X123397814Y-115576400D01*
X123359719Y-115614495D01*
X123321623Y-115690685D01*
X123321623Y-115766876D01*
X123359719Y-115881161D01*
X123816861Y-116338304D01*
X123321623Y-116338304D01*
X126927976Y-125711000D02*
X127004166Y-125672904D01*
X127118452Y-125672904D01*
X127232738Y-125711000D01*
X127308928Y-125787190D01*
X127347023Y-125863380D01*
X127385119Y-126015761D01*
X127385119Y-126130047D01*
X127347023Y-126282428D01*
X127308928Y-126358619D01*
X127232738Y-126434809D01*
X127118452Y-126472904D01*
X127042261Y-126472904D01*
X126927976Y-126434809D01*
X126889880Y-126396714D01*
X126889880Y-126130047D01*
X127042261Y-126130047D01*
X126547023Y-126472904D02*
X126547023Y-125672904D01*
X126242261Y-125672904D01*
X126166071Y-125711000D01*
X126127976Y-125749095D01*
X126089880Y-125825285D01*
X126089880Y-125939571D01*
X126127976Y-126015761D01*
X126166071Y-126053857D01*
X126242261Y-126091952D01*
X126547023Y-126091952D01*
X125747023Y-126472904D02*
X125747023Y-125672904D01*
X125213690Y-125672904D02*
X125061309Y-125672904D01*
X124985119Y-125711000D01*
X124908928Y-125787190D01*
X124870833Y-125939571D01*
X124870833Y-126206238D01*
X124908928Y-126358619D01*
X124985119Y-126434809D01*
X125061309Y-126472904D01*
X125213690Y-126472904D01*
X125289880Y-126434809D01*
X125366071Y-126358619D01*
X125404166Y-126206238D01*
X125404166Y-125939571D01*
X125366071Y-125787190D01*
X125289880Y-125711000D01*
X125213690Y-125672904D01*
X124108928Y-126472904D02*
X124566071Y-126472904D01*
X124337500Y-126472904D02*
X124337500Y-125672904D01*
X124413690Y-125787190D01*
X124489880Y-125863380D01*
X124566071Y-125901476D01*
X123842261Y-125672904D02*
X123347023Y-125672904D01*
X123613690Y-125977666D01*
X123499404Y-125977666D01*
X123423214Y-126015761D01*
X123385119Y-126053857D01*
X123347023Y-126130047D01*
X123347023Y-126320523D01*
X123385119Y-126396714D01*
X123423214Y-126434809D01*
X123499404Y-126472904D01*
X123727976Y-126472904D01*
X123804166Y-126434809D01*
X123842261Y-126396714D01*
X127461309Y-123132904D02*
X127194642Y-123932904D01*
X126927976Y-123132904D01*
X126204166Y-123856714D02*
X126242261Y-123894809D01*
X126356547Y-123932904D01*
X126432738Y-123932904D01*
X126547023Y-123894809D01*
X126623214Y-123818619D01*
X126661309Y-123742428D01*
X126699404Y-123590047D01*
X126699404Y-123475761D01*
X126661309Y-123323380D01*
X126623214Y-123247190D01*
X126547023Y-123171000D01*
X126432738Y-123132904D01*
X126356547Y-123132904D01*
X126242261Y-123171000D01*
X126204166Y-123209095D01*
X125404166Y-123856714D02*
X125442261Y-123894809D01*
X125556547Y-123932904D01*
X125632738Y-123932904D01*
X125747023Y-123894809D01*
X125823214Y-123818619D01*
X125861309Y-123742428D01*
X125899404Y-123590047D01*
X125899404Y-123475761D01*
X125861309Y-123323380D01*
X125823214Y-123247190D01*
X125747023Y-123171000D01*
X125632738Y-123132904D01*
X125556547Y-123132904D01*
X125442261Y-123171000D01*
X125404166Y-123209095D01*
X108887614Y-145764257D02*
X108778090Y-145802352D01*
X108744757Y-145840447D01*
X108716185Y-145916638D01*
X108730471Y-146030923D01*
X108778090Y-146107114D01*
X108820947Y-146145209D01*
X108901900Y-146183304D01*
X109206661Y-146183304D01*
X109106661Y-145383304D01*
X108839995Y-145383304D01*
X108768566Y-145421400D01*
X108735233Y-145459495D01*
X108706661Y-145535685D01*
X108716185Y-145611876D01*
X108763804Y-145688066D01*
X108806661Y-145726161D01*
X108887614Y-145764257D01*
X109154280Y-145764257D01*
X108063804Y-146183304D02*
X108011423Y-145764257D01*
X108039995Y-145688066D01*
X108111423Y-145649971D01*
X108263804Y-145649971D01*
X108344757Y-145688066D01*
X108059042Y-146145209D02*
X108139995Y-146183304D01*
X108330471Y-146183304D01*
X108401900Y-146145209D01*
X108430471Y-146069019D01*
X108420947Y-145992828D01*
X108373328Y-145916638D01*
X108292376Y-145878542D01*
X108101900Y-145878542D01*
X108020947Y-145840447D01*
X107730471Y-145649971D02*
X107425709Y-145649971D01*
X107582852Y-145383304D02*
X107668566Y-146069019D01*
X107639995Y-146145209D01*
X107568566Y-146183304D01*
X107492376Y-146183304D01*
X107273328Y-145649971D02*
X106968566Y-145649971D01*
X107125709Y-145383304D02*
X107211423Y-146069019D01*
X107182852Y-146145209D01*
X107111423Y-146183304D01*
X107035233Y-146183304D01*
X106459042Y-146145209D02*
X106539995Y-146183304D01*
X106692376Y-146183304D01*
X106763804Y-146145209D01*
X106792376Y-146069019D01*
X106754280Y-145764257D01*
X106706661Y-145688066D01*
X106625709Y-145649971D01*
X106473328Y-145649971D01*
X106401900Y-145688066D01*
X106373328Y-145764257D01*
X106382852Y-145840447D01*
X106773328Y-145916638D01*
X106082852Y-146183304D02*
X106016185Y-145649971D01*
X106035233Y-145802352D02*
X105987614Y-145726161D01*
X105944757Y-145688066D01*
X105863804Y-145649971D01*
X105787614Y-145649971D01*
X105597138Y-145649971D02*
X105473328Y-146183304D01*
X105216185Y-145649971D02*
X105473328Y-146183304D01*
X105573328Y-146373780D01*
X105616185Y-146411876D01*
X105697138Y-146449971D01*
X104368566Y-146183304D02*
X104268566Y-145383304D01*
X103963804Y-145383304D01*
X103892376Y-145421400D01*
X103859042Y-145459495D01*
X103830471Y-145535685D01*
X103844757Y-145649971D01*
X103892376Y-145726161D01*
X103935233Y-145764257D01*
X104016185Y-145802352D01*
X104320947Y-145802352D01*
X103454280Y-146183304D02*
X103525709Y-146145209D01*
X103559042Y-146107114D01*
X103587614Y-146030923D01*
X103559042Y-145802352D01*
X103511423Y-145726161D01*
X103468566Y-145688066D01*
X103387614Y-145649971D01*
X103273328Y-145649971D01*
X103201900Y-145688066D01*
X103168566Y-145726161D01*
X103139995Y-145802352D01*
X103168566Y-146030923D01*
X103216185Y-146107114D01*
X103259042Y-146145209D01*
X103339995Y-146183304D01*
X103454280Y-146183304D01*
X102854280Y-145649971D02*
X102768566Y-146183304D01*
X102568566Y-145802352D01*
X102463804Y-146183304D01*
X102244757Y-145649971D01*
X101697138Y-146145209D02*
X101778090Y-146183304D01*
X101930471Y-146183304D01*
X102001900Y-146145209D01*
X102030471Y-146069019D01*
X101992376Y-145764257D01*
X101944757Y-145688066D01*
X101863804Y-145649971D01*
X101711423Y-145649971D01*
X101639995Y-145688066D01*
X101611423Y-145764257D01*
X101620947Y-145840447D01*
X102011423Y-145916638D01*
X101320947Y-146183304D02*
X101254280Y-145649971D01*
X101273328Y-145802352D02*
X101225709Y-145726161D01*
X101182852Y-145688066D01*
X101101900Y-145649971D01*
X101025709Y-145649971D01*
X105951671Y-150241357D02*
X105837385Y-150279452D01*
X105799290Y-150317547D01*
X105761195Y-150393738D01*
X105761195Y-150508023D01*
X105799290Y-150584214D01*
X105837385Y-150622309D01*
X105913576Y-150660404D01*
X106218338Y-150660404D01*
X106218338Y-149860404D01*
X105951671Y-149860404D01*
X105875480Y-149898500D01*
X105837385Y-149936595D01*
X105799290Y-150012785D01*
X105799290Y-150088976D01*
X105837385Y-150165166D01*
X105875480Y-150203261D01*
X105951671Y-150241357D01*
X106218338Y-150241357D01*
X105456433Y-150431833D02*
X105075480Y-150431833D01*
X105532623Y-150660404D02*
X105265957Y-149860404D01*
X104999290Y-150660404D01*
X104846909Y-149860404D02*
X104389766Y-149860404D01*
X104618338Y-150660404D02*
X104618338Y-149860404D01*
X104123100Y-150355642D02*
X103513576Y-150355642D01*
X103818338Y-150660404D02*
X103818338Y-150050880D01*
X105951671Y-147701357D02*
X105837385Y-147739452D01*
X105799290Y-147777547D01*
X105761195Y-147853738D01*
X105761195Y-147968023D01*
X105799290Y-148044214D01*
X105837385Y-148082309D01*
X105913576Y-148120404D01*
X106218338Y-148120404D01*
X106218338Y-147320404D01*
X105951671Y-147320404D01*
X105875480Y-147358500D01*
X105837385Y-147396595D01*
X105799290Y-147472785D01*
X105799290Y-147548976D01*
X105837385Y-147625166D01*
X105875480Y-147663261D01*
X105951671Y-147701357D01*
X106218338Y-147701357D01*
X105456433Y-147891833D02*
X105075480Y-147891833D01*
X105532623Y-148120404D02*
X105265957Y-147320404D01*
X104999290Y-148120404D01*
X104846909Y-147320404D02*
X104389766Y-147320404D01*
X104618338Y-148120404D02*
X104618338Y-147320404D01*
X104123100Y-147815642D02*
X103513576Y-147815642D01*
X127347023Y-131578304D02*
X127347023Y-130778304D01*
X126966071Y-131578304D02*
X126966071Y-130778304D01*
X126508928Y-131578304D01*
X126508928Y-130778304D01*
X126127976Y-131273542D02*
X125518452Y-131273542D01*
X122313061Y-144202104D02*
X122213061Y-143402104D01*
X122017823Y-143973533D01*
X121679728Y-143402104D01*
X121779728Y-144202104D01*
X121055919Y-144202104D02*
X121003538Y-143783057D01*
X121032109Y-143706866D01*
X121103538Y-143668771D01*
X121255919Y-143668771D01*
X121336871Y-143706866D01*
X121051157Y-144164009D02*
X121132109Y-144202104D01*
X121322585Y-144202104D01*
X121394014Y-144164009D01*
X121422585Y-144087819D01*
X121413061Y-144011628D01*
X121365442Y-143935438D01*
X121284490Y-143897342D01*
X121094014Y-143897342D01*
X121013061Y-143859247D01*
X120674966Y-144202104D02*
X120608300Y-143668771D01*
X120574966Y-143402104D02*
X120617823Y-143440200D01*
X120584490Y-143478295D01*
X120541633Y-143440200D01*
X120574966Y-143402104D01*
X120584490Y-143478295D01*
X120227347Y-143668771D02*
X120294014Y-144202104D01*
X120236871Y-143744961D02*
X120194014Y-143706866D01*
X120113061Y-143668771D01*
X119998776Y-143668771D01*
X119927347Y-143706866D01*
X119898776Y-143783057D01*
X119951157Y-144202104D01*
X118960680Y-144202104D02*
X118860680Y-143402104D01*
X118555919Y-143402104D01*
X118484490Y-143440200D01*
X118451157Y-143478295D01*
X118422585Y-143554485D01*
X118436871Y-143668771D01*
X118484490Y-143744961D01*
X118527347Y-143783057D01*
X118608300Y-143821152D01*
X118913061Y-143821152D01*
X118046395Y-144202104D02*
X118117823Y-144164009D01*
X118151157Y-144125914D01*
X118179728Y-144049723D01*
X118151157Y-143821152D01*
X118103538Y-143744961D01*
X118060680Y-143706866D01*
X117979728Y-143668771D01*
X117865442Y-143668771D01*
X117794014Y-143706866D01*
X117760680Y-143744961D01*
X117732109Y-143821152D01*
X117760680Y-144049723D01*
X117808300Y-144125914D01*
X117851157Y-144164009D01*
X117932109Y-144202104D01*
X118046395Y-144202104D01*
X117446395Y-143668771D02*
X117360680Y-144202104D01*
X117160680Y-143821152D01*
X117055919Y-144202104D01*
X116836871Y-143668771D01*
X116289252Y-144164009D02*
X116370204Y-144202104D01*
X116522585Y-144202104D01*
X116594014Y-144164009D01*
X116622585Y-144087819D01*
X116584490Y-143783057D01*
X116536871Y-143706866D01*
X116455919Y-143668771D01*
X116303538Y-143668771D01*
X116232109Y-143706866D01*
X116203538Y-143783057D01*
X116213061Y-143859247D01*
X116603538Y-143935438D01*
X115913061Y-144202104D02*
X115846395Y-143668771D01*
X115865442Y-143821152D02*
X115817823Y-143744961D01*
X115774966Y-143706866D01*
X115694014Y-143668771D01*
X115617823Y-143668771D01*
D14*
X128778000Y-148082000D02*
X128778000Y-148717000D01*
X125603000Y-148082000D02*
X128778000Y-148082000D01*
X122809000Y-145288000D02*
X125603000Y-148082000D01*
X121666000Y-145288000D02*
X122809000Y-145288000D01*
X124079000Y-150368000D02*
X124587000Y-150368000D01*
X124079000Y-148082000D02*
X124079000Y-150368000D01*
X122682000Y-146685000D02*
X124079000Y-148082000D01*
X121666000Y-146685000D02*
X122682000Y-146685000D01*
D10*
X121251023Y-147046904D02*
X121251023Y-146246904D01*
X120870071Y-147046904D02*
X120870071Y-146246904D01*
X120412928Y-147046904D01*
X120412928Y-146246904D01*
X120031976Y-146742142D02*
X119422452Y-146742142D01*
X119727214Y-147046904D02*
X119727214Y-146437380D01*
X121251023Y-145649904D02*
X121251023Y-144849904D01*
X120870071Y-145649904D02*
X120870071Y-144849904D01*
X120412928Y-145649904D01*
X120412928Y-144849904D01*
X120031976Y-145345142D02*
X119422452Y-145345142D01*
X127347023Y-146792904D02*
X127347023Y-145992904D01*
X126966071Y-146792904D02*
X126966071Y-145992904D01*
X126508928Y-146792904D01*
X126508928Y-145992904D01*
X126127976Y-146488142D02*
X125518452Y-146488142D01*
X125823214Y-146792904D02*
X125823214Y-146183380D01*
X126889880Y-144176714D02*
X126927976Y-144214809D01*
X127042261Y-144252904D01*
X127118452Y-144252904D01*
X127232738Y-144214809D01*
X127308928Y-144138619D01*
X127347023Y-144062428D01*
X127385119Y-143910047D01*
X127385119Y-143795761D01*
X127347023Y-143643380D01*
X127308928Y-143567190D01*
X127232738Y-143491000D01*
X127118452Y-143452904D01*
X127042261Y-143452904D01*
X126927976Y-143491000D01*
X126889880Y-143529095D01*
X126547023Y-144252904D02*
X126547023Y-143452904D01*
X126547023Y-143833857D02*
X126089880Y-143833857D01*
X126089880Y-144252904D02*
X126089880Y-143452904D01*
X125708928Y-144252904D02*
X125708928Y-143452904D01*
X125404166Y-143452904D01*
X125327976Y-143491000D01*
X125289880Y-143529095D01*
X125251785Y-143605285D01*
X125251785Y-143719571D01*
X125289880Y-143795761D01*
X125327976Y-143833857D01*
X125404166Y-143871952D01*
X125708928Y-143871952D01*
X124908928Y-144252904D02*
X124908928Y-143452904D01*
X124718452Y-143452904D01*
X124604166Y-143491000D01*
X124527976Y-143567190D01*
X124489880Y-143643380D01*
X124451785Y-143795761D01*
X124451785Y-143910047D01*
X124489880Y-144062428D01*
X124527976Y-144138619D01*
X124604166Y-144214809D01*
X124718452Y-144252904D01*
X124908928Y-144252904D01*
X126889880Y-141712904D02*
X127156547Y-141331952D01*
X127347023Y-141712904D02*
X127347023Y-140912904D01*
X127042261Y-140912904D01*
X126966071Y-140951000D01*
X126927976Y-140989095D01*
X126889880Y-141065285D01*
X126889880Y-141179571D01*
X126927976Y-141255761D01*
X126966071Y-141293857D01*
X127042261Y-141331952D01*
X127347023Y-141331952D01*
X126585119Y-141674809D02*
X126470833Y-141712904D01*
X126280357Y-141712904D01*
X126204166Y-141674809D01*
X126166071Y-141636714D01*
X126127976Y-141560523D01*
X126127976Y-141484333D01*
X126166071Y-141408142D01*
X126204166Y-141370047D01*
X126280357Y-141331952D01*
X126432738Y-141293857D01*
X126508928Y-141255761D01*
X126547023Y-141217666D01*
X126585119Y-141141476D01*
X126585119Y-141065285D01*
X126547023Y-140989095D01*
X126508928Y-140951000D01*
X126432738Y-140912904D01*
X126242261Y-140912904D01*
X126127976Y-140951000D01*
X125899404Y-140912904D02*
X125442261Y-140912904D01*
X125670833Y-141712904D02*
X125670833Y-140912904D01*
X126927976Y-138411000D02*
X127004166Y-138372904D01*
X127118452Y-138372904D01*
X127232738Y-138411000D01*
X127308928Y-138487190D01*
X127347023Y-138563380D01*
X127385119Y-138715761D01*
X127385119Y-138830047D01*
X127347023Y-138982428D01*
X127308928Y-139058619D01*
X127232738Y-139134809D01*
X127118452Y-139172904D01*
X127042261Y-139172904D01*
X126927976Y-139134809D01*
X126889880Y-139096714D01*
X126889880Y-138830047D01*
X127042261Y-138830047D01*
X126547023Y-139172904D02*
X126547023Y-138372904D01*
X126242261Y-138372904D01*
X126166071Y-138411000D01*
X126127976Y-138449095D01*
X126089880Y-138525285D01*
X126089880Y-138639571D01*
X126127976Y-138715761D01*
X126166071Y-138753857D01*
X126242261Y-138791952D01*
X126547023Y-138791952D01*
X125747023Y-139172904D02*
X125747023Y-138372904D01*
X125213690Y-138372904D02*
X125061309Y-138372904D01*
X124985119Y-138411000D01*
X124908928Y-138487190D01*
X124870833Y-138639571D01*
X124870833Y-138906238D01*
X124908928Y-139058619D01*
X124985119Y-139134809D01*
X125061309Y-139172904D01*
X125213690Y-139172904D01*
X125289880Y-139134809D01*
X125366071Y-139058619D01*
X125404166Y-138906238D01*
X125404166Y-138639571D01*
X125366071Y-138487190D01*
X125289880Y-138411000D01*
X125213690Y-138372904D01*
X124375595Y-138372904D02*
X124299404Y-138372904D01*
X124223214Y-138411000D01*
X124185119Y-138449095D01*
X124147023Y-138525285D01*
X124108928Y-138677666D01*
X124108928Y-138868142D01*
X124147023Y-139020523D01*
X124185119Y-139096714D01*
X124223214Y-139134809D01*
X124299404Y-139172904D01*
X124375595Y-139172904D01*
X124451785Y-139134809D01*
X124489880Y-139096714D01*
X124527976Y-139020523D01*
X124566071Y-138868142D01*
X124566071Y-138677666D01*
X124527976Y-138525285D01*
X124489880Y-138449095D01*
X124451785Y-138411000D01*
X124375595Y-138372904D01*
X127461309Y-135832904D02*
X127004166Y-135832904D01*
X127232738Y-136632904D02*
X127232738Y-135832904D01*
X126813690Y-135832904D02*
X126280357Y-136632904D01*
X126280357Y-135832904D02*
X126813690Y-136632904D01*
X126889880Y-134092904D02*
X127156547Y-133711952D01*
X127347023Y-134092904D02*
X127347023Y-133292904D01*
X127042261Y-133292904D01*
X126966071Y-133331000D01*
X126927976Y-133369095D01*
X126889880Y-133445285D01*
X126889880Y-133559571D01*
X126927976Y-133635761D01*
X126966071Y-133673857D01*
X127042261Y-133711952D01*
X127347023Y-133711952D01*
X126623214Y-133292904D02*
X126089880Y-134092904D01*
X126089880Y-133292904D02*
X126623214Y-134092904D01*
M02*
