G04 #@! TF.GenerationSoftware,KiCad,Pcbnew,(5.1.12)-1*
G04 #@! TF.CreationDate,2021-12-21T15:59:21+01:00*
G04 #@! TF.ProjectId,iot-postbox,696f742d-706f-4737-9462-6f782e6b6963,v0.3*
G04 #@! TF.SameCoordinates,Original*
G04 #@! TF.FileFunction,Copper,L1,Top*
G04 #@! TF.FilePolarity,Positive*
%FSLAX46Y46*%
G04 Gerber Fmt 4.6, Leading zero omitted, Abs format (unit mm)*
G04 Created by KiCad (PCBNEW (5.1.12)-1) date 2021-12-21 15:59:21*
%MOMM*%
%LPD*%
G01*
G04 APERTURE LIST*
G04 #@! TA.AperFunction,ComponentPad*
%ADD10O,1.700000X1.700000*%
G04 #@! TD*
G04 #@! TA.AperFunction,ComponentPad*
%ADD11R,1.700000X1.700000*%
G04 #@! TD*
G04 #@! TA.AperFunction,SMDPad,CuDef*
%ADD12R,0.600000X0.800000*%
G04 #@! TD*
G04 #@! TA.AperFunction,SMDPad,CuDef*
%ADD13R,1.200000X0.600000*%
G04 #@! TD*
G04 #@! TA.AperFunction,SMDPad,CuDef*
%ADD14R,0.650000X1.560000*%
G04 #@! TD*
G04 #@! TA.AperFunction,SMDPad,CuDef*
%ADD15R,1.500000X0.650000*%
G04 #@! TD*
G04 #@! TA.AperFunction,SMDPad,CuDef*
%ADD16R,2.700000X3.600000*%
G04 #@! TD*
G04 #@! TA.AperFunction,SMDPad,CuDef*
%ADD17R,2.500000X1.000000*%
G04 #@! TD*
G04 #@! TA.AperFunction,SMDPad,CuDef*
%ADD18R,1.000000X1.800000*%
G04 #@! TD*
G04 #@! TA.AperFunction,ComponentPad*
%ADD19O,0.890000X1.550000*%
G04 #@! TD*
G04 #@! TA.AperFunction,SMDPad,CuDef*
%ADD20R,1.200000X1.550000*%
G04 #@! TD*
G04 #@! TA.AperFunction,SMDPad,CuDef*
%ADD21R,1.500000X1.550000*%
G04 #@! TD*
G04 #@! TA.AperFunction,ComponentPad*
%ADD22O,1.250000X0.950000*%
G04 #@! TD*
G04 #@! TA.AperFunction,SMDPad,CuDef*
%ADD23R,0.400000X1.350000*%
G04 #@! TD*
G04 #@! TA.AperFunction,SMDPad,CuDef*
%ADD24R,1.200000X0.900000*%
G04 #@! TD*
G04 #@! TA.AperFunction,SMDPad,CuDef*
%ADD25R,0.900000X1.200000*%
G04 #@! TD*
G04 #@! TA.AperFunction,ViaPad*
%ADD26C,0.800000*%
G04 #@! TD*
G04 #@! TA.AperFunction,Conductor*
%ADD27C,0.250000*%
G04 #@! TD*
G04 #@! TA.AperFunction,Conductor*
%ADD28C,0.650000*%
G04 #@! TD*
G04 #@! TA.AperFunction,Conductor*
%ADD29C,0.400600*%
G04 #@! TD*
G04 #@! TA.AperFunction,Conductor*
%ADD30C,0.399800*%
G04 #@! TD*
G04 APERTURE END LIST*
D10*
X101669000Y-120720000D03*
X101669000Y-118180000D03*
D11*
X101669000Y-115640000D03*
D10*
X129032000Y-146418000D03*
X129032000Y-143878000D03*
X129032000Y-141338000D03*
X129032000Y-138798000D03*
X129032000Y-136258000D03*
X129032000Y-133718000D03*
D11*
X129032000Y-131178000D03*
D12*
X100239000Y-135650000D03*
X102459000Y-135650000D03*
X100239000Y-127830000D03*
X102459000Y-127830000D03*
D13*
X103559000Y-129490000D03*
X103559000Y-132490000D03*
X103559000Y-133990000D03*
G04 #@! TA.AperFunction,SMDPad,CuDef*
G36*
G01*
X103900000Y-125500000D02*
X103900000Y-125800000D01*
G75*
G02*
X103750000Y-125950000I-150000J0D01*
G01*
X102575000Y-125950000D01*
G75*
G02*
X102425000Y-125800000I0J150000D01*
G01*
X102425000Y-125500000D01*
G75*
G02*
X102575000Y-125350000I150000J0D01*
G01*
X103750000Y-125350000D01*
G75*
G02*
X103900000Y-125500000I0J-150000D01*
G01*
G37*
G04 #@! TD.AperFunction*
G04 #@! TA.AperFunction,SMDPad,CuDef*
G36*
G01*
X103900000Y-123600000D02*
X103900000Y-123900000D01*
G75*
G02*
X103750000Y-124050000I-150000J0D01*
G01*
X102575000Y-124050000D01*
G75*
G02*
X102425000Y-123900000I0J150000D01*
G01*
X102425000Y-123600000D01*
G75*
G02*
X102575000Y-123450000I150000J0D01*
G01*
X103750000Y-123450000D01*
G75*
G02*
X103900000Y-123600000I0J-150000D01*
G01*
G37*
G04 #@! TD.AperFunction*
G04 #@! TA.AperFunction,SMDPad,CuDef*
G36*
G01*
X102025000Y-124550000D02*
X102025000Y-124850000D01*
G75*
G02*
X101875000Y-125000000I-150000J0D01*
G01*
X100700000Y-125000000D01*
G75*
G02*
X100550000Y-124850000I0J150000D01*
G01*
X100550000Y-124550000D01*
G75*
G02*
X100700000Y-124400000I150000J0D01*
G01*
X101875000Y-124400000D01*
G75*
G02*
X102025000Y-124550000I0J-150000D01*
G01*
G37*
G04 #@! TD.AperFunction*
G04 #@! TA.AperFunction,SMDPad,CuDef*
G36*
G01*
X116050000Y-136125000D02*
X116050000Y-135925000D01*
G75*
G02*
X116150000Y-135825000I100000J0D01*
G01*
X117425000Y-135825000D01*
G75*
G02*
X117525000Y-135925000I0J-100000D01*
G01*
X117525000Y-136125000D01*
G75*
G02*
X117425000Y-136225000I-100000J0D01*
G01*
X116150000Y-136225000D01*
G75*
G02*
X116050000Y-136125000I0J100000D01*
G01*
G37*
G04 #@! TD.AperFunction*
G04 #@! TA.AperFunction,SMDPad,CuDef*
G36*
G01*
X116050000Y-136775000D02*
X116050000Y-136575000D01*
G75*
G02*
X116150000Y-136475000I100000J0D01*
G01*
X117425000Y-136475000D01*
G75*
G02*
X117525000Y-136575000I0J-100000D01*
G01*
X117525000Y-136775000D01*
G75*
G02*
X117425000Y-136875000I-100000J0D01*
G01*
X116150000Y-136875000D01*
G75*
G02*
X116050000Y-136775000I0J100000D01*
G01*
G37*
G04 #@! TD.AperFunction*
G04 #@! TA.AperFunction,SMDPad,CuDef*
G36*
G01*
X116050000Y-137425000D02*
X116050000Y-137225000D01*
G75*
G02*
X116150000Y-137125000I100000J0D01*
G01*
X117425000Y-137125000D01*
G75*
G02*
X117525000Y-137225000I0J-100000D01*
G01*
X117525000Y-137425000D01*
G75*
G02*
X117425000Y-137525000I-100000J0D01*
G01*
X116150000Y-137525000D01*
G75*
G02*
X116050000Y-137425000I0J100000D01*
G01*
G37*
G04 #@! TD.AperFunction*
G04 #@! TA.AperFunction,SMDPad,CuDef*
G36*
G01*
X116050000Y-138075000D02*
X116050000Y-137875000D01*
G75*
G02*
X116150000Y-137775000I100000J0D01*
G01*
X117425000Y-137775000D01*
G75*
G02*
X117525000Y-137875000I0J-100000D01*
G01*
X117525000Y-138075000D01*
G75*
G02*
X117425000Y-138175000I-100000J0D01*
G01*
X116150000Y-138175000D01*
G75*
G02*
X116050000Y-138075000I0J100000D01*
G01*
G37*
G04 #@! TD.AperFunction*
G04 #@! TA.AperFunction,SMDPad,CuDef*
G36*
G01*
X121775000Y-138075000D02*
X121775000Y-137875000D01*
G75*
G02*
X121875000Y-137775000I100000J0D01*
G01*
X123150000Y-137775000D01*
G75*
G02*
X123250000Y-137875000I0J-100000D01*
G01*
X123250000Y-138075000D01*
G75*
G02*
X123150000Y-138175000I-100000J0D01*
G01*
X121875000Y-138175000D01*
G75*
G02*
X121775000Y-138075000I0J100000D01*
G01*
G37*
G04 #@! TD.AperFunction*
G04 #@! TA.AperFunction,SMDPad,CuDef*
G36*
G01*
X121775000Y-137425000D02*
X121775000Y-137225000D01*
G75*
G02*
X121875000Y-137125000I100000J0D01*
G01*
X123150000Y-137125000D01*
G75*
G02*
X123250000Y-137225000I0J-100000D01*
G01*
X123250000Y-137425000D01*
G75*
G02*
X123150000Y-137525000I-100000J0D01*
G01*
X121875000Y-137525000D01*
G75*
G02*
X121775000Y-137425000I0J100000D01*
G01*
G37*
G04 #@! TD.AperFunction*
G04 #@! TA.AperFunction,SMDPad,CuDef*
G36*
G01*
X121775000Y-136775000D02*
X121775000Y-136575000D01*
G75*
G02*
X121875000Y-136475000I100000J0D01*
G01*
X123150000Y-136475000D01*
G75*
G02*
X123250000Y-136575000I0J-100000D01*
G01*
X123250000Y-136775000D01*
G75*
G02*
X123150000Y-136875000I-100000J0D01*
G01*
X121875000Y-136875000D01*
G75*
G02*
X121775000Y-136775000I0J100000D01*
G01*
G37*
G04 #@! TD.AperFunction*
G04 #@! TA.AperFunction,SMDPad,CuDef*
G36*
G01*
X121775000Y-136125000D02*
X121775000Y-135925000D01*
G75*
G02*
X121875000Y-135825000I100000J0D01*
G01*
X123150000Y-135825000D01*
G75*
G02*
X123250000Y-135925000I0J-100000D01*
G01*
X123250000Y-136125000D01*
G75*
G02*
X123150000Y-136225000I-100000J0D01*
G01*
X121875000Y-136225000D01*
G75*
G02*
X121775000Y-136125000I0J100000D01*
G01*
G37*
G04 #@! TD.AperFunction*
D14*
X112250000Y-136400000D03*
X113200000Y-136400000D03*
X114150000Y-136400000D03*
X114150000Y-133700000D03*
X112250000Y-133700000D03*
X113200000Y-133700000D03*
D15*
X121750000Y-144755000D03*
X121750000Y-143485000D03*
X121750000Y-142215000D03*
X121750000Y-140945000D03*
X116350000Y-140945000D03*
X116350000Y-142215000D03*
X116350000Y-143485000D03*
X116350000Y-144755000D03*
D16*
X119050000Y-142850000D03*
D17*
X109160000Y-110130000D03*
X109160000Y-112130000D03*
X109160000Y-114130000D03*
X109160000Y-116130000D03*
X109160000Y-118130000D03*
X109160000Y-120130000D03*
X109160000Y-122130000D03*
X109160000Y-124130000D03*
D18*
X111760000Y-125630000D03*
X113760000Y-125630000D03*
X115760000Y-125630000D03*
X117760000Y-125630000D03*
X119760000Y-125630000D03*
X121760000Y-125630000D03*
D17*
X124360000Y-124130000D03*
X124360000Y-122130000D03*
X124360000Y-120130000D03*
X124360000Y-118130000D03*
X124360000Y-116130000D03*
X124360000Y-114130000D03*
X124360000Y-112130000D03*
X124360000Y-110130000D03*
G04 #@! TA.AperFunction,SMDPad,CuDef*
G36*
G01*
X125890002Y-144770000D02*
X124989998Y-144770000D01*
G75*
G02*
X124740000Y-144520002I0J249998D01*
G01*
X124740000Y-143994998D01*
G75*
G02*
X124989998Y-143745000I249998J0D01*
G01*
X125890002Y-143745000D01*
G75*
G02*
X126140000Y-143994998I0J-249998D01*
G01*
X126140000Y-144520002D01*
G75*
G02*
X125890002Y-144770000I-249998J0D01*
G01*
G37*
G04 #@! TD.AperFunction*
G04 #@! TA.AperFunction,SMDPad,CuDef*
G36*
G01*
X125890002Y-146595000D02*
X124989998Y-146595000D01*
G75*
G02*
X124740000Y-146345002I0J249998D01*
G01*
X124740000Y-145819998D01*
G75*
G02*
X124989998Y-145570000I249998J0D01*
G01*
X125890002Y-145570000D01*
G75*
G02*
X126140000Y-145819998I0J-249998D01*
G01*
X126140000Y-146345002D01*
G75*
G02*
X125890002Y-146595000I-249998J0D01*
G01*
G37*
G04 #@! TD.AperFunction*
G04 #@! TA.AperFunction,SMDPad,CuDef*
G36*
G01*
X114725000Y-128649998D02*
X114725000Y-129550002D01*
G75*
G02*
X114475002Y-129800000I-249998J0D01*
G01*
X113949998Y-129800000D01*
G75*
G02*
X113700000Y-129550002I0J249998D01*
G01*
X113700000Y-128649998D01*
G75*
G02*
X113949998Y-128400000I249998J0D01*
G01*
X114475002Y-128400000D01*
G75*
G02*
X114725000Y-128649998I0J-249998D01*
G01*
G37*
G04 #@! TD.AperFunction*
G04 #@! TA.AperFunction,SMDPad,CuDef*
G36*
G01*
X112900000Y-128649998D02*
X112900000Y-129550002D01*
G75*
G02*
X112650002Y-129800000I-249998J0D01*
G01*
X112124998Y-129800000D01*
G75*
G02*
X111875000Y-129550002I0J249998D01*
G01*
X111875000Y-128649998D01*
G75*
G02*
X112124998Y-128400000I249998J0D01*
G01*
X112650002Y-128400000D01*
G75*
G02*
X112900000Y-128649998I0J-249998D01*
G01*
G37*
G04 #@! TD.AperFunction*
G04 #@! TA.AperFunction,SMDPad,CuDef*
G36*
G01*
X111825000Y-131700002D02*
X111825000Y-130799998D01*
G75*
G02*
X112074998Y-130550000I249998J0D01*
G01*
X112600002Y-130550000D01*
G75*
G02*
X112850000Y-130799998I0J-249998D01*
G01*
X112850000Y-131700002D01*
G75*
G02*
X112600002Y-131950000I-249998J0D01*
G01*
X112074998Y-131950000D01*
G75*
G02*
X111825000Y-131700002I0J249998D01*
G01*
G37*
G04 #@! TD.AperFunction*
G04 #@! TA.AperFunction,SMDPad,CuDef*
G36*
G01*
X113650000Y-131700002D02*
X113650000Y-130799998D01*
G75*
G02*
X113899998Y-130550000I249998J0D01*
G01*
X114425002Y-130550000D01*
G75*
G02*
X114675000Y-130799998I0J-249998D01*
G01*
X114675000Y-131700002D01*
G75*
G02*
X114425002Y-131950000I-249998J0D01*
G01*
X113899998Y-131950000D01*
G75*
G02*
X113650000Y-131700002I0J249998D01*
G01*
G37*
G04 #@! TD.AperFunction*
G04 #@! TA.AperFunction,SMDPad,CuDef*
G36*
G01*
X107525000Y-132600002D02*
X107525000Y-131699998D01*
G75*
G02*
X107774998Y-131450000I249998J0D01*
G01*
X108300002Y-131450000D01*
G75*
G02*
X108550000Y-131699998I0J-249998D01*
G01*
X108550000Y-132600002D01*
G75*
G02*
X108300002Y-132850000I-249998J0D01*
G01*
X107774998Y-132850000D01*
G75*
G02*
X107525000Y-132600002I0J249998D01*
G01*
G37*
G04 #@! TD.AperFunction*
G04 #@! TA.AperFunction,SMDPad,CuDef*
G36*
G01*
X109350000Y-132600002D02*
X109350000Y-131699998D01*
G75*
G02*
X109599998Y-131450000I249998J0D01*
G01*
X110125002Y-131450000D01*
G75*
G02*
X110375000Y-131699998I0J-249998D01*
G01*
X110375000Y-132600002D01*
G75*
G02*
X110125002Y-132850000I-249998J0D01*
G01*
X109599998Y-132850000D01*
G75*
G02*
X109350000Y-132600002I0J249998D01*
G01*
G37*
G04 #@! TD.AperFunction*
G04 #@! TA.AperFunction,SMDPad,CuDef*
G36*
G01*
X124989998Y-140860000D02*
X125890002Y-140860000D01*
G75*
G02*
X126140000Y-141109998I0J-249998D01*
G01*
X126140000Y-141635002D01*
G75*
G02*
X125890002Y-141885000I-249998J0D01*
G01*
X124989998Y-141885000D01*
G75*
G02*
X124740000Y-141635002I0J249998D01*
G01*
X124740000Y-141109998D01*
G75*
G02*
X124989998Y-140860000I249998J0D01*
G01*
G37*
G04 #@! TD.AperFunction*
G04 #@! TA.AperFunction,SMDPad,CuDef*
G36*
G01*
X124989998Y-139035000D02*
X125890002Y-139035000D01*
G75*
G02*
X126140000Y-139284998I0J-249998D01*
G01*
X126140000Y-139810002D01*
G75*
G02*
X125890002Y-140060000I-249998J0D01*
G01*
X124989998Y-140060000D01*
G75*
G02*
X124740000Y-139810002I0J249998D01*
G01*
X124740000Y-139284998D01*
G75*
G02*
X124989998Y-139035000I249998J0D01*
G01*
G37*
G04 #@! TD.AperFunction*
G04 #@! TA.AperFunction,SMDPad,CuDef*
G36*
G01*
X107030000Y-147420002D02*
X107030000Y-146519998D01*
G75*
G02*
X107279998Y-146270000I249998J0D01*
G01*
X107805002Y-146270000D01*
G75*
G02*
X108055000Y-146519998I0J-249998D01*
G01*
X108055000Y-147420002D01*
G75*
G02*
X107805002Y-147670000I-249998J0D01*
G01*
X107279998Y-147670000D01*
G75*
G02*
X107030000Y-147420002I0J249998D01*
G01*
G37*
G04 #@! TD.AperFunction*
G04 #@! TA.AperFunction,SMDPad,CuDef*
G36*
G01*
X105205000Y-147420002D02*
X105205000Y-146519998D01*
G75*
G02*
X105454998Y-146270000I249998J0D01*
G01*
X105980002Y-146270000D01*
G75*
G02*
X106230000Y-146519998I0J-249998D01*
G01*
X106230000Y-147420002D01*
G75*
G02*
X105980002Y-147670000I-249998J0D01*
G01*
X105454998Y-147670000D01*
G75*
G02*
X105205000Y-147420002I0J249998D01*
G01*
G37*
G04 #@! TD.AperFunction*
G04 #@! TA.AperFunction,SMDPad,CuDef*
G36*
G01*
X111795000Y-146589998D02*
X111795000Y-147490002D01*
G75*
G02*
X111545002Y-147740000I-249998J0D01*
G01*
X111019998Y-147740000D01*
G75*
G02*
X110770000Y-147490002I0J249998D01*
G01*
X110770000Y-146589998D01*
G75*
G02*
X111019998Y-146340000I249998J0D01*
G01*
X111545002Y-146340000D01*
G75*
G02*
X111795000Y-146589998I0J-249998D01*
G01*
G37*
G04 #@! TD.AperFunction*
G04 #@! TA.AperFunction,SMDPad,CuDef*
G36*
G01*
X109970000Y-146589998D02*
X109970000Y-147490002D01*
G75*
G02*
X109720002Y-147740000I-249998J0D01*
G01*
X109194998Y-147740000D01*
G75*
G02*
X108945000Y-147490002I0J249998D01*
G01*
X108945000Y-146589998D01*
G75*
G02*
X109194998Y-146340000I249998J0D01*
G01*
X109720002Y-146340000D01*
G75*
G02*
X109970000Y-146589998I0J-249998D01*
G01*
G37*
G04 #@! TD.AperFunction*
G04 #@! TA.AperFunction,SMDPad,CuDef*
G36*
G01*
X122375000Y-129790002D02*
X122375000Y-128889998D01*
G75*
G02*
X122624998Y-128640000I249998J0D01*
G01*
X123150002Y-128640000D01*
G75*
G02*
X123400000Y-128889998I0J-249998D01*
G01*
X123400000Y-129790002D01*
G75*
G02*
X123150002Y-130040000I-249998J0D01*
G01*
X122624998Y-130040000D01*
G75*
G02*
X122375000Y-129790002I0J249998D01*
G01*
G37*
G04 #@! TD.AperFunction*
G04 #@! TA.AperFunction,SMDPad,CuDef*
G36*
G01*
X124200000Y-129790002D02*
X124200000Y-128889998D01*
G75*
G02*
X124449998Y-128640000I249998J0D01*
G01*
X124975002Y-128640000D01*
G75*
G02*
X125225000Y-128889998I0J-249998D01*
G01*
X125225000Y-129790002D01*
G75*
G02*
X124975002Y-130040000I-249998J0D01*
G01*
X124449998Y-130040000D01*
G75*
G02*
X124200000Y-129790002I0J249998D01*
G01*
G37*
G04 #@! TD.AperFunction*
G04 #@! TA.AperFunction,SMDPad,CuDef*
G36*
G01*
X122375000Y-132565002D02*
X122375000Y-131664998D01*
G75*
G02*
X122624998Y-131415000I249998J0D01*
G01*
X123150002Y-131415000D01*
G75*
G02*
X123400000Y-131664998I0J-249998D01*
G01*
X123400000Y-132565002D01*
G75*
G02*
X123150002Y-132815000I-249998J0D01*
G01*
X122624998Y-132815000D01*
G75*
G02*
X122375000Y-132565002I0J249998D01*
G01*
G37*
G04 #@! TD.AperFunction*
G04 #@! TA.AperFunction,SMDPad,CuDef*
G36*
G01*
X124200000Y-132565002D02*
X124200000Y-131664998D01*
G75*
G02*
X124449998Y-131415000I249998J0D01*
G01*
X124975002Y-131415000D01*
G75*
G02*
X125225000Y-131664998I0J-249998D01*
G01*
X125225000Y-132565002D01*
G75*
G02*
X124975002Y-132815000I-249998J0D01*
G01*
X124449998Y-132815000D01*
G75*
G02*
X124200000Y-132565002I0J249998D01*
G01*
G37*
G04 #@! TD.AperFunction*
G04 #@! TA.AperFunction,SMDPad,CuDef*
G36*
G01*
X100743998Y-110065000D02*
X101644002Y-110065000D01*
G75*
G02*
X101894000Y-110314998I0J-249998D01*
G01*
X101894000Y-110840002D01*
G75*
G02*
X101644002Y-111090000I-249998J0D01*
G01*
X100743998Y-111090000D01*
G75*
G02*
X100494000Y-110840002I0J249998D01*
G01*
X100494000Y-110314998D01*
G75*
G02*
X100743998Y-110065000I249998J0D01*
G01*
G37*
G04 #@! TD.AperFunction*
G04 #@! TA.AperFunction,SMDPad,CuDef*
G36*
G01*
X100743998Y-111890000D02*
X101644002Y-111890000D01*
G75*
G02*
X101894000Y-112139998I0J-249998D01*
G01*
X101894000Y-112665002D01*
G75*
G02*
X101644002Y-112915000I-249998J0D01*
G01*
X100743998Y-112915000D01*
G75*
G02*
X100494000Y-112665002I0J249998D01*
G01*
X100494000Y-112139998D01*
G75*
G02*
X100743998Y-111890000I249998J0D01*
G01*
G37*
G04 #@! TD.AperFunction*
G04 #@! TA.AperFunction,SMDPad,CuDef*
G36*
G01*
X128488000Y-111040002D02*
X128488000Y-110139998D01*
G75*
G02*
X128737998Y-109890000I249998J0D01*
G01*
X129263002Y-109890000D01*
G75*
G02*
X129513000Y-110139998I0J-249998D01*
G01*
X129513000Y-111040002D01*
G75*
G02*
X129263002Y-111290000I-249998J0D01*
G01*
X128737998Y-111290000D01*
G75*
G02*
X128488000Y-111040002I0J249998D01*
G01*
G37*
G04 #@! TD.AperFunction*
G04 #@! TA.AperFunction,SMDPad,CuDef*
G36*
G01*
X126663000Y-111040002D02*
X126663000Y-110139998D01*
G75*
G02*
X126912998Y-109890000I249998J0D01*
G01*
X127438002Y-109890000D01*
G75*
G02*
X127688000Y-110139998I0J-249998D01*
G01*
X127688000Y-111040002D01*
G75*
G02*
X127438002Y-111290000I-249998J0D01*
G01*
X126912998Y-111290000D01*
G75*
G02*
X126663000Y-111040002I0J249998D01*
G01*
G37*
G04 #@! TD.AperFunction*
G04 #@! TA.AperFunction,SMDPad,CuDef*
G36*
G01*
X124989998Y-136490000D02*
X125890002Y-136490000D01*
G75*
G02*
X126140000Y-136739998I0J-249998D01*
G01*
X126140000Y-137265002D01*
G75*
G02*
X125890002Y-137515000I-249998J0D01*
G01*
X124989998Y-137515000D01*
G75*
G02*
X124740000Y-137265002I0J249998D01*
G01*
X124740000Y-136739998D01*
G75*
G02*
X124989998Y-136490000I249998J0D01*
G01*
G37*
G04 #@! TD.AperFunction*
G04 #@! TA.AperFunction,SMDPad,CuDef*
G36*
G01*
X124989998Y-134665000D02*
X125890002Y-134665000D01*
G75*
G02*
X126140000Y-134914998I0J-249998D01*
G01*
X126140000Y-135440002D01*
G75*
G02*
X125890002Y-135690000I-249998J0D01*
G01*
X124989998Y-135690000D01*
G75*
G02*
X124740000Y-135440002I0J249998D01*
G01*
X124740000Y-134914998D01*
G75*
G02*
X124989998Y-134665000I249998J0D01*
G01*
G37*
G04 #@! TD.AperFunction*
G04 #@! TA.AperFunction,SMDPad,CuDef*
G36*
G01*
X128488000Y-113160002D02*
X128488000Y-112259998D01*
G75*
G02*
X128737998Y-112010000I249998J0D01*
G01*
X129263002Y-112010000D01*
G75*
G02*
X129513000Y-112259998I0J-249998D01*
G01*
X129513000Y-113160002D01*
G75*
G02*
X129263002Y-113410000I-249998J0D01*
G01*
X128737998Y-113410000D01*
G75*
G02*
X128488000Y-113160002I0J249998D01*
G01*
G37*
G04 #@! TD.AperFunction*
G04 #@! TA.AperFunction,SMDPad,CuDef*
G36*
G01*
X126663000Y-113160002D02*
X126663000Y-112259998D01*
G75*
G02*
X126912998Y-112010000I249998J0D01*
G01*
X127438002Y-112010000D01*
G75*
G02*
X127688000Y-112259998I0J-249998D01*
G01*
X127688000Y-113160002D01*
G75*
G02*
X127438002Y-113410000I-249998J0D01*
G01*
X126912998Y-113410000D01*
G75*
G02*
X126663000Y-113160002I0J249998D01*
G01*
G37*
G04 #@! TD.AperFunction*
G04 #@! TA.AperFunction,SMDPad,CuDef*
G36*
G01*
X102560000Y-111230002D02*
X102560000Y-110329998D01*
G75*
G02*
X102809998Y-110080000I249998J0D01*
G01*
X103335002Y-110080000D01*
G75*
G02*
X103585000Y-110329998I0J-249998D01*
G01*
X103585000Y-111230002D01*
G75*
G02*
X103335002Y-111480000I-249998J0D01*
G01*
X102809998Y-111480000D01*
G75*
G02*
X102560000Y-111230002I0J249998D01*
G01*
G37*
G04 #@! TD.AperFunction*
G04 #@! TA.AperFunction,SMDPad,CuDef*
G36*
G01*
X104385000Y-111230002D02*
X104385000Y-110329998D01*
G75*
G02*
X104634998Y-110080000I249998J0D01*
G01*
X105160002Y-110080000D01*
G75*
G02*
X105410000Y-110329998I0J-249998D01*
G01*
X105410000Y-111230002D01*
G75*
G02*
X105160002Y-111480000I-249998J0D01*
G01*
X104634998Y-111480000D01*
G75*
G02*
X104385000Y-111230002I0J249998D01*
G01*
G37*
G04 #@! TD.AperFunction*
D11*
X102180000Y-147820000D03*
D10*
X102180000Y-150360000D03*
G04 #@! TA.AperFunction,SMDPad,CuDef*
G36*
G01*
X100580000Y-143910000D02*
X103480000Y-143910000D01*
G75*
G02*
X103730000Y-144160000I0J-250000D01*
G01*
X103730000Y-145160000D01*
G75*
G02*
X103480000Y-145410000I-250000J0D01*
G01*
X100580000Y-145410000D01*
G75*
G02*
X100330000Y-145160000I0J250000D01*
G01*
X100330000Y-144160000D01*
G75*
G02*
X100580000Y-143910000I250000J0D01*
G01*
G37*
G04 #@! TD.AperFunction*
G04 #@! TA.AperFunction,SMDPad,CuDef*
G36*
G01*
X100580000Y-137210000D02*
X103480000Y-137210000D01*
G75*
G02*
X103730000Y-137460000I0J-250000D01*
G01*
X103730000Y-138460000D01*
G75*
G02*
X103480000Y-138710000I-250000J0D01*
G01*
X100580000Y-138710000D01*
G75*
G02*
X100330000Y-138460000I0J250000D01*
G01*
X100330000Y-137460000D01*
G75*
G02*
X100580000Y-137210000I250000J0D01*
G01*
G37*
G04 #@! TD.AperFunction*
G04 #@! TA.AperFunction,SMDPad,CuDef*
G36*
G01*
X106280000Y-141810000D02*
X109280000Y-141810000D01*
G75*
G02*
X109530000Y-142060000I0J-250000D01*
G01*
X109530000Y-142560000D01*
G75*
G02*
X109280000Y-142810000I-250000J0D01*
G01*
X106280000Y-142810000D01*
G75*
G02*
X106030000Y-142560000I0J250000D01*
G01*
X106030000Y-142060000D01*
G75*
G02*
X106280000Y-141810000I250000J0D01*
G01*
G37*
G04 #@! TD.AperFunction*
G04 #@! TA.AperFunction,SMDPad,CuDef*
G36*
G01*
X106280000Y-139810000D02*
X109280000Y-139810000D01*
G75*
G02*
X109530000Y-140060000I0J-250000D01*
G01*
X109530000Y-140560000D01*
G75*
G02*
X109280000Y-140810000I-250000J0D01*
G01*
X106280000Y-140810000D01*
G75*
G02*
X106030000Y-140560000I0J250000D01*
G01*
X106030000Y-140060000D01*
G75*
G02*
X106280000Y-139810000I250000J0D01*
G01*
G37*
G04 #@! TD.AperFunction*
D19*
X121510000Y-151020000D03*
X114510000Y-151020000D03*
D20*
X120910000Y-151020000D03*
X115110000Y-151020000D03*
D21*
X119010000Y-151020000D03*
X117010000Y-151020000D03*
D22*
X120510000Y-148320000D03*
X115510000Y-148320000D03*
D23*
X119310000Y-148320000D03*
X118660000Y-148320000D03*
X118010000Y-148320000D03*
X117360000Y-148320000D03*
X116710000Y-148320000D03*
D10*
X126120000Y-150260000D03*
D11*
X128660000Y-150260000D03*
X129030000Y-118420000D03*
D10*
X129030000Y-115880000D03*
D11*
X129030000Y-123520000D03*
D10*
X129030000Y-126060000D03*
G04 #@! TA.AperFunction,SMDPad,CuDef*
G36*
G01*
X107248000Y-151446250D02*
X107248000Y-150533750D01*
G75*
G02*
X107491750Y-150290000I243750J0D01*
G01*
X107979250Y-150290000D01*
G75*
G02*
X108223000Y-150533750I0J-243750D01*
G01*
X108223000Y-151446250D01*
G75*
G02*
X107979250Y-151690000I-243750J0D01*
G01*
X107491750Y-151690000D01*
G75*
G02*
X107248000Y-151446250I0J243750D01*
G01*
G37*
G04 #@! TD.AperFunction*
G04 #@! TA.AperFunction,SMDPad,CuDef*
G36*
G01*
X105373000Y-151446250D02*
X105373000Y-150533750D01*
G75*
G02*
X105616750Y-150290000I243750J0D01*
G01*
X106104250Y-150290000D01*
G75*
G02*
X106348000Y-150533750I0J-243750D01*
G01*
X106348000Y-151446250D01*
G75*
G02*
X106104250Y-151690000I-243750J0D01*
G01*
X105616750Y-151690000D01*
G75*
G02*
X105373000Y-151446250I0J243750D01*
G01*
G37*
G04 #@! TD.AperFunction*
G04 #@! TA.AperFunction,SMDPad,CuDef*
G36*
G01*
X109155000Y-151416250D02*
X109155000Y-150503750D01*
G75*
G02*
X109398750Y-150260000I243750J0D01*
G01*
X109886250Y-150260000D01*
G75*
G02*
X110130000Y-150503750I0J-243750D01*
G01*
X110130000Y-151416250D01*
G75*
G02*
X109886250Y-151660000I-243750J0D01*
G01*
X109398750Y-151660000D01*
G75*
G02*
X109155000Y-151416250I0J243750D01*
G01*
G37*
G04 #@! TD.AperFunction*
G04 #@! TA.AperFunction,SMDPad,CuDef*
G36*
G01*
X111030000Y-151416250D02*
X111030000Y-150503750D01*
G75*
G02*
X111273750Y-150260000I243750J0D01*
G01*
X111761250Y-150260000D01*
G75*
G02*
X112005000Y-150503750I0J-243750D01*
G01*
X112005000Y-151416250D01*
G75*
G02*
X111761250Y-151660000I-243750J0D01*
G01*
X111273750Y-151660000D01*
G75*
G02*
X111030000Y-151416250I0J243750D01*
G01*
G37*
G04 #@! TD.AperFunction*
D24*
X105115000Y-112950000D03*
X105115000Y-116250000D03*
D25*
X117030000Y-132315000D03*
X120330000Y-132315000D03*
X117030000Y-129140000D03*
X120330000Y-129140000D03*
G04 #@! TA.AperFunction,SMDPad,CuDef*
G36*
G01*
X104950000Y-123250000D02*
X105900000Y-123250000D01*
G75*
G02*
X106150000Y-123500000I0J-250000D01*
G01*
X106150000Y-124000000D01*
G75*
G02*
X105900000Y-124250000I-250000J0D01*
G01*
X104950000Y-124250000D01*
G75*
G02*
X104700000Y-124000000I0J250000D01*
G01*
X104700000Y-123500000D01*
G75*
G02*
X104950000Y-123250000I250000J0D01*
G01*
G37*
G04 #@! TD.AperFunction*
G04 #@! TA.AperFunction,SMDPad,CuDef*
G36*
G01*
X104950000Y-125150000D02*
X105900000Y-125150000D01*
G75*
G02*
X106150000Y-125400000I0J-250000D01*
G01*
X106150000Y-125900000D01*
G75*
G02*
X105900000Y-126150000I-250000J0D01*
G01*
X104950000Y-126150000D01*
G75*
G02*
X104700000Y-125900000I0J250000D01*
G01*
X104700000Y-125400000D01*
G75*
G02*
X104950000Y-125150000I250000J0D01*
G01*
G37*
G04 #@! TD.AperFunction*
G04 #@! TA.AperFunction,SMDPad,CuDef*
G36*
G01*
X107500000Y-129605000D02*
X107500000Y-128655000D01*
G75*
G02*
X107750000Y-128405000I250000J0D01*
G01*
X108250000Y-128405000D01*
G75*
G02*
X108500000Y-128655000I0J-250000D01*
G01*
X108500000Y-129605000D01*
G75*
G02*
X108250000Y-129855000I-250000J0D01*
G01*
X107750000Y-129855000D01*
G75*
G02*
X107500000Y-129605000I0J250000D01*
G01*
G37*
G04 #@! TD.AperFunction*
G04 #@! TA.AperFunction,SMDPad,CuDef*
G36*
G01*
X109400000Y-129605000D02*
X109400000Y-128655000D01*
G75*
G02*
X109650000Y-128405000I250000J0D01*
G01*
X110150000Y-128405000D01*
G75*
G02*
X110400000Y-128655000I0J-250000D01*
G01*
X110400000Y-129605000D01*
G75*
G02*
X110150000Y-129855000I-250000J0D01*
G01*
X109650000Y-129855000D01*
G75*
G02*
X109400000Y-129605000I0J250000D01*
G01*
G37*
G04 #@! TD.AperFunction*
G04 #@! TA.AperFunction,SMDPad,CuDef*
G36*
G01*
X110400000Y-135005000D02*
X110400000Y-135955000D01*
G75*
G02*
X110150000Y-136205000I-250000J0D01*
G01*
X109650000Y-136205000D01*
G75*
G02*
X109400000Y-135955000I0J250000D01*
G01*
X109400000Y-135005000D01*
G75*
G02*
X109650000Y-134755000I250000J0D01*
G01*
X110150000Y-134755000D01*
G75*
G02*
X110400000Y-135005000I0J-250000D01*
G01*
G37*
G04 #@! TD.AperFunction*
G04 #@! TA.AperFunction,SMDPad,CuDef*
G36*
G01*
X108500000Y-135005000D02*
X108500000Y-135955000D01*
G75*
G02*
X108250000Y-136205000I-250000J0D01*
G01*
X107750000Y-136205000D01*
G75*
G02*
X107500000Y-135955000I0J250000D01*
G01*
X107500000Y-135005000D01*
G75*
G02*
X107750000Y-134755000I250000J0D01*
G01*
X108250000Y-134755000D01*
G75*
G02*
X108500000Y-135005000I0J-250000D01*
G01*
G37*
G04 #@! TD.AperFunction*
G04 #@! TA.AperFunction,SMDPad,CuDef*
G36*
G01*
X111390000Y-140715000D02*
X111390000Y-139765000D01*
G75*
G02*
X111640000Y-139515000I250000J0D01*
G01*
X112140000Y-139515000D01*
G75*
G02*
X112390000Y-139765000I0J-250000D01*
G01*
X112390000Y-140715000D01*
G75*
G02*
X112140000Y-140965000I-250000J0D01*
G01*
X111640000Y-140965000D01*
G75*
G02*
X111390000Y-140715000I0J250000D01*
G01*
G37*
G04 #@! TD.AperFunction*
G04 #@! TA.AperFunction,SMDPad,CuDef*
G36*
G01*
X113290000Y-140715000D02*
X113290000Y-139765000D01*
G75*
G02*
X113540000Y-139515000I250000J0D01*
G01*
X114040000Y-139515000D01*
G75*
G02*
X114290000Y-139765000I0J-250000D01*
G01*
X114290000Y-140715000D01*
G75*
G02*
X114040000Y-140965000I-250000J0D01*
G01*
X113540000Y-140965000D01*
G75*
G02*
X113290000Y-140715000I0J250000D01*
G01*
G37*
G04 #@! TD.AperFunction*
G04 #@! TA.AperFunction,SMDPad,CuDef*
G36*
G01*
X111390000Y-143265000D02*
X111390000Y-142315000D01*
G75*
G02*
X111640000Y-142065000I250000J0D01*
G01*
X112140000Y-142065000D01*
G75*
G02*
X112390000Y-142315000I0J-250000D01*
G01*
X112390000Y-143265000D01*
G75*
G02*
X112140000Y-143515000I-250000J0D01*
G01*
X111640000Y-143515000D01*
G75*
G02*
X111390000Y-143265000I0J250000D01*
G01*
G37*
G04 #@! TD.AperFunction*
G04 #@! TA.AperFunction,SMDPad,CuDef*
G36*
G01*
X113290000Y-143265000D02*
X113290000Y-142315000D01*
G75*
G02*
X113540000Y-142065000I250000J0D01*
G01*
X114040000Y-142065000D01*
G75*
G02*
X114290000Y-142315000I0J-250000D01*
G01*
X114290000Y-143265000D01*
G75*
G02*
X114040000Y-143515000I-250000J0D01*
G01*
X113540000Y-143515000D01*
G75*
G02*
X113290000Y-143265000I0J250000D01*
G01*
G37*
G04 #@! TD.AperFunction*
G04 #@! TA.AperFunction,SMDPad,CuDef*
G36*
G01*
X106869000Y-120155000D02*
X106869000Y-121105000D01*
G75*
G02*
X106619000Y-121355000I-250000J0D01*
G01*
X106119000Y-121355000D01*
G75*
G02*
X105869000Y-121105000I0J250000D01*
G01*
X105869000Y-120155000D01*
G75*
G02*
X106119000Y-119905000I250000J0D01*
G01*
X106619000Y-119905000D01*
G75*
G02*
X106869000Y-120155000I0J-250000D01*
G01*
G37*
G04 #@! TD.AperFunction*
G04 #@! TA.AperFunction,SMDPad,CuDef*
G36*
G01*
X104969000Y-120155000D02*
X104969000Y-121105000D01*
G75*
G02*
X104719000Y-121355000I-250000J0D01*
G01*
X104219000Y-121355000D01*
G75*
G02*
X103969000Y-121105000I0J250000D01*
G01*
X103969000Y-120155000D01*
G75*
G02*
X104219000Y-119905000I250000J0D01*
G01*
X104719000Y-119905000D01*
G75*
G02*
X104969000Y-120155000I0J-250000D01*
G01*
G37*
G04 #@! TD.AperFunction*
G04 #@! TA.AperFunction,SMDPad,CuDef*
G36*
G01*
X106869000Y-117900000D02*
X106869000Y-118850000D01*
G75*
G02*
X106619000Y-119100000I-250000J0D01*
G01*
X106119000Y-119100000D01*
G75*
G02*
X105869000Y-118850000I0J250000D01*
G01*
X105869000Y-117900000D01*
G75*
G02*
X106119000Y-117650000I250000J0D01*
G01*
X106619000Y-117650000D01*
G75*
G02*
X106869000Y-117900000I0J-250000D01*
G01*
G37*
G04 #@! TD.AperFunction*
G04 #@! TA.AperFunction,SMDPad,CuDef*
G36*
G01*
X104969000Y-117900000D02*
X104969000Y-118850000D01*
G75*
G02*
X104719000Y-119100000I-250000J0D01*
G01*
X104219000Y-119100000D01*
G75*
G02*
X103969000Y-118850000I0J250000D01*
G01*
X103969000Y-117900000D01*
G75*
G02*
X104219000Y-117650000I250000J0D01*
G01*
X104719000Y-117650000D01*
G75*
G02*
X104969000Y-117900000I0J-250000D01*
G01*
G37*
G04 #@! TD.AperFunction*
D26*
X115672000Y-133172000D03*
X122785000Y-127380000D03*
X111039000Y-119763000D03*
X121464000Y-130121000D03*
X111020000Y-121922000D03*
X106705000Y-112573000D03*
X130205000Y-127532000D03*
X116713000Y-127483000D03*
X101553000Y-114002700D03*
X114369000Y-144490000D03*
X119278000Y-146952000D03*
X110342000Y-126134000D03*
X105871000Y-122300000D03*
X102796000Y-121747800D03*
X111015000Y-123496000D03*
X123546000Y-140411000D03*
X109068000Y-138125000D03*
X110947000Y-133756000D03*
X118127000Y-137451000D03*
X111658000Y-144704000D03*
X114997000Y-143339000D03*
X119939000Y-134620000D03*
X118923000Y-134010000D03*
X110617000Y-142951000D03*
X114989000Y-141904000D03*
X103848780Y-130899820D03*
X106958780Y-130899820D03*
D27*
X101194000Y-110577000D02*
X101194000Y-110577500D01*
X105115000Y-112950000D02*
X105115000Y-112175000D01*
X105115000Y-112175000D02*
X104727000Y-112175000D01*
X104727000Y-112175000D02*
X103985000Y-111432000D01*
X103985000Y-111432000D02*
X103985000Y-110096000D01*
X103985000Y-110096000D02*
X103642000Y-109752000D01*
X103642000Y-109752000D02*
X103631000Y-109752000D01*
X103631000Y-109752000D02*
X103394000Y-109515000D01*
X103394000Y-109515000D02*
X101844000Y-109515000D01*
X101844000Y-109515000D02*
X101194000Y-110165000D01*
X101194000Y-110165000D02*
X101194000Y-110577000D01*
X117030000Y-132315000D02*
X116529000Y-132315000D01*
X116529000Y-132315000D02*
X115672000Y-133172000D01*
X117030000Y-132315000D02*
X117030000Y-129140000D01*
X109160000Y-114130000D02*
X107849000Y-114130000D01*
X107849000Y-114130000D02*
X107566000Y-113847000D01*
X117030000Y-129140000D02*
X116255000Y-129140000D01*
X116255000Y-129140000D02*
X114935000Y-127820000D01*
X114935000Y-127820000D02*
X114935000Y-115687000D01*
X114935000Y-115687000D02*
X110544000Y-111296000D01*
X110544000Y-111296000D02*
X107725000Y-111296000D01*
X107725000Y-111296000D02*
X107566000Y-111455000D01*
X107566000Y-111455000D02*
X107566000Y-113847000D01*
X105115000Y-112950000D02*
X105115000Y-113725000D01*
X105115000Y-113725000D02*
X105614000Y-114224000D01*
X105614000Y-114224000D02*
X107190000Y-114224000D01*
X107190000Y-114224000D02*
X107566000Y-113847000D01*
X122887500Y-129339500D02*
X122887500Y-129340000D01*
X122887500Y-129339500D02*
X122785000Y-129237000D01*
X122785000Y-129237000D02*
X122785000Y-129140000D01*
X122888000Y-129340000D02*
X122887500Y-129339500D01*
X120330000Y-129140000D02*
X122785000Y-129140000D01*
X122785000Y-129140000D02*
X122785000Y-127380000D01*
X109160000Y-120130000D02*
X110735000Y-120130000D01*
X110735000Y-120130000D02*
X110735000Y-120067000D01*
X110735000Y-120067000D02*
X111039000Y-119763000D01*
X122887500Y-132115000D02*
X121464000Y-132115000D01*
X122888000Y-132115000D02*
X122887500Y-132115000D01*
X121464000Y-132115000D02*
X121464000Y-130121000D01*
X121464000Y-132115000D02*
X121305000Y-132115000D01*
X121305000Y-132115000D02*
X121105000Y-132315000D01*
X121105000Y-132315000D02*
X120330000Y-132315000D01*
X109160000Y-122130000D02*
X110735000Y-122130000D01*
X110735000Y-122130000D02*
X110943000Y-121922000D01*
X110943000Y-121922000D02*
X111020000Y-121922000D01*
X105115000Y-116250000D02*
X105115000Y-117025000D01*
X105115000Y-117025000D02*
X107029000Y-117025000D01*
X107029000Y-117025000D02*
X107369000Y-117365000D01*
X107369000Y-117365000D02*
X107369000Y-117965000D01*
X107369000Y-117965000D02*
X107534000Y-118130000D01*
X107534000Y-118130000D02*
X109160000Y-118130000D01*
X126718500Y-111047000D02*
X127176000Y-110590000D01*
X124360000Y-120130000D02*
X122694000Y-120130000D01*
X122694000Y-120130000D02*
X122555000Y-119991000D01*
X122555000Y-119991000D02*
X122555000Y-117712000D01*
X122555000Y-117712000D02*
X123311000Y-116955000D01*
X123311000Y-116955000D02*
X125753000Y-116955000D01*
X125753000Y-116955000D02*
X126261000Y-116447000D01*
X126261000Y-116447000D02*
X126261000Y-111504000D01*
X126261000Y-111504000D02*
X126718500Y-111047000D01*
X126718500Y-111047000D02*
X127175500Y-110590000D01*
X104898000Y-110780000D02*
X104897500Y-110780000D01*
X104898000Y-110780000D02*
X105903000Y-110780000D01*
X105903000Y-110780000D02*
X106705000Y-111582000D01*
X109160000Y-110130000D02*
X107345000Y-110130000D01*
X107345000Y-110130000D02*
X107036000Y-110439000D01*
X107036000Y-110439000D02*
X107036000Y-111252000D01*
X107036000Y-111252000D02*
X106705000Y-111582000D01*
X106705000Y-111582000D02*
X106705000Y-112573000D01*
X129035000Y-138386000D02*
X129032000Y-138389000D01*
X129032000Y-138389000D02*
X129032000Y-138798000D01*
X129035000Y-138386000D02*
X129035000Y-137982000D01*
X129035000Y-137982000D02*
X130210000Y-136807000D01*
X130210000Y-136807000D02*
X130210000Y-129731000D01*
X130210000Y-129731000D02*
X127482000Y-127003000D01*
X127482000Y-127003000D02*
X127482000Y-119677000D01*
X127482000Y-119677000D02*
X125935000Y-118130000D01*
X129035000Y-138790000D02*
X129035000Y-138386000D01*
X127175500Y-112710500D02*
X127175500Y-112710000D01*
X127175500Y-112710500D02*
X126781000Y-113105000D01*
X126781000Y-113105000D02*
X126781000Y-117284000D01*
X126781000Y-117284000D02*
X125935000Y-118130000D01*
X127176000Y-112710000D02*
X127175500Y-112710500D01*
X124360000Y-118130000D02*
X125935000Y-118130000D01*
X124360000Y-112130000D02*
X124629000Y-112130000D01*
X124629000Y-112130000D02*
X125977000Y-110782000D01*
X125977000Y-110782000D02*
X125977000Y-110249000D01*
X125977000Y-110249000D02*
X126679000Y-109547000D01*
X126679000Y-109547000D02*
X129539000Y-109547000D01*
X129539000Y-109547000D02*
X130205000Y-110214000D01*
X130205000Y-110214000D02*
X130205000Y-127532000D01*
X116713000Y-127483000D02*
X116713000Y-116202000D01*
X116713000Y-116202000D02*
X122785000Y-110130000D01*
X122785000Y-110130000D02*
X124360000Y-110130000D01*
D28*
X129032000Y-131170000D02*
X127660000Y-131170000D01*
X127660000Y-131170000D02*
X126715000Y-132115000D01*
X126715000Y-132115000D02*
X126666000Y-132115000D01*
X129035000Y-131170000D02*
X129032000Y-131170000D01*
X129032000Y-131178000D02*
X129032000Y-131170000D01*
D29*
X122659000Y-137178500D02*
X122512000Y-137325000D01*
X122806000Y-137032000D02*
X122659000Y-137178500D01*
X122659000Y-137178500D02*
X122512500Y-137325000D01*
X122659000Y-136821500D02*
X122512000Y-136675000D01*
X122806000Y-136968000D02*
X122659000Y-136821500D01*
X122659000Y-136821500D02*
X122512500Y-136675000D01*
D28*
X125439500Y-146082000D02*
X125440000Y-146082500D01*
X125439500Y-146082000D02*
X124353000Y-146082000D01*
X124353000Y-146082000D02*
X123025000Y-144755000D01*
X123025000Y-144755000D02*
X121750000Y-144755000D01*
X126241000Y-146082000D02*
X125439500Y-146082000D01*
X125439500Y-141372000D02*
X125440000Y-141372500D01*
X125439500Y-141372000D02*
X125440000Y-141372000D01*
X121750000Y-142215000D02*
X123025000Y-142215000D01*
X123025000Y-142215000D02*
X123868000Y-141372000D01*
X123868000Y-141372000D02*
X125439500Y-141372000D01*
X124712000Y-129340000D02*
X124712000Y-132115000D01*
X124712000Y-132115000D02*
X124712500Y-132115000D01*
X124360000Y-124130000D02*
X125375000Y-124130000D01*
X125375000Y-124130000D02*
X126135000Y-124891000D01*
X126135000Y-124891000D02*
X126135000Y-127917000D01*
X126135000Y-127917000D02*
X124712000Y-129340000D01*
X124712500Y-129340000D02*
X124712000Y-129340000D01*
D30*
X119310000Y-148320000D02*
X119310000Y-147244800D01*
D28*
X119385000Y-147119600D02*
X119385000Y-147881000D01*
X119278000Y-146952000D02*
X119385000Y-147058000D01*
X119385000Y-147058000D02*
X119385000Y-147119600D01*
X119372500Y-147119600D02*
X119385000Y-147119600D01*
D30*
X119372500Y-147119600D02*
X119372500Y-147182300D01*
X119372500Y-147182300D02*
X119310000Y-147244800D01*
D28*
X112387500Y-129099500D02*
X112387500Y-129100000D01*
X112387500Y-129099500D02*
X112388000Y-129100000D01*
X110342000Y-128909000D02*
X112197000Y-128909000D01*
X112197000Y-128909000D02*
X112387500Y-129099500D01*
X125439500Y-137002000D02*
X125440000Y-137002500D01*
X125439500Y-137002000D02*
X122835000Y-137002000D01*
X125440000Y-137002000D02*
X125439500Y-137002000D01*
X122835000Y-137002000D02*
X122806000Y-137032000D01*
X103162500Y-125650000D02*
X105425000Y-125650000D01*
X103162000Y-125650000D02*
X103162500Y-125650000D01*
X124712500Y-132115000D02*
X126666000Y-132115000D01*
X104469000Y-120630000D02*
X103279000Y-120630000D01*
X103279000Y-120630000D02*
X103189000Y-120720000D01*
X103189000Y-120720000D02*
X101669000Y-120720000D01*
X104469000Y-118375000D02*
X104469000Y-120630000D01*
X104469000Y-120630000D02*
X104469000Y-121715000D01*
X104469000Y-121715000D02*
X105054000Y-122300000D01*
X105054000Y-122300000D02*
X105871000Y-122300000D01*
X113790000Y-142790000D02*
X113790000Y-143911000D01*
X113790000Y-143911000D02*
X114369000Y-144490000D01*
X109900000Y-129130000D02*
X110121000Y-128909000D01*
X110121000Y-128909000D02*
X110342000Y-128909000D01*
X128660000Y-150260000D02*
X128660000Y-148885000D01*
X128660000Y-148885000D02*
X126241000Y-146466000D01*
X126241000Y-146466000D02*
X126241000Y-146082000D01*
X126241000Y-146082000D02*
X126696000Y-145628000D01*
X126696000Y-145628000D02*
X126696000Y-142628000D01*
X126696000Y-142628000D02*
X125440000Y-141372000D01*
X126666000Y-132115000D02*
X126666000Y-135776000D01*
X126666000Y-135776000D02*
X125440000Y-137002000D01*
X125440000Y-141372000D02*
X126666000Y-140146000D01*
X126666000Y-140146000D02*
X126666000Y-138229000D01*
X126666000Y-138229000D02*
X125440000Y-137002000D01*
X110342000Y-128909000D02*
X110342000Y-126134000D01*
X110342000Y-126134000D02*
X105909000Y-126134000D01*
X105909000Y-126134000D02*
X105425000Y-125650000D01*
X122835000Y-137002000D02*
X122806000Y-136973000D01*
X122806000Y-136973000D02*
X122806000Y-136968000D01*
X113790000Y-142790000D02*
X113790000Y-140240000D01*
X101553000Y-114002700D02*
X101481660Y-114002700D01*
X101194000Y-113715040D02*
X101194000Y-112402500D01*
X101481660Y-114002700D02*
X101194000Y-113715040D01*
X103162300Y-123750000D02*
X102796000Y-123383700D01*
X102796000Y-123383700D02*
X102796000Y-121747800D01*
X103162300Y-123750000D02*
X103162000Y-123750000D01*
X103162500Y-123750000D02*
X103162300Y-123750000D01*
X129000500Y-110590000D02*
X129000000Y-110590000D01*
X129000000Y-112710000D02*
X129000000Y-110590000D01*
X129030000Y-118420000D02*
X127652000Y-117042000D01*
X127652000Y-117042000D02*
X127652000Y-114059000D01*
X127652000Y-114059000D02*
X129000000Y-112710000D01*
X129000500Y-112710000D02*
X129000000Y-112710000D01*
X103072000Y-112758000D02*
X103072500Y-112757500D01*
X103072500Y-112757500D02*
X103072500Y-110780000D01*
X103072000Y-112758000D02*
X103072000Y-110780000D01*
X101669000Y-115640000D02*
X102169000Y-115640000D01*
X102169000Y-115640000D02*
X103072000Y-114736000D01*
X103072000Y-114736000D02*
X103072000Y-112758000D01*
X105425000Y-123750000D02*
X103162500Y-123750000D01*
X106369000Y-118425000D02*
X106369000Y-118375000D01*
X106369000Y-120630000D02*
X106369000Y-118425000D01*
X106369000Y-118425000D02*
X106319000Y-118375000D01*
X106812000Y-123750000D02*
X106812000Y-121890000D01*
X106812000Y-121890000D02*
X106796000Y-121890000D01*
X106796000Y-121890000D02*
X106369000Y-121463000D01*
X106369000Y-121463000D02*
X106369000Y-120630000D01*
X109160000Y-124130000D02*
X110935000Y-124130000D01*
X110935000Y-124130000D02*
X110935000Y-123577000D01*
X110935000Y-123577000D02*
X111015000Y-123496000D01*
X129030000Y-123520000D02*
X129030000Y-118420000D01*
X109160000Y-124130000D02*
X107192000Y-124130000D01*
X107192000Y-124130000D02*
X106812000Y-123750000D01*
X105425000Y-123750000D02*
X106812000Y-123750000D01*
X108385000Y-150341000D02*
X108384500Y-150341000D01*
X108384500Y-150341000D02*
X107735500Y-150990000D01*
X108385000Y-150341000D02*
X109034000Y-149692000D01*
X109034000Y-149692000D02*
X110249000Y-149692000D01*
X107736000Y-150990000D02*
X108385000Y-150341000D01*
X110954000Y-150396500D02*
X111518000Y-150960000D01*
X110249000Y-149692000D02*
X110390000Y-149833000D01*
X110390000Y-149833000D02*
X110954000Y-150396500D01*
X110954000Y-150396500D02*
X111517500Y-150960000D01*
X111890000Y-143124000D02*
X111890000Y-142790000D01*
X116179000Y-144755000D02*
X116052000Y-144755000D01*
X116052000Y-144755000D02*
X115382000Y-145426000D01*
X115382000Y-145426000D02*
X113701000Y-145426000D01*
X113701000Y-145426000D02*
X112878000Y-144602000D01*
X112878000Y-144602000D02*
X112878000Y-144348000D01*
X112878000Y-144348000D02*
X111890000Y-143361000D01*
X111890000Y-143361000D02*
X111890000Y-143124000D01*
X116179000Y-144755000D02*
X115976000Y-144755000D01*
X116350000Y-144755000D02*
X116179000Y-144755000D01*
X116350000Y-144755000D02*
X116179000Y-144755000D01*
X116710000Y-145300300D02*
X117401000Y-145992000D01*
X117401000Y-145992000D02*
X120371000Y-145992000D01*
X120371000Y-145992000D02*
X122629000Y-148250000D01*
X122629000Y-148250000D02*
X124110000Y-148250000D01*
X124110000Y-148250000D02*
X126120000Y-150260000D01*
X116350000Y-144940000D02*
X116710000Y-145300300D01*
X116710000Y-145300300D02*
X116710000Y-147120000D01*
X116350000Y-144940000D02*
X116350000Y-144755000D01*
X116350000Y-144755000D02*
X116350000Y-144940000D01*
X123546000Y-140411000D02*
X123012000Y-140945000D01*
X123012000Y-140945000D02*
X121750000Y-140945000D01*
X110249000Y-149692000D02*
X110440000Y-149692000D01*
X110440000Y-149692000D02*
X111439000Y-148692000D01*
X111439000Y-148692000D02*
X113030000Y-148692000D01*
X113030000Y-148692000D02*
X116350000Y-145372000D01*
X116350000Y-145372000D02*
X116350000Y-144940000D01*
X116179000Y-144755000D02*
X116350000Y-144755000D01*
X111890000Y-142790000D02*
X111890000Y-143124000D01*
X116350000Y-144755000D02*
X116705000Y-144755000D01*
X116705000Y-144755000D02*
X116710000Y-144760000D01*
X116710000Y-144760000D02*
X116710000Y-145300300D01*
D30*
X116710000Y-147120000D02*
X116710000Y-148320000D01*
D28*
X108037800Y-132150200D02*
X109298000Y-130890000D01*
X109298000Y-130890000D02*
X111977000Y-130890000D01*
X111977000Y-130890000D02*
X112157500Y-131070000D01*
X103359000Y-133990000D02*
X106198000Y-133990000D01*
X106198000Y-133990000D02*
X108037800Y-132150200D01*
X108037500Y-132150000D02*
X108037600Y-132150000D01*
X108037600Y-132150000D02*
X108037800Y-132150200D01*
X112157500Y-131070000D02*
X112338000Y-131250000D01*
X112157500Y-131070000D02*
X112337500Y-131250000D01*
X106857000Y-142310000D02*
X105999000Y-142310000D01*
X105999000Y-142310000D02*
X105079000Y-141390000D01*
X105079000Y-141390000D02*
X105079000Y-135710000D01*
X105079000Y-135710000D02*
X103359000Y-133990000D01*
X107780000Y-142310000D02*
X106857000Y-142310000D01*
X116350000Y-140945000D02*
X115520000Y-140945000D01*
X115520000Y-140945000D02*
X115075000Y-140500000D01*
X115075000Y-140500000D02*
X115075000Y-139670000D01*
X115075000Y-139670000D02*
X114375000Y-138970000D01*
X114375000Y-138970000D02*
X113160000Y-138970000D01*
X113160000Y-138970000D02*
X111890000Y-140240000D01*
X102180000Y-150360000D02*
X104139000Y-148401000D01*
X104139000Y-148401000D02*
X104139000Y-146735000D01*
X104139000Y-146735000D02*
X106857000Y-144017000D01*
X106857000Y-144017000D02*
X106857000Y-142310000D01*
X107780000Y-142310000D02*
X106857000Y-142310000D01*
X107780000Y-142310000D02*
X109820000Y-142310000D01*
X109820000Y-142310000D02*
X111890000Y-140240000D01*
D29*
X116934000Y-136821500D02*
X116787500Y-136675000D01*
X116934500Y-136821500D02*
X116788000Y-136675000D01*
X117081000Y-136968000D02*
X116934500Y-136821500D01*
D28*
X116934500Y-136821500D02*
X116934000Y-136821500D01*
D29*
X116825500Y-137287000D02*
X116787500Y-137325000D01*
X116825500Y-137287000D02*
X116788000Y-137325000D01*
X116863000Y-137249000D02*
X116825500Y-137287000D01*
D28*
X110947000Y-133756000D02*
X112194000Y-133756000D01*
X112194000Y-133756000D02*
X112250000Y-133700000D01*
X107780000Y-140310000D02*
X107780000Y-139412000D01*
X107780000Y-139412000D02*
X109068000Y-138125000D01*
X108000000Y-135480000D02*
X108000000Y-137057000D01*
X108000000Y-137057000D02*
X109068000Y-138125000D01*
X117081000Y-137249000D02*
X116863000Y-137249000D01*
X117081000Y-137249000D02*
X117081000Y-136968000D01*
X118127000Y-137451000D02*
X117925000Y-137249000D01*
X117925000Y-137249000D02*
X117081000Y-137249000D01*
X108000000Y-140090000D02*
X107780000Y-140310000D01*
X109862500Y-132150500D02*
X109862500Y-132150000D01*
X109900000Y-135005000D02*
X109900000Y-132188000D01*
X109900000Y-132188000D02*
X109862500Y-132150500D01*
X109862500Y-132150500D02*
X109862000Y-132150000D01*
X109900000Y-135480000D02*
X109900000Y-135005000D01*
X113200000Y-133700000D02*
X113200000Y-135005000D01*
X113200000Y-135005000D02*
X109900000Y-135005000D01*
D27*
X111282500Y-147040000D02*
X111282000Y-147040000D01*
X111282000Y-147040000D02*
X109610000Y-148713000D01*
X109610000Y-148713000D02*
X108472000Y-148713000D01*
X108472000Y-148713000D02*
X106890000Y-150295000D01*
X106890000Y-150295000D02*
X106890000Y-151662000D01*
X106890000Y-151662000D02*
X107249000Y-152021000D01*
X107249000Y-152021000D02*
X108581000Y-152021000D01*
X108581000Y-152021000D02*
X109111500Y-151490500D01*
X109111500Y-151490500D02*
X109112000Y-151490500D01*
X109112000Y-151490500D02*
X109642500Y-150960000D01*
X109111500Y-151490500D02*
X109642000Y-150960000D01*
X105789000Y-147041500D02*
X105718000Y-146970000D01*
X105860000Y-149135600D02*
X105860000Y-147113000D01*
X105860000Y-147113000D02*
X105789000Y-147041500D01*
X105789000Y-147041500D02*
X105717500Y-146970000D01*
X105860000Y-149135600D02*
X105860500Y-149136100D01*
X105860500Y-149136100D02*
X105860500Y-150990000D01*
X105860000Y-150990000D02*
X105860000Y-149135600D01*
X115510000Y-151020000D02*
X115510000Y-148320000D01*
X117010000Y-151020000D02*
X115510000Y-151020000D01*
X121510000Y-151020000D02*
X120910000Y-151020000D01*
X120510000Y-148320000D02*
X120510000Y-150595000D01*
X120510000Y-150595000D02*
X120498000Y-150608000D01*
X119010000Y-151020000D02*
X117010000Y-151020000D01*
X119010000Y-151020000D02*
X120085000Y-151020000D01*
X120085000Y-151020000D02*
X120498000Y-150608000D01*
X120910000Y-151020000D02*
X120498000Y-150608000D01*
X115510000Y-151020000D02*
X115110000Y-151020000D01*
X115110000Y-151020000D02*
X114510000Y-151020000D01*
X109458000Y-146973500D02*
X109457500Y-146974000D01*
X109457500Y-146974000D02*
X109457500Y-147040000D01*
X109458000Y-146973500D02*
X109458000Y-146907000D01*
X109458000Y-146907000D02*
X110365000Y-145999000D01*
X110365000Y-145999000D02*
X110365000Y-145997000D01*
X110365000Y-145997000D02*
X111658000Y-144704000D01*
X109458000Y-147040000D02*
X109458000Y-146973500D01*
X124360000Y-116130000D02*
X122785000Y-116130000D01*
X122785000Y-116130000D02*
X120585000Y-118329000D01*
X120585000Y-118329000D02*
X120585000Y-127373000D01*
X120585000Y-127373000D02*
X119555000Y-128404000D01*
X119555000Y-128404000D02*
X119555000Y-133455000D01*
X119555000Y-133455000D02*
X119939000Y-133839000D01*
X119939000Y-133839000D02*
X119939000Y-134620000D01*
X116350000Y-143485000D02*
X115275000Y-143485000D01*
X115275000Y-143485000D02*
X115129000Y-143339000D01*
X115129000Y-143339000D02*
X114997000Y-143339000D01*
X107928000Y-146584500D02*
X107542000Y-146970000D01*
X110617000Y-142951000D02*
X109042000Y-144526000D01*
X109042000Y-144526000D02*
X109042000Y-145470000D01*
X109042000Y-145470000D02*
X108314000Y-146199000D01*
X108314000Y-146199000D02*
X107928000Y-146584500D01*
X107928000Y-146584500D02*
X107542500Y-146970000D01*
X118923000Y-134010000D02*
X118923000Y-126822000D01*
X118923000Y-126822000D02*
X118770000Y-126670000D01*
X118770000Y-126670000D02*
X118770000Y-118144000D01*
X118770000Y-118144000D02*
X122785000Y-114130000D01*
X122785000Y-114130000D02*
X124360000Y-114130000D01*
X116350000Y-142215000D02*
X115275000Y-142215000D01*
X115275000Y-142215000D02*
X115275000Y-142190000D01*
X115275000Y-142190000D02*
X114989000Y-141904000D01*
X125439500Y-139548000D02*
X125440000Y-139547500D01*
X125439500Y-139548000D02*
X125440000Y-139548000D01*
X113200000Y-136400000D02*
X113200000Y-137505000D01*
X113200000Y-137505000D02*
X114624000Y-137505000D01*
X114624000Y-137505000D02*
X115724000Y-136405000D01*
X115724000Y-136405000D02*
X115724000Y-135745000D01*
X115724000Y-135745000D02*
X116006000Y-135464000D01*
X116006000Y-135464000D02*
X117567000Y-135464000D01*
X117567000Y-135464000D02*
X121651000Y-139548000D01*
X121651000Y-139548000D02*
X125439500Y-139548000D01*
X114212000Y-130149600D02*
X114212500Y-130149100D01*
X114212500Y-130149100D02*
X114212500Y-129100000D01*
X114212000Y-130149600D02*
X114212000Y-129100000D01*
X114212000Y-129100000D02*
X112892000Y-127780000D01*
X112892000Y-127780000D02*
X112892000Y-114287000D01*
X112892000Y-114287000D02*
X110735000Y-112130000D01*
X110735000Y-112130000D02*
X109160000Y-112130000D01*
X114162500Y-131249500D02*
X114212000Y-131200000D01*
X114212000Y-131200000D02*
X114212000Y-130149600D01*
X114162500Y-131249500D02*
X114162500Y-131250000D01*
X114162000Y-131250000D02*
X114162500Y-131249500D01*
X125054000Y-143871500D02*
X124668000Y-143485000D01*
X124668000Y-143485000D02*
X121750000Y-143485000D01*
X125440000Y-144258000D02*
X125054000Y-143871500D01*
X125054000Y-143871500D02*
X125440000Y-144257500D01*
X122512000Y-137975000D02*
X122512500Y-137975000D01*
X114150000Y-136400000D02*
X114150000Y-135295000D01*
X114150000Y-135295000D02*
X114434000Y-135011000D01*
X114434000Y-135011000D02*
X117751000Y-135011000D01*
X117751000Y-135011000D02*
X120715000Y-137975000D01*
X120715000Y-137975000D02*
X122512000Y-137975000D01*
X116787500Y-137975000D02*
X116788000Y-137975000D01*
X112250000Y-136400000D02*
X112250000Y-137505000D01*
X112250000Y-137505000D02*
X112720000Y-137975000D01*
X112720000Y-137975000D02*
X116787500Y-137975000D01*
D28*
X101288000Y-125304500D02*
X101287500Y-125304000D01*
X101287500Y-125304000D02*
X101287500Y-124700000D01*
X101288000Y-125304500D02*
X101288000Y-125909000D01*
X101288000Y-125909000D02*
X102069000Y-126690000D01*
X102069000Y-126690000D02*
X103619000Y-126690000D01*
X103619000Y-126690000D02*
X104739000Y-127810000D01*
X104739000Y-127810000D02*
X105418000Y-127810000D01*
X105418000Y-127810000D02*
X106739000Y-129130000D01*
X101288000Y-124700000D02*
X101288000Y-125304500D01*
X103359000Y-132490000D02*
X104719000Y-132490000D01*
X104719000Y-132490000D02*
X105869000Y-131340000D01*
X105869000Y-131340000D02*
X105869000Y-130000000D01*
X105869000Y-130000000D02*
X106739000Y-129130000D01*
X106739000Y-129130000D02*
X108000000Y-129130000D01*
D27*
X124620000Y-134358000D02*
X123800000Y-133538000D01*
X123800000Y-133538000D02*
X123800000Y-133537900D01*
X123800000Y-133537900D02*
X121977200Y-135360700D01*
X121977200Y-135360700D02*
X118997700Y-135360700D01*
X118997700Y-135360700D02*
X118025300Y-134388300D01*
X118025300Y-134388300D02*
X115823700Y-134388300D01*
X115823700Y-134388300D02*
X114873500Y-133438100D01*
X114873500Y-133438100D02*
X114873500Y-132809900D01*
X114873500Y-132809900D02*
X114584600Y-132521000D01*
X114584600Y-132521000D02*
X113833800Y-132521000D01*
X113833800Y-132521000D02*
X113250000Y-131937200D01*
X113250000Y-131937200D02*
X113250000Y-130555500D01*
X113250000Y-130555500D02*
X112875900Y-130181400D01*
X112875900Y-130181400D02*
X108446000Y-130181400D01*
X102154000Y-129588600D02*
X101564300Y-128998900D01*
X101564300Y-128998900D02*
X101564300Y-127773300D01*
X101564300Y-127773300D02*
X100182800Y-126391800D01*
X100182800Y-126391800D02*
X100182800Y-120474200D01*
X100182800Y-120474200D02*
X101301700Y-119355300D01*
X123800000Y-133537900D02*
X123800000Y-126061000D01*
X123800000Y-126061000D02*
X122682000Y-124943000D01*
X122682000Y-124943000D02*
X122682000Y-124435000D01*
X122682000Y-124435000D02*
X122428000Y-124181000D01*
X122428000Y-124181000D02*
X122428000Y-122428000D01*
X122428000Y-122428000D02*
X122726000Y-122130000D01*
X122726000Y-122130000D02*
X124360000Y-122130000D01*
X124620000Y-134358000D02*
X124620500Y-134358000D01*
X124620500Y-134358000D02*
X125440000Y-135177500D01*
X125440000Y-135178000D02*
X124620000Y-134358000D01*
X101301700Y-119355300D02*
X101428300Y-119355300D01*
X101669000Y-119114600D02*
X101669000Y-118180000D01*
X101428300Y-119355300D02*
X101669000Y-119114600D01*
X102177560Y-129588600D02*
X102333999Y-129745039D01*
X102154000Y-129588600D02*
X102177560Y-129588600D01*
X102333999Y-130290001D02*
X102933818Y-130889820D01*
X102333999Y-129745039D02*
X102333999Y-130290001D01*
X103838780Y-130889820D02*
X103848780Y-130899820D01*
X102933818Y-130889820D02*
X103838780Y-130889820D01*
X107727580Y-130899820D02*
X108446000Y-130181400D01*
X106958780Y-130899820D02*
X107727580Y-130899820D01*
M02*
