M48
; DRILL file {KiCad (5.1.12)-1} date 12/21/21 15:59:26
; FORMAT={-:-/ absolute / inch / decimal}
; #@! TF.CreationDate,2021-12-21T15:59:26+01:00
; #@! TF.GenerationSoftware,Kicad,Pcbnew,(5.1.12)-1
FMAT,2
INCH
T1C0.0157
T2C0.0197
T3C0.0217
T4C0.0394
T5C0.0315
%
G90
G05
T1
X3.9981Y-4.4883
X4.0471Y-4.7932
X4.0885Y-5.1535
X4.1681Y-4.815
X4.201Y-4.432
X4.211Y-5.1535
X4.294Y-5.438
X4.3442Y-4.9659
X4.355Y-5.628
X4.368Y-5.266
X4.3707Y-4.862
X4.3709Y-4.8001
X4.3716Y-4.7151
X4.396Y-5.697
X4.5027Y-5.6886
X4.5271Y-5.5868
X4.5274Y-5.6433
X4.554Y-5.243
X4.595Y-5.019
X4.6507Y-5.4115
X4.682Y-5.276
X4.696Y-5.7855
X4.722Y-5.3
X4.782Y-5.1229
X4.8341Y-5.015
X4.864Y-5.528
X5.1262Y-5.0209
T4
X4.0027Y-4.5528
X4.0027Y-4.6528
X4.0027Y-4.7528
X4.0228Y-5.8197
X4.0228Y-5.9197
X4.9654Y-5.9157
X5.0654Y-5.9157
X5.0799Y-4.5622
X5.0799Y-4.6622
X5.0799Y-4.863
X5.0799Y-4.963
X5.08Y-5.1645
X5.08Y-5.2645
X5.08Y-5.3645
X5.08Y-5.4645
X5.08Y-5.5645
X5.08Y-5.6645
X5.08Y-5.7645
T5
X3.9901Y-5.1276
X3.9901Y-5.2457
T2
G00X4.5083Y-5.9329
M15
G01X4.5083Y-5.9585
M16
G05
G00X4.7839Y-5.9329
M15
G01X4.7839Y-5.9585
M16
G05
T3
G00X4.5417Y-5.8394
M15
G01X4.5535Y-5.8394
M16
G05
G00X4.7386Y-5.8394
M15
G01X4.7504Y-5.8394
M16
G05
T0
M30
